{
.formatVersion = 3;
axes = (
{
name = Weight;
tag = wght;
}
);
classes = (
{
code = "i zero one two three four five six seven eight nine zero.tf one.tf two.tf three.tf four.tf five.tf six.tf seven.tf eight.tf nine.tf middot bullet periodcentered.loclCAT";
name = aalt1;
},
{
code = "A Adieresis Edieresis Idieresis O Odieresis Udieresis Wdieresis Ydieresis a adieresis edieresis idieresis j o odieresis udieresis wdieresis ydieresis zero.numr one.numr two.numr three.numr four.numr five.numr six.numr seven.numr eight.numr nine.numr period colon semicolon ellipsis exclam exclamdown question questiondown slash periodcentered.loclCAT.case dieresis dotaccent";
name = aalt2;
},
{
code = "ordfeminine Adieresis.ss01 Edieresis.ss01 Idieresis.ss01 ordmasculine Odieresis.ss01 Udieresis.ss01 Wdieresis.ss01 Ydieresis.ss01 ordfeminine adieresis.ss01 edieresis.ss01 idieresis.ss01 j.ss01 ordmasculine odieresis.ss01 udieresis.ss01 wdieresis.ss01 ydieresis.ss01 zero.dnom one.dnom two.dnom three.dnom four.dnom five.dnom six.dnom seven.dnom eight.dnom nine.dnom period.ss01 colon.ss01 semicolon.ss01 ellipsis.ss01 exclam.ss01 exclamdown.ss01 question.ss01 questiondown.ss01 fraction periodcentered.loclCAT.case.ss01 dieresis.ss01 dotaccent.ss01";
name = aalt3;
},
{
code = "zero.dnom one.dnom two.dnom three.dnom four.dnom five.dnom six.dnom seven.dnom eight.dnom nine.dnom";
name = dnom1;
},
{
code = "zero one two three four five six seven eight nine";
name = numr1;
},
{
code = "zero.numr one.numr two.numr three.numr four.numr five.numr six.numr seven.numr eight.numr nine.numr";
name = numr2;
},
{
code = "zero.tf one.tf two.tf three.tf four.tf five.tf six.tf seven.tf eight.tf nine.tf";
name = pnum1;
},
{

glyphs = (
{
glyphname = A;
layers = (
{
layerId = "668C2366-11AD-425E-A5E0-D912FEE9BD2F";
shapes = (
{
closed = 1;
nodes = (
(239,116,l),
(205,0,l),
(10,0,l),
(242,667,l),
(493,667,l),
(702,0,l),
(506,0,l),
(471,116,l)
);
},
{
closed = 1;
nodes = (
(354,500,l),
(279,243,l),
(434,243,l)
);
}
);
width = 712;
},
{
layerId = "F93FC949-FDE5-438A-B007-EFA0C245CD82";
shapes = (
{
closed = 1;
nodes = (
(182,202,l),
(105,0,l),
(19,0,l),
(282,667,l),
(369,667,l),
(629,0,l),
(543,0,l),
(465,202,l)
);
},
{
closed = 1;
nodes = (
(323,578,l),
(209,273,l),
(439,273,l)
);
}
);
width = 648;
},
{
layerId = "D7C75E23-0F42-43B3-B077-EDD5C5AF94E1";
shapes = (
{
closed = 1;
nodes = (
(170,219,l),
(85,0,l),
(21,0,l),
(290,667,l),
(344,667,l),
(614,0,l),
(550,0,l),
(464,219,l)
);
},
{
closed = 1;
nodes = (
(317,593,l),
(195,279,l),
(440,279,l)
);
}
);
width = 635;
}
);
leftKerningGroup = _A1;
rightKerningGroup = _A;
unicode = 65;
},
{
glyphname = AE;
layers = (
{
layerId = "668C2366-11AD-425E-A5E0-D912FEE9BD2F";
shapes = (
{
closed = 1;
nodes = (
(601,414,l),
(807,414,l),
(807,264,l),
(601,264,l),
(601,151,l),
(846,151,l),
(846,0,l),
(401,0,l),
(401,103,l),
(237,103,l),
(198,0,l),
(-10,0,l),
(250,667,l),
(846,667,l),
(846,516,l),
(601,516,l)
);
},
{
closed = 1;
nodes = (
(401,518,l),
(281,240,l),
(401,240,l)
);
}
);
width = 905;
},
{
layerId = "F93FC949-FDE5-438A-B007-EFA0C245CD82";
shapes = (
{
closed = 1;
nodes = (
(497,372,l),
(768,372,l),
(768,296,l),
(497,296,l),
(497,75,l),
(809,75,l),
(809,0,l),
(416,0,l),
(416,146,l),
(184,146,l),
(102,0,l),
(11,0,l),
(394,667,l),
(809,667,l),
(809,593,l),
(497,593,l)
);
},
{
closed = 1;
nodes = (
(416,555,l),
(226,223,l),
(416,223,l)
);
}
);
width = 883;
},
{
layerId = "D7C75E23-0F42-43B3-B077-EDD5C5AF94E1";
shapes = (
{
closed = 1;
nodes = (
(476,363,l),
(760,363,l),
(760,302,l),
(476,302,l),
(476,60,l),
(801,60,l),
(801,0,l),
(419,0,l),
(419,154,l),
(173,154,l),
(83,0,l),
(15,0,l),
(423,667,l),
(801,667,l),
(801,608,l),
(476,608,l)
);
},
{
closed = 1;
nodes = (
(419,562,l),
(215,219,l),
(419,219,l)
);
}
);
width = 878;
}
);
leftKerningGroup = _A1;
unicode = 198;
},
{
glyphname = B;
layers = (
{
layerId = "668C2366-11AD-425E-A5E0-D912FEE9BD2F";
shapes = (
{
closed = 1;
nodes = (
(654,75,o),
(547,0,o),
(405,0,cs),
(65,0,l),
(65,667,l),
(313,667,ls),
(508,667,o),
(623,633,o),
(623,494,cs),
(623,432,o),
(594,387,o),
(537,357,c),
(613,336,o),
(654,280,o),
(654,208,cs)
);
},
{
closed = 1;
nodes = (
(427,496,o),
(392,526,o),
(362,526,cs),
(266,526,l),
(266,401,l),
(337,401,ls),
(356,401,o),
(427,392,o),
(427,467,cs)
);
},
{
closed = 1;
nodes = (
(447,258,o),
(415,284,o),
(375,284,cs),
(266,284,l),
(266,140,l),
(341,140,ls),
(378,140,o),
(447,132,o),
(447,215,cs)
);
}
);
width = 690;
},
{
layerId = "F93FC949-FDE5-438A-B007-EFA0C245CD82";
shapes = (
{
closed = 1;
nodes = (
(574,64,o),
(489,0,o),
(332,0,cs),
(83,0,l),
(83,667,l),
(301,667,ls),
(455,667,o),
(535,611,o),
(535,490,cs),
(535,406,o),
(485,376,o),
(461,357,c),
(536,324,o),
(574,267,o),
(574,191,cs)
);
},
{
closed = 1;
nodes = (
(455,563,o),
(409,594,o),
(315,594,cs),
(164,594,l),
(164,379,l),
(319,379,ls),
(402,379,o),
(455,397,o),
(455,482,cs)
);
},
{
closed = 1;
nodes = (
(493,282,o),
(437,309,o),
(332,309,cs),
(164,309,l),
(164,71,l),
(329,71,ls),
(429,71,o),
(493,96,o),
(493,195,cs)
);
}
);
width = 633;
},
{
layerId = "D7C75E23-0F42-43B3-B077-EDD5C5AF94E1";
shapes = (
{
closed = 1;
nodes = (
(558,62,o),
(477,0,o),
(317,0,cs),
(87,0,l),
(87,667,l),
(298,667,ls),
(444,667,o),
(517,607,o),
(517,489,cs),
(517,401,o),
(463,374,o),
(446,357,c),
(520,321,o),
(558,264,o),
(558,187,cs)
);
},
{
closed = 1;
nodes = (
(461,576,o),
(412,608,o),
(306,608,cs),
(144,608,l),
(144,374,l),
(315,374,ls),
(411,374,o),
(461,398,o),
(461,485,cs)
);
},
{
closed = 1;
nodes = (
(502,287,o),
(441,314,o),
(323,314,cs),
(144,314,l),
(144,57,l),
(326,57,ls),
(439,57,o),
(502,89,o),
(502,191,cs)
);
}
);
width = 621;
}
);
unicode = 66;
},
{
glyphname = C;
layers = (
{
layerId = "668C2366-11AD-425E-A5E0-D912FEE9BD2F";
shapes = (
{
closed = 1;
nodes = (
(148,-15,o),
(31,100,o),
(31,333,cs),
(31,567,o),
(148,685,o),
(373,685,cs),
(450,685,o),
(537,665,o),
(606,636,c),
(550,490,l),
(486,515,o),
(428,529,o),
(373,529,cs),
(289,529,o),
(237,467,o),
(237,333,cs),
(237,201,o),
(289,140,o),
(374,140,cs),
(428,140,o),
(487,153,o),
(551,179,c),
(607,34,l),
(538,5,o),
(452,-15,o),
(374,-15,cs)
);
}
);
width = 633;
},
{
layerId = "F93FC949-FDE5-438A-B007-EFA0C245CD82";
shapes = (
{
closed = 1;
nodes = (
(157,-8,o),
(54,105,o),
(54,334,cs),
(54,561,o),
(158,677,o),
(364,677,cs),
(430,677,o),
(504,659,o),
(579,628,c),
(549,557,l),
(488,586,o),
(422,602,o),
(364,602,cs),
(209,602,o),
(138,517,o),
(138,334,cs),
(138,148,o),
(207,66,o),
(365,66,cs),
(422,66,o),
(490,81,o),
(550,112,c),
(580,41,l),
(505,8,o),
(431,-8,o),
(365,-8,cs)
);
}
);
width = 623;
},
{
layerId = "D7C75E23-0F42-43B3-B077-EDD5C5AF94E1";
shapes = (
{
closed = 1;
nodes = (
(159,-7,o),
(58,106,o),
(58,334,cs),
(58,560,o),
(160,675,o),
(362,675,cs),
(426,675,o),
(497,658,o),
(573,626,c),
(549,570,l),
(488,600,o),
(421,617,o),
(362,617,cs),
(193,617,o),
(118,527,o),
(118,334,cs),
(118,137,o),
(191,51,o),
(363,51,cs),
(421,51,o),
(491,66,o),
(550,98,c),
(574,42,l),
(498,9,o),
(427,-7,o),
(363,-7,cs)
);
}
);
width = 621;
}
);
leftKerningGroup = _C;
unicode = 67;
},
{
glyphname = Ccedilla;
layers = (
{
layerId = "668C2366-11AD-425E-A5E0-D912FEE9BD2F";
shapes = (
{
closed = 1;
nodes = (
(427,-12,o),
(427,-12,o),
(427,-12,c),
(382,-139,l),
(223,-139,l),
(313,-12,l),
(126,8,o),
(31,125,o),
(31,333,cs),
(31,566,o),
(147,685,o),
(373,685,cs),
(450,685,o),
(537,665,o),
(606,636,c),
(550,490,l),
(486,515,o),
(428,529,o),
(373,529,cs),
(289,529,o),
(237,467,o),
(237,333,cs),
(237,201,o),
(289,140,o),
(374,140,cs),
(428,140,o),
(487,153,o),
(551,179,c),
(607,34,l),
(551,12,o),
(489,-7,o),
(427,-12,c)
);
}
);
width = 633;
},
{
layerId = "F93FC949-FDE5-438A-B007-EFA0C245CD82";
shapes = (
{
closed = 1;
nodes = (
(372,-8,o),
(371,-8,o),
(370,-8,c),
(311,-122,l),
(230,-122,l),
(309,-5,l),
(139,15,o),
(54,128,o),
(54,334,cs),
(54,561,o),
(158,677,o),
(364,677,cs),
(430,677,o),
(504,659,o),
(579,628,c),
(549,557,l),
(488,586,o),
(422,602,o),
(364,602,cs),
(209,602,o),
(138,517,o),
(138,334,cs),
(138,148,o),
(207,66,o),
(365,66,cs),
(422,66,o),
(490,81,o),
(550,112,c),
(580,41,l),
(507,10,o),
(437,-7,o),
(374,-8,cs)
);
}
);
width = 623;
},
{
layerId = "D7C75E23-0F42-43B3-B077-EDD5C5AF94E1";
shapes = (
{
closed = 1;
nodes = (
(361,-7,o),
(360,-7,o),
(358,-7,c),
(297,-118,l),
(231,-118,l),
(308,-4,l),
(141,16,o),
(58,128,o),
(58,334,cs),
(58,560,o),
(160,675,o),
(362,675,cs),
(426,675,o),
(497,658,o),
(573,626,c),
(549,570,l),
(488,600,o),
(421,617,o),
(362,617,cs),
(193,617,o),
(118,527,o),
(118,334,cs),
(118,137,o),
(191,51,o),
(363,51,cs),
(421,51,o),
(491,66,o),
(550,98,c),
(574,42,l),
(498,9,o),
(427,-7,o),
(363,-7,cs)
);
}
);
width = 621;
}
);
leftKerningGroup = _C;
unicode = 199;
},
{
glyphname = D;
layers = (
{
layerId = "668C2366-11AD-425E-A5E0-D912FEE9BD2F";
shapes = (
{
closed = 1;
nodes = (
(696,110,o),
(587,0,o),
(359,0,cs),
(65,0,l),
(65,667,l),
(261,667,ls),
(553,667,o),
(696,614,o),
(696,333,cs)
);
},
{
closed = 1;
nodes = (
(490,455,o),
(439,517,o),
(333,517,cs),
(266,517,l),
(266,150,l),
(333,150,ls),
(439,150,o),
(490,215,o),
(490,333,cs)
);
}
);
width = 730;
},
{
layerId = "F93FC949-FDE5-438A-B007-EFA0C245CD82";
shapes = (
{
closed = 1;
nodes = (
(614,111,o),
(509,0,o),
(299,0,cs),
(83,0,l),
(83,667,l),
(283,667,ls),
(502,667,o),
(614,564,o),
(614,334,cs)
);
},
{
closed = 1;
nodes = (
(530,514,o),
(457,595,o),
(292,595,cs),
(164,595,l),
(164,74,l),
(292,74,ls),
(457,74,o),
(530,155,o),
(530,334,cs)
);
}
);
width = 672;
},
{
layerId = "D7C75E23-0F42-43B3-B077-EDD5C5AF94E1";
shapes = (
{
closed = 1;
nodes = (
(597,111,o),
(493,0,o),
(287,0,cs),
(87,0,l),
(87,667,l),
(287,667,ls),
(492,667,o),
(597,554,o),
(597,334,cs)
);
},
{
closed = 1;
nodes = (
(538,526,o),
(461,610,o),
(284,610,cs),
(144,610,l),
(144,59,l),
(284,59,ls),
(460,59,o),
(538,143,o),
(538,334,cs)
);
}
);
width = 660;
}
);
rightKerningGroup = _D;
unicode = 68;
},
{
glyphname = Eth;
layers = (
{
layerId = "668C2366-11AD-425E-A5E0-D912FEE9BD2F";
shapes = (
{
closed = 1;
nodes = (
(696,110,o),
(587,0,o),
(359,0,cs),
(65,0,l),
(65,278,l),
(-4,278,l),
(-4,395,l),
(65,395,l),
(65,667,l),
(300,667,ls),
(557,667,o),
(696,602,o),
(696,333,cs)
);
},
{
closed = 1;
nodes = (
(490,455,o),
(438,517,o),
(333,517,cs),
(266,517,l),
(266,395,l),
(371,395,l),
(371,278,l),
(266,278,l),
(266,150,l),
(333,150,ls),
(438,150,o),
(490,212,o),
(490,333,cs)
);
}
);
width = 730;
},
{
layerId = "F93FC949-FDE5-438A-B007-EFA0C245CD82";
shapes = (
{
closed = 1;
nodes = (
(614,111,o),
(509,0,o),
(299,0,cs),
(83,0,l),
(83,301,l),
(21,301,l),
(21,373,l),
(83,373,l),
(83,667,l),
(289,667,ls),
(503,667,o),
(614,562,o),
(614,334,cs)
);
},
{
closed = 1;
nodes = (
(530,514,o),
(457,595,o),
(292,595,cs),
(164,595,l),
(164,373,l),
(274,373,l),
(274,301,l),
(164,301,l),
(164,74,l),
(292,74,ls),
(456,74,o),
(530,155,o),
(530,334,cs)
);
}
);
width = 672;
},
{
layerId = "D7C75E23-0F42-43B3-B077-EDD5C5AF94E1";
shapes = (
{
closed = 1;
nodes = (
(597,111,o),
(493,0,o),
(287,0,cs),
(87,0,l),
(87,305,l),
(26,305,l),
(26,369,l),
(87,369,l),
(87,667,l),
(287,667,ls),
(492,667,o),
(597,554,o),
(597,334,cs)
);
},
{
closed = 1;
nodes = (
(538,526,o),
(461,610,o),
(284,610,cs),
(144,610,l),
(144,369,l),
(255,369,l),
(255,305,l),
(144,305,l),
(144,59,l),
(284,59,ls),
(460,59,o),
(538,143,o),
(538,334,cs)
);
}
);
width = 660;
}
);
rightKerningGroup = _D;
unicode = 208;
},
{
glyphname = E;
layers = (
{
layerId = "668C2366-11AD-425E-A5E0-D912FEE9BD2F";
shapes = (
{
closed = 1;
nodes = (
(538,667,l),
(538,517,l),
(266,517,l),
(266,405,l),
(500,405,l),
(500,263,l),
(266,263,l),
(266,150,l),
(538,150,l),
(538,0,l),
(65,0,l),
(65,667,l)
);
}
);
width = 598;
},
{
layerId = "F93FC949-FDE5-438A-B007-EFA0C245CD82";
shapes = (
{
closed = 1;
nodes = (
(508,667,l),
(508,594,l),
(164,594,l),
(164,372,l),
(467,372,l),
(467,296,l),
(164,296,l),
(164,74,l),
(508,74,l),
(508,0,l),
(83,0,l),
(83,667,l)
);
}
);
width = 582;
},
{
layerId = "D7C75E23-0F42-43B3-B077-EDD5C5AF94E1";
shapes = (
{
closed = 1;
nodes = (
(502,667,l),
(502,609,l),
(144,609,l),
(144,365,l),
(460,365,l),
(460,303,l),
(144,303,l),
(144,59,l),
(502,59,l),
(502,0,l),
(87,0,l),
(87,667,l)
);
}
);
width = 579;
}
);
unicode = 69;
},
{
glyphname = F;
layers = (
{
layerId = "668C2366-11AD-425E-A5E0-D912FEE9BD2F";
shapes = (
{
closed = 1;
nodes = (
(538,667,l),
(538,517,l),
(266,517,l),
(266,389,l),
(499,389,l),
(499,237,l),
(266,237,l),
(266,0,l),
(65,0,l),
(65,667,l)
);
}
);
width = 583;
},
{
layerId = "F93FC949-FDE5-438A-B007-EFA0C245CD82";
shapes = (
{
closed = 1;
nodes = (
(497,667,l),
(497,594,l),
(164,594,l),
(164,371,l),
(457,371,l),
(457,295,l),
(164,295,l),
(164,0,l),
(83,0,l),
(83,667,l)
);
}
);
width = 542;
},
{
layerId = "D7C75E23-0F42-43B3-B077-EDD5C5AF94E1";
shapes = (
{
closed = 1;
nodes = (
(489,667,l),
(489,609,l),
(144,609,l),
(144,367,l),
(448,367,l),
(448,306,l),
(144,306,l),
(144,0,l),
(87,0,l),
(87,667,l)
);
}
);
width = 534;
}
);
unicode = 70;
},
{
glyphname = G;
layers = (
{
layerId = "668C2366-11AD-425E-A5E0-D912FEE9BD2F";
shapes = (
{
closed = 1;
nodes = (
(649,65,l),
(556,12,o),
(463,-16,o),
(368,-16,cs),
(147,-16,o),
(36,99,o),
(36,333,cs),
(36,567,o),
(183,685,o),
(392,685,cs),
(469,685,o),
(556,665,o),
(625,636,c),
(569,492,l),
(505,517,o),
(447,531,o),
(392,531,cs),
(305,531,o),
(241,468,o),
(241,334,cs),
(241,195,o),
(291,135,o),
(383,135,cs),
(412,135,o),
(435,141,o),
(450,152,c),
(450,240,l),
(346,240,l),
(346,385,l),
(649,385,l)
);
}
);
width = 714;
},
{
layerId = "F93FC949-FDE5-438A-B007-EFA0C245CD82";
shapes = (
{
closed = 1;
nodes = (
(606,43,l),
(532,8,o),
(453,-10,o),
(369,-10,cs),
(161,-10,o),
(59,108,o),
(59,334,cs),
(59,557,o),
(171,677,o),
(380,677,cs),
(447,677,o),
(519,659,o),
(594,628,c),
(566,557,l),
(503,586,o),
(438,603,o),
(380,603,cs),
(223,603,o),
(139,516,o),
(139,334,cs),
(139,148,o),
(213,64,o),
(377,64,cs),
(429,64,o),
(478,72,o),
(523,88,c),
(523,271,l),
(368,271,l),
(368,346,l),
(606,346,l)
);
}
);
width = 689;
},
{
layerId = "D7C75E23-0F42-43B3-B077-EDD5C5AF94E1";
shapes = (
{
closed = 1;
nodes = (
(597,39,l),
(527,7,o),
(451,-9,o),
(369,-9,cs),
(164,-9,o),
(63,110,o),
(63,334,cs),
(63,555,o),
(168,675,o),
(378,675,cs),
(442,675,o),
(512,658,o),
(588,626,c),
(565,570,l),
(503,600,o),
(436,617,o),
(378,617,cs),
(206,617,o),
(119,525,o),
(119,334,cs),
(119,139,o),
(197,50,o),
(376,50,cs),
(432,50,o),
(486,58,o),
(538,75,c),
(538,277,l),
(372,277,l),
(372,338,l),
(597,338,l)
);
}
);
width = 684;
}
);
leftKerningGroup = _C;
unicode = 71;
},
{
glyphname = H;
layers = (
{
layerId = "668C2366-11AD-425E-A5E0-D912FEE9BD2F";
shapes = (
{
closed = 1;
nodes = (
(266,667,l),
(266,410,l),
(463,410,l),
(463,667,l),
(663,667,l),
(663,0,l),
(463,0,l),
(463,250,l),
(266,250,l),
(266,0,l),
(65,0,l),
(65,667,l)
);
}
);
width = 728;
},
{
layerId = "F93FC949-FDE5-438A-B007-EFA0C245CD82";
shapes = (
{
closed = 1;
nodes = (
(164,667,l),
(164,370,l),
(509,370,l),
(509,667,l),
(590,667,l),
(590,0,l),
(509,0,l),
(509,296,l),
(164,296,l),
(164,0,l),
(83,0,l),
(83,667,l)
);
}
);
width = 673;
},
{
layerId = "D7C75E23-0F42-43B3-B077-EDD5C5AF94E1";
shapes = (
{
closed = 1;
nodes = (
(144,667,l),
(144,362,l),
(518,362,l),
(518,667,l),
(575,667,l),
(575,0,l),
(518,0,l),
(518,305,l),
(144,305,l),
(144,0,l),
(87,0,l),
(87,667,l)
);
}
);
width = 662;
}
);
unicode = 72;
},
{
glyphname = I;
layers = (
{
layerId = "668C2366-11AD-425E-A5E0-D912FEE9BD2F";
shapes = (
{
closed = 1;
nodes = (
(266,667,l),
(266,0,l),
(65,0,l),
(65,667,l)
);
}
);
width = 331;
},
{
layerId = "F93FC949-FDE5-438A-B007-EFA0C245CD82";
shapes = (
{
closed = 1;
nodes = (
(164,667,l),
(164,0,l),
(83,0,l),
(83,667,l)
);
}
);
width = 249;
},
{
layerId = "D7C75E23-0F42-43B3-B077-EDD5C5AF94E1";
shapes = (
{
closed = 1;
nodes = (
(144,667,l),
(144,0,l),
(87,0,l),
(87,667,l)
);
}
);
width = 232;
}
);
unicode = 73;
},
{
glyphname = J;
layers = (
{
layerId = "668C2366-11AD-425E-A5E0-D912FEE9BD2F";
shapes = (
{
closed = 1;
nodes = (
(424,205,ls),
(424,55,o),
(336,-15,o),
(182,-15,cs),
(127,-15,o),
(63,8,o),
(10,37,c),
(78,182,l),
(119,161,o),
(144,149,o),
(181,149,cs),
(238,149,o),
(223,240,o),
(223,289,cs),
(223,667,l),
(424,667,l)
);
}
);
width = 489;
},
{
layerId = "F93FC949-FDE5-438A-B007-EFA0C245CD82";
shapes = (
{
closed = 1;
nodes = (
(372,199,ls),
(372,52,o),
(294,-8,o),
(179,-8,cs),
(133,-8,o),
(81,7,o),
(28,36,c),
(61,106,l),
(102,81,o),
(141,68,o),
(179,68,cs),
(262,68,o),
(291,120,o),
(291,220,cs),
(291,667,l),
(372,667,l)
);
}
);
width = 456;
},
{
layerId = "D7C75E23-0F42-43B3-B077-EDD5C5AF94E1";
shapes = (
{
closed = 1;
nodes = (
(362,198,ls),
(362,51,o),
(286,-7,o),
(178,-7,cs),
(134,-7,o),
(85,7,o),
(31,36,c),
(57,91,l),
(99,65,o),
(140,52,o),
(178,52,cs),
(267,52,o),
(305,96,o),
(305,206,cs),
(305,667,l),
(362,667,l)
);
}
);
width = 449;
}
);
unicode = 74;
},
{
glyphname = K;
layers = (
{
layerId = "668C2366-11AD-425E-A5E0-D912FEE9BD2F";
shapes = (
{
closed = 1;
nodes = (
(65,0,l),
(65,667,l),
(266,667,l),
(266,425,l),
(422,667,l),
(673,667,l),
(440,380,l),
(694,0,l),
(449,0,l),
(266,298,l),
(266,0,l)
);
}
);
width = 709;
},
{
layerId = "F93FC949-FDE5-438A-B007-EFA0C245CD82";
shapes = (
{
closed = 1;
nodes = (
(83,0,l),
(83,667,l),
(164,667,l),
(164,359,l),
(468,667,l),
(576,667,l),
(257,347,l),
(596,0,l),
(486,0,l),
(164,331,l),
(164,0,l)
);
}
);
width = 620;
},
{
layerId = "D7C75E23-0F42-43B3-B077-EDD5C5AF94E1";
shapes = (
{
closed = 1;
nodes = (
(87,0,l),
(87,667,l),
(144,667,l),
(144,346,l),
(477,667,l),
(556,667,l),
(220,340,l),
(576,0,l),
(493,0,l),
(144,338,l),
(144,0,l)
);
}
);
width = 602;
}
);
unicode = 75;
},
{
glyphname = L;
layers = (
{
layerId = "668C2366-11AD-425E-A5E0-D912FEE9BD2F";
shapes = (
{
closed = 1;
nodes = (
(266,667,l),
(266,166,l),
(534,166,l),
(534,0,l),
(65,0,l),
(65,667,l)
);
}
);
width = 569;
},
{
layerId = "F93FC949-FDE5-438A-B007-EFA0C245CD82";
shapes = (
{
closed = 1;
nodes = (
(164,667,l),
(164,77,l),
(501,77,l),
(501,0,l),
(83,0,l),
(83,667,l)
);
}
);
width = 527;
},
{
layerId = "D7C75E23-0F42-43B3-B077-EDD5C5AF94E1";
shapes = (
{
closed = 1;
nodes = (
(144,667,l),
(144,59,l),
(494,59,l),
(494,0,l),
(87,0,l),
(87,667,l)
);
}
);
width = 518;
}
);
unicode = 76;
},
{
glyphname = M;
layers = (
{
layerId = "668C2366-11AD-425E-A5E0-D912FEE9BD2F";
shapes = (
{
closed = 1;
nodes = (
(779,0,l),
(578,0,l),
(578,400,l),
(423,195,l),
(408,195,l),
(256,399,l),
(256,0,l),
(65,0,l),
(65,667,l),
(268,667,l),
(423,442,l),
(582,667,l),
(779,667,l)
);
}
);
width = 844;
},
{
layerId = "F93FC949-FDE5-438A-B007-EFA0C245CD82";
shapes = (
{
closed = 1;
nodes = (
(703,0,l),
(622,0,l),
(622,539,l),
(401,222,l),
(372,222,l),
(164,537,l),
(164,0,l),
(83,0,l),
(83,667,l),
(171,667,l),
(390,329,l),
(616,667,l),
(703,667,l)
);
}
);
width = 787;
},
{
layerId = "D7C75E23-0F42-43B3-B077-EDD5C5AF94E1";
shapes = (
{
closed = 1;
nodes = (
(688,0,l),
(631,0,l),
(631,567,l),
(396,227,l),
(365,227,l),
(146,565,l),
(146,0,l),
(87,0,l),
(87,667,l),
(151,667,l),
(383,306,l),
(623,667,l),
(688,667,l)
);
}
);
width = 775;
}
);
unicode = 77;
},
{
glyphname = N;
layers = (
{
layerId = "668C2366-11AD-425E-A5E0-D912FEE9BD2F";
shapes = (
{
closed = 1;
nodes = (
(660,0,l),
(520,0,l),
(247,345,l),
(247,0,l),
(65,0,l),
(65,667,l),
(227,667,l),
(478,334,l),
(478,667,l),
(660,667,l)
);
}
);
width = 725;
},
{
layerId = "F93FC949-FDE5-438A-B007-EFA0C245CD82";
shapes = (
{
closed = 1;
nodes = (
(638,0,l),
(553,0,l),
(164,544,l),
(164,0,l),
(83,0,l),
(83,667,l),
(171,667,l),
(559,124,l),
(559,667,l),
(638,667,l)
);
}
);
width = 723;
},
{
layerId = "D7C75E23-0F42-43B3-B077-EDD5C5AF94E1";
shapes = (
{
closed = 1;
nodes = (
(634,0,l),
(560,0,l),
(147,584,l),
(147,0,l),
(87,0,l),
(87,667,l),
(160,667,l),
(575,82,l),
(575,667,l),
(634,667,l)
);
}
);
width = 722;
}
);
unicode = 78;
},
{
glyphname = O;
layers = (
{
layerId = "668C2366-11AD-425E-A5E0-D912FEE9BD2F";
shapes = (
{
closed = 1;
nodes = (
(36,556,o),
(155,682,o),
(372,682,cs),
(583,682,o),
(709,563,o),
(709,334,cs),
(709,110,o),
(586,-16,o),
(372,-16,cs),
(163,-16,o),
(36,104,o),
(36,333,cs)
);
},
{
closed = 1;
nodes = (
(502,467,o),
(462,522,o),
(372,522,cs),
(285,522,o),
(243,465,o),
(243,332,cs),
(243,202,o),
(286,145,o),
(372,145,cs),
(458,145,o),
(502,202,o),
(502,334,cs)
);
}
);
width = 745;
},
{
layerId = "F93FC949-FDE5-438A-B007-EFA0C245CD82";
shapes = (
{
closed = 1;
nodes = (
(59,556,o),
(158,676,o),
(360,676,cs),
(559,676,o),
(662,559,o),
(662,333,cs),
(662,105,o),
(558,-10,o),
(360,-10,cs),
(162,-10,o),
(59,105,o),
(59,333,cs)
);
},
{
closed = 1;
nodes = (
(580,519,o),
(512,602,o),
(360,602,cs),
(208,602,o),
(141,518,o),
(141,333,cs),
(141,146,o),
(207,64,o),
(360,64,cs),
(512,64,o),
(580,146,o),
(580,333,cs)
);
}
);
width = 721;
},
{
layerId = "D7C75E23-0F42-43B3-B077-EDD5C5AF94E1";
shapes = (
{
closed = 1;
nodes = (
(63,556,o),
(159,675,o),
(358,675,cs),
(554,675,o),
(653,558,o),
(653,333,cs),
(653,104,o),
(552,-9,o),
(358,-9,cs),
(162,-9,o),
(63,105,o),
(63,333,cs)
);
},
{
closed = 1;
nodes = (
(595,529,o),
(522,618,o),
(358,618,cs),
(193,618,o),
(121,529,o),
(121,333,cs),
(121,135,o),
(191,48,o),
(358,48,cs),
(523,48,o),
(595,135,o),
(595,333,cs)
);
}
);
width = 716;
}
);
leftKerningGroup = _O;
rightKerningGroup = _D;
unicode = 79;
},
{
glyphname = Oslash;
layers = (
{
layerId = "668C2366-11AD-425E-A5E0-D912FEE9BD2F";
shapes = (
{
closed = 1;
nodes = (
(709,111,o),
(589,-16,o),
(372,-16,cs),
(327,-16,o),
(284,-10,o),
(245,1,c),
(195,-86,l),
(111,-38,l),
(158,44,l),
(79,101,o),
(36,198,o),
(36,333,cs),
(36,557,o),
(157,682,o),
(372,682,cs),
(425,682,o),
(473,675,o),
(514,660,c),
(558,736,l),
(642,688,l),
(598,613,l),
(671,552,o),
(709,460,o),
(709,334,cs)
);
},
{
closed = 1;
nodes = (
(429,512,l),
(413,519,o),
(394,522,o),
(372,522,cs),
(285,522,o),
(243,465,o),
(243,332,cs),
(243,287,o),
(248,246,o),
(259,219,c)
);
},
{
closed = 1;
nodes = (
(502,373,o),
(499,404,o),
(492,428,c),
(331,150,l),
(346,147,o),
(359,145,o),
(372,145,cs),
(458,145,o),
(502,204,o),
(502,334,cs)
);
}
);
width = 745;
},
{
layerId = "F93FC949-FDE5-438A-B007-EFA0C245CD82";
shapes = (
{
closed = 1;
nodes = (
(662,105,o),
(558,-10,o),
(360,-10,cs),
(310,-10,o),
(266,-3,o),
(228,12,c),
(173,-84,l),
(111,-48,l),
(166,47,l),
(94,103,o),
(59,198,o),
(59,333,cs),
(59,556,o),
(159,676,o),
(360,676,cs),
(418,676,o),
(469,666,o),
(512,646,c),
(558,726,l),
(620,691,l),
(571,606,l),
(631,548,o),
(662,458,o),
(662,333,cs)
);
},
{
closed = 1;
nodes = (
(473,580,l),
(443,594,o),
(406,602,o),
(360,602,cs),
(208,602,o),
(141,518,o),
(141,333,cs),
(141,231,o),
(163,160,o),
(207,117,c)
);
},
{
closed = 1;
nodes = (
(580,423,o),
(562,490,o),
(528,532,c),
(266,78,l),
(293,69,o),
(324,64,o),
(360,64,cs),
(512,64,o),
(580,147,o),
(580,333,cs)
);
}
);
width = 721;
},
{
layerId = "D7C75E23-0F42-43B3-B077-EDD5C5AF94E1";
shapes = (
{
closed = 1;
nodes = (
(653,104,o),
(552,-9,o),
(358,-9,cs),
(307,-9,o),
(262,-1,o),
(224,14,c),
(168,-83,l),
(111,-50,l),
(167,48,l),
(97,103,o),
(63,198,o),
(63,333,cs),
(63,556,o),
(159,675,o),
(358,675,cs),
(417,675,o),
(468,664,o),
(511,643,c),
(558,724,l),
(615,691,l),
(565,604,l),
(623,547,o),
(653,457,o),
(653,333,cs)
);
},
{
closed = 1;
nodes = (
(482,593,l),
(449,609,o),
(408,618,o),
(358,618,cs),
(193,618,o),
(121,529,o),
(121,333,cs),
(121,220,o),
(146,143,o),
(196,97,c)
);
},
{
closed = 1;
nodes = (
(595,433,o),
(575,507,o),
(535,553,c),
(253,64,l),
(282,53,o),
(317,48,o),
(358,48,cs),
(523,48,o),
(595,135,o),
(595,333,cs)
);
}
);
width = 716;
}
);
leftKerningGroup = _O;
rightKerningGroup = _D;
unicode = 216;
},
{
glyphname = OE;
layers = (
{
layerId = "668C2366-11AD-425E-A5E0-D912FEE9BD2F";
shapes = (
{
closed = 1;
nodes = (
(904,409,l),
(904,259,l),
(678,259,l),
(678,150,l),
(941,150,l),
(941,0,l),
(489,0,l),
(489,2,l),
(443,-9,o),
(394,-16,o),
(352,-16,cs),
(162,-16,o),
(36,103,o),
(36,333,cs),
(36,555,o),
(154,682,o),
(352,682,cs),
(396,682,o),
(445,677,o),
(489,666,c),
(489,666,o),
(489,667,o),
(489,667,c),
(941,667,l),
(941,517,l),
(678,517,l),
(678,409,l)
);
},
{
closed = 1;
nodes = (
(486,468,o),
(444,522,o),
(352,522,cs),
(283,522,o),
(243,464,o),
(243,332,cs),
(243,204,o),
(284,145,o),
(352,145,cs),
(445,145,o),
(486,204,o),
(486,334,cs)
);
}
);
width = 1002;
},
{
layerId = "F93FC949-FDE5-438A-B007-EFA0C245CD82";
shapes = (
{
closed = 1;
nodes = (
(914,373,l),
(914,297,l),
(631,297,l),
(631,74,l),
(956,74,l),
(956,0,l),
(552,0,l),
(552,83,l),
(505,17,o),
(442,-10,o),
(340,-10,cs),
(160,-10,o),
(59,109,o),
(59,333,cs),
(59,555,o),
(158,676,o),
(340,676,cs),
(440,676,o),
(506,649,o),
(552,584,c),
(552,611,o),
(552,640,o),
(552,667,c),
(956,667,l),
(956,594,l),
(631,594,l),
(631,373,l)
);
},
{
closed = 1;
nodes = (
(550,518,o),
(482,602,o),
(340,602,cs),
(206,602,o),
(141,514,o),
(141,333,cs),
(141,147,o),
(206,64,o),
(340,64,cs),
(484,64,o),
(550,148,o),
(550,333,cs)
);
}
);
width = 1030;
},
{
layerId = "D7C75E23-0F42-43B3-B077-EDD5C5AF94E1";
shapes = (
{
closed = 1;
nodes = (
(916,366,l),
(916,304,l),
(622,304,l),
(622,59,l),
(959,59,l),
(959,0,l),
(564,0,l),
(564,99,l),
(517,22,o),
(451,-9,o),
(338,-9,cs),
(159,-9,o),
(63,110,o),
(63,333,cs),
(63,555,o),
(159,675,o),
(338,675,cs),
(449,675,o),
(518,643,o),
(564,567,c),
(564,600,o),
(564,634,o),
(564,667,c),
(959,667,l),
(959,609,l),
(622,609,l),
(622,366,l)
);
},
{
closed = 1;
nodes = (
(563,528,o),
(489,618,o),
(338,618,cs),
(191,618,o),
(121,524,o),
(121,333,cs),
(121,136,o),
(190,48,o),
(338,48,cs),
(492,48,o),
(563,137,o),
(563,333,cs)
);
}
);
width = 1036;
}
);
leftKerningGroup = _C;
unicode = 338;
},
{
glyphname = P;
layers = (
{
layerId = "2C489AF4-CB50-400B-84D0-36176F61FB51";
name = "#instance";
shapes = (
{
closed = 1;
nodes = (
(87,667,l),
(314,667,ls),
(459,667,o),
(542,593,o),
(542,463,cs),
(542,331,o),
(460,261,o),
(314,261,cs),
(144,261,l),
(144,0,l),
(87,0,l)
);
},
{
closed = 1;
nodes = (
(487,555,o),
(444,607,o),
(307,607,cs),
(144,607,l),
(144,321,l),
(307,321,ls),
(441,321,o),
(487,371,o),
(487,465,cs)
);
}
);
width = 605;
},
{
layerId = "668C2366-11AD-425E-A5E0-D912FEE9BD2F";
shapes = (
{
closed = 1;
nodes = (
(65,667,l),
(392,667,ls),
(557,667,o),
(652,594,o),
(652,445,cs),
(652,291,o),
(553,203,o),
(392,203,cs),
(266,203,l),
(266,0,l),
(65,0,l)
);
},
{
closed = 1;
nodes = (
(432,488,o),
(403,519,o),
(367,519,cs),
(266,519,l),
(266,348,l),
(327,348,ls),
(366,348,o),
(432,342,o),
(432,429,cs)
);
}
);
width = 686;
},
{
layerId = "F93FC949-FDE5-438A-B007-EFA0C245CD82";
shapes = (
{
closed = 1;
nodes = (
(83,667,l),
(327,667,ls),
(475,667,o),
(560,593,o),
(560,460,cs),
(560,324,o),
(476,251,o),
(327,251,cs),
(164,251,l),
(164,0,l),
(83,0,l)
);
},
{
closed = 1;
nodes = (
(478,544,o),
(437,592,o),
(317,592,cs),
(164,592,l),
(164,326,l),
(310,326,ls),
(429,326,o),
(478,366,o),
(478,459,cs)
);
}
);
width = 619;
},
{
layerId = "D7C75E23-0F42-43B3-B077-EDD5C5AF94E1";
shapes = (
{
closed = 1;
nodes = (
(87,667,l),
(314,667,ls),
(459,667,o),
(542,593,o),
(542,463,cs),
(542,331,o),
(460,261,o),
(314,261,cs),
(144,261,l),
(144,0,l),
(87,0,l)
);
},
{
closed = 1;
nodes = (
(487,555,o),
(444,607,o),
(307,607,cs),
(144,607,l),
(144,321,l),
(307,321,ls),
(441,321,o),
(487,371,o),
(487,465,cs)
);
}
);
width = 605;
}
);
unicode = 80;
},
{
glyphname = Thorn;
layers = (
{
layerId = "668C2366-11AD-425E-A5E0-D912FEE9BD2F";
shapes = (
{
closed = 1;
nodes = (
(258,567,l),
(344,567,ls),
(503,567,o),
(600,481,o),
(600,335,cs),
(600,182,o),
(506,99,o),
(344,99,cs),
(258,99,l),
(258,0,l),
(86,0,l),
(86,667,l),
(258,667,l)
);
},
{
closed = 1;
nodes = (
(427,389,o),
(392,427,o),
(328,427,cs),
(258,427,l),
(258,241,l),
(311,241,ls),
(386,241,o),
(427,267,o),
(427,335,cs)
);
}
);
width = 653;
},
{
layerId = "F93FC949-FDE5-438A-B007-EFA0C245CD82";
shapes = (
{
closed = 1;
nodes = (
(165,566,l),
(292,566,ls),
(440,566,o),
(524,491,o),
(524,358,cs),
(524,222,o),
(440,149,o),
(292,149,cs),
(165,149,l),
(165,0,l),
(86,0,l),
(86,667,l),
(165,667,l)
);
},
{
closed = 1;
nodes = (
(445,442,o),
(403,491,o),
(281,491,cs),
(165,491,l),
(165,224,l),
(279,224,ls),
(401,224,o),
(445,269,o),
(445,358,cs)
);
}
);
width = 576;
},
{
layerId = "D7C75E23-0F42-43B3-B077-EDD5C5AF94E1";
shapes = (
{
closed = 1;
nodes = (
(146,566,l),
(282,566,ls),
(427,566,o),
(509,493,o),
(509,362,cs),
(509,230,o),
(427,159,o),
(282,159,cs),
(146,159,l),
(146,0,l),
(86,0,l),
(86,667,l),
(146,667,l)
);
},
{
closed = 1;
nodes = (
(448,453,o),
(405,504,o),
(272,504,cs),
(146,504,l),
(146,220,l),
(272,220,ls),
(404,220,o),
(448,269,o),
(448,362,cs)
);
}
);
width = 560;
}
);
unicode = 222;
},
{
glyphname = Q;
layers = (
{
layerId = "2C489AF4-CB50-400B-84D0-36176F61FB51";
name = "#instance";
shapes = (
{
closed = 1;
nodes = (
(708,-80,l),
(674,-88,o),
(645,-93,o),
(621,-93,cs),
(554,-93,o),
(505,-62,o),
(448,21,c),
(504,39,l),
(534,-9,o),
(567,-42,o),
(623,-42,cs),
(641,-42,o),
(665,-37,o),
(695,-29,c)
);
},
{
closed = 1;
nodes = (
(63,556,o),
(159,675,o),
(358,675,cs),
(554,675,o),
(653,558,o),
(653,333,cs),
(653,104,o),
(552,-9,o),
(358,-9,cs),
(162,-9,o),
(63,105,o),
(63,333,cs)
);
},
{
closed = 1;
nodes = (
(595,529,o),
(522,618,o),
(358,618,cs),
(193,618,o),
(121,529,o),
(121,333,cs),
(121,135,o),
(191,48,o),
(358,48,cs),
(523,48,o),
(595,135,o),
(595,333,cs)
);
}
);
width = 716;
},
{
layerId = "668C2366-11AD-425E-A5E0-D912FEE9BD2F";
shapes = (
{
closed = 1;
nodes = (
(754,-126,l),
(710,-137,o),
(673,-142,o),
(643,-142,cs),
(553,-142,o),
(441,-92,o),
(383,-7,c),
(551,41,l),
(577,13,o),
(601,-1,o),
(638,-1,cs),
(664,-1,o),
(701,9,o),
(726,15,c)
);
},
{
closed = 1;
nodes = (
(36,556,o),
(155,682,o),
(372,682,cs),
(583,682,o),
(709,563,o),
(709,334,cs),
(709,110,o),
(586,-16,o),
(372,-16,cs),
(163,-16,o),
(36,104,o),
(36,333,cs)
);
},
{
closed = 1;
nodes = (
(502,467,o),
(462,522,o),
(372,522,cs),
(285,522,o),
(243,465,o),
(243,332,cs),
(243,202,o),
(286,145,o),
(372,145,cs),
(458,145,o),
(502,202,o),
(502,334,cs)
);
}
);
width = 745;
},
{
layerId = "F93FC949-FDE5-438A-B007-EFA0C245CD82";
shapes = (
{
closed = 1;
nodes = (
(716,-88,l),
(680,-96,o),
(650,-101,o),
(625,-101,cs),
(554,-101,o),
(494,-67,o),
(437,16,c),
(512,39,l),
(541,-5,o),
(573,-35,o),
(626,-35,cs),
(645,-35,o),
(671,-29,o),
(700,-22,c)
);
},
{
closed = 1;
nodes = (
(59,556,o),
(158,676,o),
(360,676,cs),
(559,676,o),
(662,559,o),
(662,333,cs),
(662,105,o),
(558,-10,o),
(360,-10,cs),
(162,-10,o),
(59,105,o),
(59,333,cs)
);
},
{
closed = 1;
nodes = (
(580,519,o),
(512,602,o),
(360,602,cs),
(208,602,o),
(141,518,o),
(141,333,cs),
(141,146,o),
(207,64,o),
(360,64,cs),
(512,64,o),
(580,146,o),
(580,333,cs)
);
}
);
width = 721;
},
{
layerId = "D7C75E23-0F42-43B3-B077-EDD5C5AF94E1";
shapes = (
{
closed = 1;
nodes = (
(708,-80,l),
(674,-88,o),
(645,-93,o),
(621,-93,cs),
(554,-93,o),
(505,-62,o),
(448,21,c),
(504,39,l),
(534,-9,o),
(567,-42,o),
(623,-42,cs),
(641,-42,o),
(665,-37,o),
(695,-29,c)
);
},
{
closed = 1;
nodes = (
(63,556,o),
(159,675,o),
(358,675,cs),
(554,675,o),
(653,558,o),
(653,333,cs),
(653,104,o),
(552,-9,o),
(358,-9,cs),
(162,-9,o),
(63,105,o),
(63,333,cs)
);
},
{
closed = 1;
nodes = (
(595,529,o),
(522,618,o),
(358,618,cs),
(193,618,o),
(121,529,o),
(121,333,cs),
(121,135,o),
(191,48,o),
(358,48,cs),
(523,48,o),
(595,135,o),
(595,333,cs)
);
}
);
width = 716;
}
);
leftKerningGroup = _C;
rightKerningGroup = _D;
unicode = 81;
},
{
glyphname = R;
layers = (
{
layerId = "668C2366-11AD-425E-A5E0-D912FEE9BD2F";
shapes = (
{
closed = 1;
nodes = (
(412,667,ls),
(575,667,o),
(672,597,o),
(672,449,cs),
(672,366,o),
(622,283,o),
(540,253,c),
(708,0,l),
(464,0,l),
(349,213,l),
(266,213,l),
(266,0,l),
(65,0,l),
(65,667,l)
);
},
{
closed = 1;
nodes = (
(452,487,o),
(428,517,o),
(387,517,cs),
(266,517,l),
(266,354,l),
(347,354,ls),
(397,354,o),
(452,348,o),
(452,439,cs)
);
}
);
width = 743;
},
{
layerId = "F93FC949-FDE5-438A-B007-EFA0C245CD82";
shapes = (
{
closed = 1;
nodes = (
(363,667,ls),
(493,667,o),
(565,600,o),
(565,472,cs),
(565,369,o),
(505,294,o),
(414,276,c),
(595,0,l),
(498,0,l),
(329,266,l),
(164,266,l),
(164,0,l),
(83,0,l),
(83,667,l)
);
},
{
closed = 1;
nodes = (
(482,550,o),
(445,594,o),
(354,594,cs),
(164,594,l),
(164,338,l),
(324,338,ls),
(426,338,o),
(482,372,o),
(482,466,cs)
);
}
);
width = 639;
},
{
layerId = "D7C75E23-0F42-43B3-B077-EDD5C5AF94E1";
shapes = (
{
closed = 1;
nodes = (
(353,667,ls),
(477,667,o),
(543,600,o),
(543,476,cs),
(543,370,o),
(482,296,o),
(389,280,c),
(572,0,l),
(505,0,l),
(325,276,l),
(144,276,l),
(144,0,l),
(87,0,l),
(87,667,l)
);
},
{
closed = 1;
nodes = (
(488,562,o),
(448,609,o),
(347,609,cs),
(144,609,l),
(144,335,l),
(319,335,ls),
(432,335,o),
(488,377,o),
(488,471,cs)
);
}
);
width = 618;
}
);
unicode = 82;
},
{
glyphname = S;
layers = (
{
layerId = "2C489AF4-CB50-400B-84D0-36176F61FB51";
name = "#instance";
shapes = (
{
closed = 1;
nodes = (
(498,70,o),
(419,-9,o),
(272,-9,cs),
(207,-9,o),
(137,7,o),
(61,40,c),
(85,97,l),
(143,66,o),
(211,49,o),
(272,49,cs),
(374,49,o),
(441,92,o),
(441,169,cs),
(441,250,o),
(382,272,o),
(268,319,c),
(142,363,o),
(70,393,o),
(70,512,cs),
(70,591,o),
(158,677,o),
(293,677,cs),
(357,677,o),
(428,660,o),
(504,628,c),
(480,572,l),
(419,602,o),
(350,619,o),
(293,619,cs),
(262,619,o),
(234,614,o),
(209,605,cs),
(157,587,o),
(128,554,o),
(128,515,cs),
(128,397,o),
(227,414,o),
(399,328,cs),
(450,302,o),
(498,253,o),
(498,175,cs)
);
}
);
width = 551;
},
{
layerId = "668C2366-11AD-425E-A5E0-D912FEE9BD2F";
shapes = (
{
closed = 1;
nodes = (
(554,79,o),
(458,-16,o),
(275,-16,cs),
(198,-16,o),
(111,4,o),
(42,33,c),
(97,177,l),
(165,148,o),
(226,135,o),
(275,135,cs),
(320,135,o),
(348,151,o),
(348,187,cs),
(348,222,o),
(300,229,o),
(231,252,c),
(132,282,o),
(43,326,o),
(40,454,c),
(40,588,o),
(134,684,o),
(309,684,cs),
(386,684,o),
(473,664,o),
(542,635,c),
(487,494,l),
(441,513,o),
(393,527,o),
(350,531,c),
(336,533,o),
(322,533,o),
(309,533,cs),
(270,533,o),
(245,517,o),
(245,479,cs),
(245,412,o),
(329,430,o),
(442,376,cs),
(517,339,o),
(554,286,o),
(554,212,cs)
);
}
);
width = 587;
},
{
layerId = "F93FC949-FDE5-438A-B007-EFA0C245CD82";
shapes = (
{
closed = 1;
nodes = (
(507,72,o),
(426,-10,o),
(273,-10,cs),
(206,-10,o),
(133,7,o),
(58,39,c),
(87,110,l),
(147,80,o),
(214,63,o),
(273,63,cs),
(365,63,o),
(426,102,o),
(426,172,cs),
(426,245,o),
(368,265,o),
(262,308,c),
(140,350,o),
(66,382,o),
(65,502,cs),
(65,591,o),
(154,678,o),
(296,678,cs),
(362,678,o),
(436,661,o),
(510,629,c),
(481,559,l),
(423,587,o),
(357,604,o),
(303,604,c),
(274,605,o),
(249,601,o),
(226,593,c),
(176,578,o),
(148,548,o),
(148,509,cs),
(148,400,o),
(244,417,o),
(406,336,cs),
(461,308,o),
(507,259,o),
(507,181,cs)
);
}
);
width = 557;
},
{
layerId = "D7C75E23-0F42-43B3-B077-EDD5C5AF94E1";
shapes = (
{
closed = 1;
nodes = (
(498,70,o),
(419,-9,o),
(272,-9,cs),
(207,-9,o),
(137,7,o),
(61,40,c),
(85,97,l),
(143,66,o),
(211,49,o),
(272,49,cs),
(374,49,o),
(441,92,o),
(441,169,cs),
(441,250,o),
(382,272,o),
(268,319,c),
(142,363,o),
(70,393,o),
(70,512,cs),
(70,591,o),
(158,677,o),
(293,677,cs),
(357,677,o),
(428,660,o),
(504,628,c),
(480,572,l),
(419,602,o),
(350,619,o),
(293,619,cs),
(262,619,o),
(234,614,o),
(209,605,cs),
(157,587,o),
(128,554,o),
(128,515,cs),
(128,397,o),
(227,414,o),
(399,328,cs),
(450,302,o),
(498,253,o),
(498,175,cs)
);
}
);
width = 551;
}
);
unicode = 83;
},
{
glyphname = uni1E9E;
layers = (
{
layerId = "668C2366-11AD-425E-A5E0-D912FEE9BD2F";
shapes = (
{
closed = 1;
nodes = (
(553,404,l),
(648,369,o),
(693,317,o),
(693,205,cs),
(693,80,o),
(593,-16,o),
(436,-16,cs),
(397,-16,o),
(319,-2,o),
(304,3,c),
(344,151,l),
(355,148,o),
(382,140,o),
(422,140,cs),
(450,140,o),
(496,174,o),
(496,218,cs),
(496,268,o),
(473,296,o),
(424,296,cs),
(409,296,o),
(393,294,o),
(375,289,c),
(345,384,l),
(484,524,l),
(445,533,o),
(410,538,o),
(377,538,cs),
(317,538,o),
(258,496,o),
(258,438,cs),
(258,292,o),
(257,146,o),
(257,0,c),
(74,0,l),
(76,405,ls),
(76,574,o),
(179,689,o),
(377,689,cs),
(460,689,o),
(551,669,o),
(626,640,c),
(626,574,l),
(626,541,o),
(625,509,o),
(625,476,c),
(609,460,o),
(593,444,o),
(577,428,cs)
);
}
);
width = 748;
},
{
layerId = "F93FC949-FDE5-438A-B007-EFA0C245CD82";
shapes = (
{
closed = 1;
nodes = (
(435,397,l),
(533,391,o),
(626,320,o),
(626,196,cs),
(626,71,o),
(543,-10,o),
(411,-10,cs),
(359,-10,o),
(299,0,o),
(255,19,c),
(279,93,l),
(318,74,o),
(362,64,o),
(410,64,cs),
(491,64,o),
(544,108,o),
(544,196,cs),
(544,266,o),
(506,314,o),
(432,326,cs),
(407,330,o),
(377,332,o),
(343,329,c),
(314,387,l),
(492,582,l),
(444,601,o),
(398,610,o),
(352,610,cs),
(246,610,o),
(169,568,o),
(169,435,cs),
(169,290,o),
(169,145,o),
(169,0,c),
(89,0,l),
(89,428,ls),
(89,594,o),
(177,683,o),
(352,683,cs),
(418,683,o),
(492,666,o),
(568,634,c),
(568,567,l),
(522,514,o),
(475,461,o),
(429,408,c),
(430,405,o),
(433,403,o),
(439,401,c)
);
}
);
width = 693;
},
{
layerId = "D7C75E23-0F42-43B3-B077-EDD5C5AF94E1";
shapes = (
{
closed = 1;
nodes = (
(510,395,o),
(613,320,o),
(613,194,cs),
(613,69,o),
(533,-9,o),
(406,-9,cs),
(351,-9,o),
(295,0,o),
(245,22,c),
(266,81,l),
(311,59,o),
(358,49,o),
(408,49,cs),
(499,49,o),
(554,95,o),
(554,192,cs),
(554,266,o),
(513,317,o),
(433,332,cs),
(406,337,o),
(374,339,o),
(337,337,c),
(308,387,l),
(494,594,l),
(444,614,o),
(395,624,o),
(347,624,cs),
(232,624,o),
(151,582,o),
(151,434,cs),
(151,289,o),
(151,145,o),
(151,0,c),
(92,0,l),
(92,432,ls),
(92,598,o),
(177,682,o),
(347,682,cs),
(410,682,o),
(480,665,o),
(556,633,c),
(556,565,l),
(501,508,o),
(445,451,o),
(390,394,c),
(394,394,o),
(401,395,o),
(411,395,c)
);
}
);
width = 682;
}
);
unicode = 7838;
},
{
glyphname = T;
layers = (
{
layerId = "668C2366-11AD-425E-A5E0-D912FEE9BD2F";
shapes = (
{
closed = 1;
nodes = (
(26,517,l),
(26,667,l),
(563,667,l),
(563,517,l),
(393,517,l),
(393,0,l),
(192,0,l),
(192,517,l)
);
}
);
width = 589;
},
{
layerId = "F93FC949-FDE5-438A-B007-EFA0C245CD82";
shapes = (
{
closed = 1;
nodes = (
(20,594,l),
(20,667,l),
(563,667,l),
(563,594,l),
(333,594,l),
(333,0,l),
(252,0,l),
(252,594,l)
);
}
);
width = 583;
},
{
layerId = "D7C75E23-0F42-43B3-B077-EDD5C5AF94E1";
shapes = (
{
closed = 1;
nodes = (
(19,609,l),
(19,667,l),
(563,667,l),
(563,609,l),
(321,609,l),
(321,0,l),
(264,0,l),
(264,609,l)
);
}
);
width = 582;
}
);
unicode = 84;
},
{
glyphname = U;
layers = (
{
layerId = "668C2366-11AD-425E-A5E0-D912FEE9BD2F";
shapes = (
{
closed = 1;
nodes = (
(65,667,l),
(271,667,l),
(271,311,ls),
(271,181,o),
(278,125,o),
(375,125,cs),
(442,125,o),
(480,170,o),
(480,251,cs),
(480,667,l),
(676,667,l),
(676,300,ls),
(676,72,o),
(598,-26,o),
(392,-26,cs),
(170,-26,o),
(65,51,o),
(65,239,c)
);
}
);
width = 741;
},
{
layerId = "F93FC949-FDE5-438A-B007-EFA0C245CD82";
shapes = (
{
closed = 1;
nodes = (
(83,667,l),
(164,667,l),
(164,277,ls),
(164,133,o),
(221,63,o),
(348,63,cs),
(470,63,o),
(533,131,o),
(533,267,cs),
(533,667,l),
(612,667,l),
(612,280,ls),
(612,90,o),
(520,-11,o),
(350,-11,cs),
(178,-11,o),
(83,89,o),
(83,270,cs)
);
}
);
width = 695;
},
{
layerId = "D7C75E23-0F42-43B3-B077-EDD5C5AF94E1";
shapes = (
{
closed = 1;
nodes = (
(87,667,l),
(143,667,l),
(143,270,ls),
(143,123,o),
(209,50,o),
(342,50,cs),
(476,50,o),
(543,123,o),
(543,270,cs),
(543,667,l),
(599,667,l),
(599,276,ls),
(599,94,o),
(504,-8,o),
(341,-8,cs),
(180,-8,o),
(87,96,o),
(87,276,c)
);
}
);
width = 686;
}
);
unicode = 85;
},
{
glyphname = V;
layers = (
{
layerId = "668C2366-11AD-425E-A5E0-D912FEE9BD2F";
shapes = (
{
closed = 1;
nodes = (
(473,0,l),
(256,0,l),
(10,667,l),
(245,667,l),
(368,217,l),
(508,666,l),
(736,667,l)
);
}
);
width = 746;
},
{
layerId = "F93FC949-FDE5-438A-B007-EFA0C245CD82";
shapes = (
{
closed = 1;
nodes = (
(356,0,l),
(274,0,l),
(19,667,l),
(107,667,l),
(318,104,l),
(526,665,l),
(613,667,l)
);
}
);
width = 632;
},
{
layerId = "D7C75E23-0F42-43B3-B077-EDD5C5AF94E1";
shapes = (
{
closed = 1;
nodes = (
(332,0,l),
(278,0,l),
(21,667,l),
(79,667,l),
(308,81,l),
(530,665,l),
(588,667,l)
);
}
);
width = 609;
}
);
leftKerningGroup = _V;
rightKerningGroup = _V;
unicode = 86;
},
{
glyphname = W;
layers = (
{
layerId = "668C2366-11AD-425E-A5E0-D912FEE9BD2F";
shapes = (
{
closed = 1;
nodes = (
(825,0,l),
(627,0,l),
(512,381,l),
(398,0,l),
(200,0,l),
(25,667,l),
(246,667,l),
(318,246,l),
(438,667,l),
(586,667,l),
(705,244,l),
(779,667,l),
(1000,667,l)
);
}
);
width = 1025;
},
{
layerId = "F93FC949-FDE5-438A-B007-EFA0C245CD82";
shapes = (
{
closed = 1;
nodes = (
(743,0,l),
(660,0,l),
(490,541,l),
(319,0,l),
(237,0,l),
(25,667,l),
(111,667,l),
(284,109,l),
(451,667,l),
(529,667,l),
(698,108,l),
(868,667,l),
(954,667,l)
);
}
);
width = 979;
},
{
layerId = "D7C75E23-0F42-43B3-B077-EDD5C5AF94E1";
shapes = (
{
closed = 1;
nodes = (
(726,0,l),
(667,0,l),
(485,573,l),
(303,0,l),
(244,0,l),
(25,667,l),
(84,667,l),
(277,81,l),
(454,667,l),
(517,667,l),
(697,81,l),
(886,667,l),
(945,667,l)
);
}
);
width = 970;
}
);
leftKerningGroup = _V;
rightKerningGroup = _V;
unicode = 87;
},
{
glyphname = X;
layers = (
{
layerId = "668C2366-11AD-425E-A5E0-D912FEE9BD2F";
shapes = (
{
closed = 1;
nodes = (
(350,165,l),
(252,0,l),
(23,0,l),
(238,329,l),
(9,667,l),
(260,667,l),
(370,494,l),
(468,667,l),
(701,667,l),
(488,330,l),
(709,0,l),
(458,0,l)
);
}
);
width = 718;
},
{
layerId = "F93FC949-FDE5-438A-B007-EFA0C245CD82";
shapes = (
{
closed = 1;
nodes = (
(297,268,l),
(110,0,l),
(13,0,l),
(248,337,l),
(17,667,l),
(115,667,l),
(298,406,l),
(481,667,l),
(579,667,l),
(348,336,l),
(582,0,l),
(485,0,l)
);
}
);
width = 598;
},
{
layerId = "D7C75E23-0F42-43B3-B077-EDD5C5AF94E1";
shapes = (
{
closed = 1;
nodes = (
(286,288,l),
(82,0,l),
(11,0,l),
(250,339,l),
(19,667,l),
(86,667,l),
(284,388,l),
(483,667,l),
(554,667,l),
(320,337,l),
(557,0,l),
(490,0,l)
);
}
);
width = 574;
}
);
unicode = 88;
},
{
glyphname = Y;
layers = (
{
layerId = "668C2366-11AD-425E-A5E0-D912FEE9BD2F";
shapes = (
{
closed = 1;
nodes = (
(481,0,l),
(280,0,l),
(280,253,l),
(25,667,l),
(272,667,l),
(375,431,l),
(485,667,l),
(707,667,l),
(481,249,l)
);
}
);
width = 733;
},
{
layerId = "F93FC949-FDE5-438A-B007-EFA0C245CD82";
shapes = (
{
closed = 1;
nodes = (
(344,0,l),
(263,0,l),
(263,302,l),
(13,667,l),
(111,667,l),
(302,379,l),
(493,667,l),
(590,667,l),
(344,302,l)
);
}
);
width = 607;
},
{
layerId = "D7C75E23-0F42-43B3-B077-EDD5C5AF94E1";
shapes = (
{
closed = 1;
nodes = (
(316,0,l),
(259,0,l),
(259,312,l),
(11,667,l),
(79,667,l),
(287,369,l),
(495,667,l),
(566,667,l),
(316,313,l)
);
}
);
width = 582;
}
);
leftKerningGroup = _Y;
rightKerningGroup = _Y;
unicode = 89;
},
{
glyphname = Z;
layers = (
{
layerId = "668C2366-11AD-425E-A5E0-D912FEE9BD2F";
shapes = (
{
closed = 1;
nodes = (
(304,151,l),
(595,151,l),
(595,0,l),
(50,0,l),
(50,142,l),
(351,514,l),
(52,514,l),
(52,667,l),
(595,667,l),
(595,527,l)
);
}
);
width = 645;
},
{
layerId = "F93FC949-FDE5-438A-B007-EFA0C245CD82";
shapes = (
{
closed = 1;
nodes = (
(164,74,l),
(543,74,l),
(543,0,l),
(63,0,l),
(63,69,l),
(447,593,l),
(73,593,l),
(73,667,l),
(543,667,l),
(543,600,l)
);
}
);
width = 612;
},
{
layerId = "D7C75E23-0F42-43B3-B077-EDD5C5AF94E1";
shapes = (
{
closed = 1;
nodes = (
(136,58,l),
(533,58,l),
(533,0,l),
(66,0,l),
(66,54,l),
(466,609,l),
(77,609,l),
(77,667,l),
(533,667,l),
(533,615,l)
);
}
);
width = 605;
}
);
unicode = 90;
},
{
glyphname = a;
layers = (
{
layerId = "668C2366-11AD-425E-A5E0-D912FEE9BD2F";
shapes = (
{
closed = 1;
nodes = (
(518,33,l),
(489,15,o),
(353,-15,o),
(280,-15,cs),
(111,-15,o),
(30,40,o),
(30,162,cs),
(30,258,o),
(106,311,o),
(242,311,cs),
(267,311,o),
(299,306,o),
(339,297,c),
(339,345,ls),
(339,377,o),
(312,390,o),
(280,390,cs),
(236,390,o),
(182,376,o),
(125,355,c),
(78,485,l),
(138,512,o),
(212,530,o),
(276,530,c),
(416,526,o),
(520,473,o),
(520,342,c)
);
},
{
closed = 1;
nodes = (
(229,219,o),
(211,195,o),
(211,165,cs),
(211,134,o),
(242,114,o),
(280,114,cs),
(302,114,o),
(322,117,o),
(339,124,c),
(339,207,l),
(331,209,o),
(305,219,o),
(273,219,cs)
);
}
);
width = 580;
},
{
layerId = "F93FC949-FDE5-438A-B007-EFA0C245CD82";
shapes = (
{
closed = 1;
nodes = (
(477,43,l),
(441,13,o),
(349,-15,o),
(263,-15,cs),
(135,-15,o),
(58,38,o),
(58,150,cs),
(58,246,o),
(134,305,o),
(250,305,cs),
(307,305,o),
(356,296,o),
(397,279,c),
(397,332,ls),
(397,405,o),
(360,437,o),
(277,437,cs),
(228,437,o),
(169,420,o),
(118,392,c),
(94,461,l),
(158,493,o),
(220,510,o),
(276,510,cs),
(410,509,o),
(478,454,o),
(478,348,cs)
);
},
{
closed = 1;
nodes = (
(179,242,o),
(138,205,o),
(138,150,cs),
(138,84,o),
(186,54,o),
(263,54,cs),
(321,54,o),
(366,64,o),
(397,85,c),
(397,215,l),
(362,232,o),
(313,242,o),
(253,242,cs)
);
}
);
width = 556;
},
{
layerId = "D7C75E23-0F42-43B3-B077-EDD5C5AF94E1";
shapes = (
{
closed = 1;
nodes = (
(469,45,l),
(431,13,o),
(348,-15,o),
(259,-15,cs),
(140,-15,o),
(64,38,o),
(64,148,cs),
(64,244,o),
(139,304,o),
(252,304,cs),
(315,304,o),
(367,294,o),
(408,275,c),
(408,329,ls),
(408,410,o),
(369,446,o),
(276,446,cs),
(226,446,o),
(166,429,o),
(117,399,c),
(97,456,l),
(162,489,o),
(222,506,o),
(276,506,cs),
(409,506,o),
(469,450,o),
(469,349,c)
);
},
{
closed = 1;
nodes = (
(169,246,o),
(123,207,o),
(123,147,cs),
(123,74,o),
(175,42,o),
(259,42,cs),
(325,42,o),
(375,53,o),
(408,77,c),
(408,216,l),
(368,236,o),
(315,246,o),
(249,246,cs)
);
}
);
width = 551;
}
);
leftKerningGroup = _a1;
unicode = 97;
},
{
glyphname = ae;
layers = (
{
layerId = "668C2366-11AD-425E-A5E0-D912FEE9BD2F";
shapes = (
{
closed = 1;
nodes = (
(525,205,l),
(522,159,o),
(555,125,o),
(611,125,cs),
(661,125,o),
(712,137,o),
(770,159,c),
(820,30,l),
(757,3,o),
(679,-15,o),
(611,-15,cs),
(560,-15,o),
(513,-5,o),
(472,15,c),
(444,7,o),
(410,-1,o),
(376,-6,cs),
(342,-12,o),
(308,-15,o),
(280,-15,cs),
(109,-15,o),
(30,42,o),
(30,162,cs),
(30,261,o),
(108,311,o),
(242,311,cs),
(267,311,o),
(299,306,o),
(339,297,c),
(339,313,o),
(339,329,o),
(339,345,cs),
(339,377,o),
(310,390,o),
(280,390,cs),
(236,390,o),
(182,377,o),
(125,355,c),
(78,485,l),
(137,512,o),
(212,530,o),
(276,530,c),
(348,527,o),
(405,513,o),
(446,487,c),
(489,516,o),
(542,530,o),
(605,530,cs),
(769,530,o),
(848,424,o),
(846,205,c)
);
},
{
closed = 1;
nodes = (
(667,293,l),
(669,363,o),
(643,395,o),
(597,395,cs),
(550,395,o),
(518,352,o),
(522,293,c)
);
},
{
closed = 1;
nodes = (
(339,207,l),
(329,212,o),
(305,219,o),
(273,219,cs),
(233,219,o),
(211,197,o),
(211,165,cs),
(211,134,o),
(242,114,o),
(280,114,cs),
(302,114,o),
(322,117,o),
(339,124,c)
);
}
);
width = 877;
},
{
layerId = "F93FC949-FDE5-438A-B007-EFA0C245CD82";
shapes = (
{
closed = 1;
nodes = (
(478,235,l),
(478,124,o),
(524,58,o),
(621,58,cs),
(672,58,o),
(732,74,o),
(788,103,c),
(814,34,l),
(747,1,o),
(681,-15,o),
(621,-15,cs),
(558,-15,o),
(507,3,o),
(470,42,c),
(465,29,o),
(412,10,o),
(384,2,cs),
(346,-10,o),
(306,-15,o),
(263,-15,cs),
(135,-15,o),
(58,39,o),
(58,150,cs),
(58,247,o),
(134,305,o),
(250,305,cs),
(306,305,o),
(354,296,o),
(396,280,c),
(396,301,o),
(397,314,o),
(397,332,cs),
(397,405,o),
(359,437,o),
(277,437,cs),
(228,437,o),
(169,420,o),
(118,392,c),
(94,461,l),
(158,493,o),
(220,510,o),
(276,510,cs),
(363,510,o),
(421,486,o),
(451,439,c),
(488,486,o),
(544,510,o),
(618,510,cs),
(767,510,o),
(839,405,o),
(837,235,c)
);
},
{
closed = 1;
nodes = (
(754,301,l),
(747,394,o),
(702,439,o),
(617,439,cs),
(528,439,o),
(488,400,o),
(479,301,c)
);
},
{
closed = 1;
nodes = (
(397,206,l),
(395,231,o),
(303,242,o),
(253,242,cs),
(180,242,o),
(138,205,o),
(138,150,cs),
(138,84,o),
(186,54,o),
(263,54,cs),
(321,54,o),
(366,64,o),
(397,85,c)
);
}
);
width = 857;
},
{
layerId = "D7C75E23-0F42-43B3-B077-EDD5C5AF94E1";
shapes = (
{
closed = 1;
nodes = (
(469,241,l),
(469,117,o),
(518,45,o),
(623,45,cs),
(674,45,o),
(736,61,o),
(791,92,c),
(813,35,l),
(745,1,o),
(681,-15,o),
(623,-15,cs),
(557,-15,o),
(506,5,o),
(469,47,c),
(469,33,o),
(412,12,o),
(385,3,cs),
(347,-9,o),
(305,-15,o),
(259,-15,cs),
(140,-15,o),
(64,38,o),
(64,148,cs),
(64,244,o),
(139,304,o),
(252,304,cs),
(314,304,o),
(365,294,o),
(407,276,c),
(407,299,o),
(408,311,o),
(408,329,cs),
(408,410,o),
(369,446,o),
(276,446,cs),
(226,446,o),
(166,429,o),
(117,399,c),
(97,456,l),
(162,489,o),
(222,506,o),
(276,506,cs),
(366,506,o),
(424,480,o),
(452,429,c),
(488,480,o),
(544,506,o),
(620,506,cs),
(767,506,o),
(837,401,o),
(835,241,c)
);
},
{
closed = 1;
nodes = (
(771,302,l),
(763,400,o),
(714,448,o),
(621,448,cs),
(524,448,o),
(482,409,o),
(470,302,c)
);
},
{
closed = 1;
nodes = (
(408,206,ls),
(408,235,o),
(302,246,o),
(249,246,cs),
(169,246,o),
(123,207,o),
(123,147,cs),
(123,74,o),
(175,42,o),
(259,42,cs),
(325,42,o),
(375,53,o),
(408,77,c)
);
}
);
width = 853;
}
);
leftKerningGroup = _a1;
unicode = 230;
},
{
glyphname = b;
layers = (
{
layerId = "2C489AF4-CB50-400B-84D0-36176F61FB51";
name = "#instance";
shapes = (
{
closed = 1;
nodes = (
(82,713,l),
(142,713,l),
(142,475,l),
(180,490,o),
(234,505,o),
(267,505,cs),
(417,505,o),
(506,410,o),
(506,255,cs),
(506,75,o),
(422,-15,o),
(259,-15,cs),
(186,-15,o),
(146,-5,o),
(82,24,c)
);
},
{
closed = 1;
nodes = (
(229,448,o),
(186,435,o),
(142,411,c),
(142,59,l),
(180,47,o),
(220,41,o),
(262,41,cs),
(395,41,o),
(442,113,o),
(442,257,cs),
(442,373,o),
(380,448,o),
(273,448,cs)
);
}
);
width = 564;
},
{
layerId = "668C2366-11AD-425E-A5E0-D912FEE9BD2F";
shapes = (
{
closed = 1;
nodes = (
(60,24,l),
(60,689,l),
(238,689,l),
(238,505,l),
(269,520,o),
(311,526,o),
(356,526,cs),
(503,526,o),
(584,433,o),
(584,265,c),
(585,72,o),
(493,-15,o),
(306,-15,cs),
(228,-15,o),
(181,-9,o),
(108,11,c)
);
},
{
closed = 1;
nodes = (
(276,382,o),
(254,377,o),
(238,367,c),
(238,147,l),
(261,139,o),
(280,138,o),
(307,138,cs),
(370,138,o),
(405,179,o),
(405,252,cs),
(405,338,o),
(373,382,o),
(303,382,cs)
);
}
);
width = 615;
},
{
layerId = "F93FC949-FDE5-438A-B007-EFA0C245CD82";
shapes = (
{
closed = 1;
nodes = (
(78,24,l),
(78,709,l),
(158,709,l),
(158,480,l),
(195,495,o),
(247,509,o),
(282,509,cs),
(431,509,o),
(519,414,o),
(519,257,cs),
(519,75,o),
(434,-15,o),
(267,-15,cs),
(193,-15,o),
(152,-6,o),
(86,22,c)
);
},
{
closed = 1;
nodes = (
(237,437,o),
(197,425,o),
(158,404,c),
(158,74,l),
(194,62,o),
(230,57,o),
(270,57,cs),
(391,57,o),
(436,124,o),
(436,256,cs),
(436,367,o),
(379,437,o),
(278,437,cs)
);
}
);
width = 573;
},
{
layerId = "D7C75E23-0F42-43B3-B077-EDD5C5AF94E1";
shapes = (
{
closed = 1;
nodes = (
(82,713,l),
(142,713,l),
(142,475,l),
(180,490,o),
(234,505,o),
(267,505,cs),
(417,505,o),
(506,410,o),
(506,255,cs),
(506,75,o),
(422,-15,o),
(259,-15,cs),
(186,-15,o),
(146,-5,o),
(82,24,c)
);
},
{
closed = 1;
nodes = (
(229,448,o),
(186,435,o),
(142,411,c),
(142,59,l),
(180,47,o),
(220,41,o),
(262,41,cs),
(395,41,o),
(442,113,o),
(442,257,cs),
(442,373,o),
(380,448,o),
(273,448,cs)
);
}
);
width = 564;
}
);
rightKerningGroup = _b;
unicode = 98;
},
{
glyphname = c;
layers = (
{
layerId = "668C2366-11AD-425E-A5E0-D912FEE9BD2F";
shapes = (
{
closed = 1;
nodes = (
(31,418,o),
(134,525,o),
(312,525,cs),
(377,525,o),
(455,505,o),
(515,476,c),
(469,333,l),
(421,357,o),
(364,374,o),
(312,374,cs),
(258,374,o),
(212,337,o),
(212,269,cs),
(212,182,o),
(246,136,o),
(313,136,cs),
(365,136,o),
(421,153,o),
(469,176,c),
(516,34,l),
(456,5,o),
(380,-15,o),
(313,-15,cs),
(158,-15,o),
(31,80,o),
(31,244,cs)
);
}
);
width = 546;
},
{
layerId = "F93FC949-FDE5-438A-B007-EFA0C245CD82";
shapes = (
{
closed = 1;
nodes = (
(54,431,o),
(146,509,o),
(281,509,cs),
(334,509,o),
(393,493,o),
(453,461,c),
(427,395,l),
(375,421,o),
(327,436,o),
(281,436,cs),
(181,436,o),
(133,379,o),
(133,252,cs),
(133,124,o),
(180,65,o),
(281,65,cs),
(328,65,o),
(377,80,o),
(428,109,c),
(454,41,l),
(394,8,o),
(335,-8,o),
(281,-8,cs),
(147,-8,o),
(54,68,o),
(54,250,cs)
);
}
);
width = 503;
},
{
layerId = "D7C75E23-0F42-43B3-B077-EDD5C5AF94E1";
shapes = (
{
closed = 1;
nodes = (
(58,433,o),
(148,506,o),
(275,506,cs),
(325,506,o),
(380,490,o),
(441,458,c),
(418,407,l),
(366,434,o),
(319,448,o),
(275,448,cs),
(166,448,o),
(117,387,o),
(117,248,cs),
(117,112,o),
(167,51,o),
(275,51,cs),
(320,51,o),
(368,65,o),
(420,95,c),
(441,42,l),
(381,9,o),
(326,-7,o),
(275,-7,cs),
(145,-7,o),
(58,65,o),
(58,251,cs)
);
}
);
width = 494;
}
);
leftKerningGroup = _c;
unicode = 99;
},
{
glyphname = ccedilla;
layers = (
{
layerId = "668C2366-11AD-425E-A5E0-D912FEE9BD2F";
shapes = (
{
closed = 1;
nodes = (
(516,34,l),
(473,13,o),
(428,-1,o),
(379,-9,c),
(333,-139,l),
(174,-139,l),
(264,-12,l),
(131,6,o),
(31,99,o),
(31,244,cs),
(31,417,o),
(135,525,o),
(312,525,cs),
(377,525,o),
(455,505,o),
(515,476,c),
(469,333,l),
(421,357,o),
(364,374,o),
(312,374,cs),
(257,374,o),
(212,336,o),
(212,269,cs),
(212,181,o),
(248,136,o),
(313,136,cs),
(365,136,o),
(421,153,o),
(469,176,c)
);
}
);
width = 546;
},
{
layerId = "F93FC949-FDE5-438A-B007-EFA0C245CD82";
shapes = (
{
closed = 1;
nodes = (
(454,41,l),
(401,12,o),
(352,-3,o),
(306,-7,c),
(247,-122,l),
(166,-122,l),
(244,-6,l),
(131,7,o),
(54,86,o),
(54,250,cs),
(54,430,o),
(146,509,o),
(281,509,cs),
(334,509,o),
(393,493,o),
(453,461,c),
(427,395,l),
(375,421,o),
(327,436,o),
(281,436,cs),
(180,436,o),
(133,377,o),
(133,252,cs),
(133,124,o),
(181,65,o),
(281,65,cs),
(328,65,o),
(377,80,o),
(428,109,c)
);
}
);
width = 503;
},
{
layerId = "D7C75E23-0F42-43B3-B077-EDD5C5AF94E1";
shapes = (
{
closed = 1;
nodes = (
(441,42,l),
(387,12,o),
(337,-3,o),
(291,-6,c),
(230,-118,l),
(164,-118,l),
(240,-5,l),
(131,7,o),
(58,83,o),
(58,251,cs),
(58,433,o),
(148,506,o),
(275,506,cs),
(325,506,o),
(380,490,o),
(441,458,c),
(418,407,l),
(366,434,o),
(319,448,o),
(275,448,cs),
(164,448,o),
(117,385,o),
(117,248,cs),
(117,112,o),
(167,51,o),
(275,51,cs),
(320,51,o),
(368,65,o),
(420,95,c)
);
}
);
width = 494;
}
);
leftKerningGroup = _c;
unicode = 231;
},
{
glyphname = d;
layers = (
{
layerId = "2C489AF4-CB50-400B-84D0-36176F61FB51";
name = "#instance";
shapes = (
{
closed = 1;
nodes = (
(154,-15,o),
(58,64,o),
(58,256,cs),
(58,411,o),
(135,505,o),
(284,505,cs),
(314,505,o),
(377,490,o),
(421,474,c),
(421,709,l),
(480,709,l),
(480,60,l),
(436,14,o),
(364,-15,o),
(280,-15,cs)
);
},
{
closed = 1;
nodes = (
(172,448,o),
(122,373,o),
(122,257,cs),
(122,119,o),
(163,41,o),
(284,41,cs),
(338,41,o),
(384,55,o),
(421,83,c),
(421,410,l),
(379,433,o),
(322,448,o),
(277,448,cs)
);
}
);
width = 562;
},
{
layerId = "668C2366-11AD-425E-A5E0-D912FEE9BD2F";
shapes = (
{
closed = 1;
nodes = (
(120,-15,o),
(29,63,o),
(31,257,c),
(31,433,o),
(119,529,o),
(279,529,cs),
(324,529,o),
(359,524,o),
(385,511,c),
(385,716,l),
(566,716,l),
(566,22,l),
(517,-1,o),
(421,-15,o),
(318,-15,cs)
);
},
{
closed = 1;
nodes = (
(248,385,o),
(213,354,o),
(213,252,cs),
(213,173,o),
(247,136,o),
(325,136,cs),
(344,136,o),
(365,134,o),
(385,141,c),
(385,370,l),
(366,380,o),
(346,385,o),
(332,385,cs)
);
}
);
width = 626;
},
{
layerId = "F93FC949-FDE5-438A-B007-EFA0C245CD82";
shapes = (
{
closed = 1;
nodes = (
(148,-15,o),
(53,64,o),
(54,256,c),
(54,415,o),
(132,509,o),
(283,509,cs),
(316,509,o),
(374,496,o),
(415,480,c),
(415,710,l),
(494,710,l),
(494,54,l),
(450,12,o),
(374,-15,o),
(286,-15,cs)
);
},
{
closed = 1;
nodes = (
(185,438,o),
(137,370,o),
(137,256,cs),
(137,128,o),
(177,57,o),
(291,57,cs),
(339,57,o),
(381,68,o),
(415,93,c),
(415,403,l),
(377,424,o),
(326,438,o),
(286,438,cs)
);
}
);
width = 573;
},
{
layerId = "D7C75E23-0F42-43B3-B077-EDD5C5AF94E1";
shapes = (
{
closed = 1;
nodes = (
(154,-15,o),
(58,64,o),
(58,256,cs),
(58,411,o),
(135,505,o),
(284,505,cs),
(314,505,o),
(377,490,o),
(421,474,c),
(421,709,l),
(480,709,l),
(480,60,l),
(436,14,o),
(364,-15,o),
(280,-15,cs)
);
},
{
closed = 1;
nodes = (
(172,448,o),
(122,373,o),
(122,257,cs),
(122,119,o),
(163,41,o),
(284,41,cs),
(338,41,o),
(384,55,o),
(421,83,c),
(421,410,l),
(379,433,o),
(322,448,o),
(277,448,cs)
);
}
);
width = 562;
}
);
leftKerningGroup = _c;
unicode = 100;
},
{
glyphname = eth;
layers = (
{
layerId = "668C2366-11AD-425E-A5E0-D912FEE9BD2F";
shapes = (
{
closed = 1;
nodes = (
(551,81,o),
(472,-25,o),
(298,-25,cs),
(118,-25,o),
(31,63,o),
(31,252,cs),
(31,423,o),
(102,525,o),
(227,525,cs),
(252,525,o),
(274,522,o),
(294,517,cs),
(324,509,o),
(347,494,o),
(366,474,c),
(357,505,o),
(342,535,o),
(321,564,c),
(203,540,l),
(178,638,l),
(237,648,l),
(227,657,o),
(201,673,o),
(168,692,c),
(263,806,l),
(287,788,o),
(308,773,o),
(325,760,cs),
(365,729,ls),
(384,714,o),
(400,698,o),
(414,681,c),
(529,699,l),
(560,612,l),
(478,595,l),
(523,524,o),
(551,422,o),
(551,310,cs)
);
},
{
closed = 1;
nodes = (
(378,346,o),
(380,357,o),
(383,362,c),
(360,393,o),
(332,410,o),
(298,410,cs),
(239,410,o),
(210,357,o),
(210,252,cs),
(210,156,o),
(233,117,o),
(298,117,cs),
(372,117,o),
(378,201,o),
(378,331,cs)
);
}
);
width = 589;
},
{
layerId = "F93FC949-FDE5-438A-B007-EFA0C245CD82";
shapes = (
{
closed = 1;
nodes = (
(515,91,o),
(434,-16,o),
(286,-16,cs),
(131,-16,o),
(54,76,o),
(54,249,cs),
(54,393,o),
(110,482,o),
(221,503,c),
(243,508,o),
(267,509,o),
(291,508,cs),
(321,507,o),
(347,499,o),
(370,487,c),
(354,513,o),
(332,541,o),
(306,571,c),
(176,548,l),
(165,608,l),
(253,623,l),
(233,642,o),
(195,670,o),
(174,690,c),
(227,744,l),
(240,733,o),
(260,719,o),
(283,697,cs),
(318,665,l),
(330,655,o),
(339,646,o),
(347,639,c),
(452,656,l),
(462,596,l),
(395,585,l),
(474,486,o),
(515,381,o),
(515,274,cs)
);
},
{
closed = 1;
nodes = (
(436,317,o),
(428,358,o),
(413,399,c),
(378,424,o),
(331,440,o),
(285,440,cs),
(183,440,o),
(133,376,o),
(133,249,cs),
(133,119,o),
(181,55,o),
(285,55,cs),
(387,55,o),
(436,114,o),
(436,275,cs)
);
}
);
width = 569;
},
{
layerId = "D7C75E23-0F42-43B3-B077-EDD5C5AF94E1";
shapes = (
{
closed = 1;
nodes = (
(508,93,o),
(426,-14,o),
(284,-14,cs),
(133,-14,o),
(58,79,o),
(58,248,cs),
(58,387,o),
(111,473,o),
(220,499,cs),
(241,504,o),
(265,506,o),
(290,506,cs),
(320,506,o),
(347,500,o),
(371,490,c),
(353,514,o),
(330,542,o),
(303,572,c),
(170,550,l),
(162,602,l),
(256,618,l),
(234,639,o),
(194,669,o),
(175,689,c),
(220,731,l),
(230,722,o),
(250,708,o),
(275,684,cs),
(309,652,ls),
(319,643,o),
(327,636,o),
(334,630,c),
(436,647,l),
(442,593,l),
(378,583,l),
(464,478,o),
(508,373,o),
(508,267,cs)
);
},
{
closed = 1;
nodes = (
(447,311,o),
(437,358,o),
(419,406,c),
(381,430,o),
(331,446,o),
(282,446,cs),
(172,446,o),
(117,380,o),
(117,248,cs),
(117,111,o),
(171,43,o),
(282,43,cs),
(390,43,o),
(447,97,o),
(447,264,cs)
);
}
);
width = 565;
}
);
unicode = 240;
},
{
glyphname = e;
layers = (
{
layerId = "668C2366-11AD-425E-A5E0-D912FEE9BD2F";
shapes = (
{
closed = 1;
nodes = (
(31,425,o),
(130,530,o),
(297,530,cs),
(462,530,o),
(540,423,o),
(538,205,c),
(217,205,l),
(213,157,o),
(249,125,o),
(302,125,cs),
(350,125,o),
(402,136,o),
(462,159,c),
(512,30,l),
(449,3,o),
(371,-15,o),
(302,-15,cs),
(152,-15,o),
(31,77,o),
(31,244,cs)
);
},
{
closed = 1;
nodes = (
(248,395,o),
(209,355,o),
(214,293,c),
(359,293,l),
(361,361,o),
(337,395,o),
(288,395,cs)
);
}
);
width = 569;
},
{
layerId = "F93FC949-FDE5-438A-B007-EFA0C245CD82";
shapes = (
{
closed = 1;
nodes = (
(54,418,o),
(133,510,o),
(275,510,cs),
(426,510,o),
(498,405,o),
(496,235,c),
(135,235,l),
(134,121,o),
(189,58,o),
(280,58,cs),
(330,58,o),
(390,74,o),
(446,103,c),
(473,34,l),
(406,1,o),
(339,-15,o),
(280,-15,cs),
(139,-15,o),
(54,80,o),
(54,250,cs)
);
},
{
closed = 1;
nodes = (
(188,439,o),
(146,399,o),
(137,301,c),
(412,301,l),
(406,393,o),
(362,439,o),
(275,439,cs)
);
}
);
width = 549;
},
{
layerId = "D7C75E23-0F42-43B3-B077-EDD5C5AF94E1";
shapes = (
{
closed = 1;
nodes = (
(58,416,o),
(133,506,o),
(271,506,cs),
(419,506,o),
(489,401,o),
(487,241,c),
(118,241,l),
(118,114,o),
(177,45,o),
(275,45,cs),
(326,45,o),
(388,61,o),
(443,92,c),
(465,35,l),
(397,1,o),
(333,-15,o),
(275,-15,cs),
(136,-15,o),
(58,80,o),
(58,251,cs)
);
},
{
closed = 1;
nodes = (
(176,448,o),
(133,408,o),
(121,302,c),
(423,302,l),
(415,399,o),
(367,448,o),
(272,448,cs)
);
}
);
width = 545;
}
);
leftKerningGroup = _c;
unicode = 101;
},
{
glyphname = f;
layers = (
{
layerId = "2C489AF4-CB50-400B-84D0-36176F61FB51";
name = "#instance";
shapes = (
{
closed = 1;
nodes = (
(42,499,l),
(130,499,l),
(130,524,ls),
(130,637,o),
(169,707,o),
(285,707,cs),
(316,707,o),
(345,699,o),
(373,687,c),
(357,633,l),
(340,641,o),
(307,650,o),
(285,650,cs),
(221,650,o),
(189,612,o),
(189,526,cs),
(189,499,l),
(330,499,l),
(330,442,l),
(189,442,l),
(189,0,l),
(130,0,l),
(130,442,l),
(42,442,l)
);
}
);
width = 372;
},
{
layerId = "668C2366-11AD-425E-A5E0-D912FEE9BD2F";
shapes = (
{
closed = 1;
nodes = (
(26,499,l),
(96,499,l),
(96,540,ls),
(96,675,o),
(171,726,o),
(303,726,cs),
(322,726,o),
(389,710,o),
(418,694,c),
(373,566,l),
(351,578,o),
(338,584,o),
(315,584,cs),
(298,584,o),
(278,568,o),
(278,540,cs),
(278,499,l),
(377,499,l),
(377,358,l),
(277,358,l),
(277,0,l),
(94,0,l),
(94,358,l),
(26,358,l)
);
}
);
width = 402;
},
{
layerId = "F93FC949-FDE5-438A-B007-EFA0C245CD82";
shapes = (
{
closed = 1;
nodes = (
(39,499,l),
(124,499,l),
(124,527,ls),
(124,643,o),
(169,710,o),
(288,710,cs),
(317,710,o),
(352,701,o),
(381,688,c),
(360,622,l),
(342,631,o),
(312,639,o),
(290,639,cs),
(234,639,o),
(204,605,o),
(204,528,cs),
(204,499,l),
(338,499,l),
(338,428,l),
(204,428,l),
(204,0,l),
(124,0,l),
(124,428,l),
(39,428,l)
);
}
);
width = 377;
},
{
layerId = "D7C75E23-0F42-43B3-B077-EDD5C5AF94E1";
shapes = (
{
closed = 1;
nodes = (
(42,499,l),
(130,499,l),
(130,524,ls),
(130,637,o),
(169,707,o),
(285,707,cs),
(316,707,o),
(345,699,o),
(373,687,c),
(357,633,l),
(340,641,o),
(307,650,o),
(285,650,cs),
(221,650,o),
(189,612,o),
(189,526,cs),
(189,499,l),
(330,499,l),
(330,442,l),
(189,442,l),
(189,0,l),
(130,0,l),
(130,442,l),
(42,442,l)
);
}
);
width = 372;
}
);
rightKerningGroup = _f;
unicode = 102;
},
{
glyphname = g;
layers = (
{
layerId = "668C2366-11AD-425E-A5E0-D912FEE9BD2F";
shapes = (
{
closed = 1;
nodes = (
(108,-44,l),
(169,-70,o),
(222,-83,o),
(272,-83,cs),
(345,-83,o),
(375,-54,o),
(375,9,cs),
(375,36,l),
(347,12,o),
(306,3,o),
(250,3,cs),
(112,3,o),
(31,97,o),
(31,237,cs),
(31,448,o),
(121,526,o),
(331,526,cs),
(383,526,o),
(444,512,o),
(555,486,c),
(555,324,o),
(554,163,o),
(554,1,cs),
(554,-150,o),
(449,-234,o),
(268,-234,cs),
(200,-234,o),
(118,-214,o),
(59,-185,c)
);
},
{
closed = 1;
nodes = (
(375,365,l),
(356,373,o),
(338,375,o),
(310,375,cs),
(244,375,o),
(210,337,o),
(210,250,cs),
(210,183,o),
(236,143,o),
(281,132,cs),
(288,130,o),
(295,129,o),
(303,129,c),
(336,129,o),
(354,133,o),
(375,158,c)
);
}
);
width = 603;
},
{
layerId = "F93FC949-FDE5-438A-B007-EFA0C245CD82";
shapes = (
{
closed = 1;
nodes = (
(107,-82,l),
(162,-111,o),
(221,-127,o),
(275,-127,cs),
(368,-127,o),
(414,-87,o),
(414,-12,cs),
(414,24,l),
(375,8,o),
(314,-5,o),
(281,-5,cs),
(130,-5,o),
(54,87,o),
(54,236,cs),
(54,429,o),
(148,509,o),
(300,509,cs),
(376,509,o),
(423,496,o),
(493,471,c),
(493,327,o),
(494,183,o),
(494,39,cs),
(494,-104,o),
(465,-201,o),
(274,-201,cs),
(214,-201,o),
(147,-183,o),
(81,-152,c)
);
},
{
closed = 1;
nodes = (
(414,421,l),
(389,428,o),
(345,437,o),
(304,437,cs),
(180,437,o),
(137,367,o),
(137,237,cs),
(137,129,o),
(184,66,o),
(281,64,c),
(291,63,o),
(302,63,o),
(313,65,c),
(347,67,o),
(384,79,o),
(414,98,c)
);
}
);
width = 571;
},
{
layerId = "D7C75E23-0F42-43B3-B077-EDD5C5AF94E1";
shapes = (
{
closed = 1;
nodes = (
(107,-89,l),
(161,-119,o),
(221,-136,o),
(275,-136,cs),
(373,-136,o),
(422,-94,o),
(422,-16,cs),
(422,22,l),
(380,7,o),
(315,-6,o),
(287,-6,cs),
(134,-6,o),
(58,85,o),
(58,236,cs),
(58,425,o),
(153,505,o),
(294,505,cs),
(375,505,o),
(419,493,o),
(481,468,c),
(481,327,o),
(482,187,o),
(482,46,cs),
(482,-95,o),
(468,-194,o),
(275,-194,cs),
(217,-194,o),
(153,-177,o),
(85,-145,c)
);
},
{
closed = 1;
nodes = (
(422,432,l),
(395,439,o),
(346,449,o),
(303,449,cs),
(167,449,o),
(122,373,o),
(122,234,cs),
(122,118,o),
(173,50,o),
(281,50,cs),
(292,50,o),
(303,50,o),
(315,52,c),
(349,55,o),
(390,68,o),
(422,86,c)
);
}
);
width = 565;
}
);
unicode = 103;
},
{
glyphname = h;
layers = (
{
layerId = "2C489AF4-CB50-400B-84D0-36176F61FB51";
name = "#instance";
shapes = (
{
closed = 1;
nodes = (
(500,0,l),
(421,0,l),
(421,286,ls),
(421,380,o),
(383,437,o),
(295,437,cs),
(251,437,o),
(204,424,o),
(158,399,c),
(158,266,o),
(159,133,o),
(159,0,c),
(78,0,l),
(78,718,l),
(158,718,l),
(158,469,l),
(203,493,o),
(260,509,o),
(308,509,cs),
(434,509,o),
(500,440,o),
(500,300,cs)
);
}
);
width = 579;
},
{
layerId = "668C2366-11AD-425E-A5E0-D912FEE9BD2F";
shapes = (
{
closed = 1;
nodes = (
(567,0,l),
(384,0,l),
(384,242,ls),
(384,337,o),
(386,372,o),
(302,372,cs),
(278,372,o),
(247,362,o),
(244,355,c),
(243,237,o),
(242,118,o),
(241,0,c),
(60,0,l),
(60,700,l),
(244,700,l),
(244,505,l),
(290,519,o),
(318,525,o),
(368,525,cs),
(490,525,o),
(567,468,o),
(567,348,c)
);
}
);
width = 627;
},
{
layerId = "F93FC949-FDE5-438A-B007-EFA0C245CD82";
shapes = (
{
closed = 1;
nodes = (
(500,0,l),
(421,0,l),
(421,286,ls),
(421,380,o),
(383,437,o),
(295,437,cs),
(251,437,o),
(204,424,o),
(158,399,c),
(158,266,o),
(159,133,o),
(159,0,c),
(78,0,l),
(78,718,l),
(158,718,l),
(158,469,l),
(203,493,o),
(260,509,o),
(308,509,cs),
(434,509,o),
(500,440,o),
(500,300,cs)
);
}
);
width = 579;
},
{
layerId = "D7C75E23-0F42-43B3-B077-EDD5C5AF94E1";
shapes = (
{
closed = 1;
nodes = (
(487,0,l),
(428,0,l),
(428,295,ls),
(428,388,o),
(382,450,o),
(294,450,cs),
(246,450,o),
(195,436,o),
(141,408,c),
(141,272,o),
(142,136,o),
(142,0,c),
(82,0,l),
(82,722,l),
(141,722,l),
(141,462,l),
(186,488,o),
(248,506,o),
(296,506,cs),
(423,506,o),
(487,434,o),
(487,290,c)
);
}
);
width = 569;
}
);
unicode = 104;
},
{
glyphname = i;
layers = (
{
layerId = "2C489AF4-CB50-400B-84D0-36176F61FB51";
name = "#instance";
shapes = (
{
closed = 1;
nodes = (
(150,657,l),
(150,589,l),
(82,589,l),
(82,657,l)
);
},
{
closed = 1;
nodes = (
(146,499,l),
(146,0,l),
(87,0,l),
(87,499,l)
);
}
);
width = 232;
},
{
layerId = "668C2366-11AD-425E-A5E0-D912FEE9BD2F";
shapes = (
{
closed = 1;
nodes = (
(246,757,l),
(246,584,l),
(60,584,l),
(60,757,l)
);
},
{
closed = 1;
nodes = (
(245,499,l),
(246,0,l),
(63,0,l),
(63,499,l)
);
}
);
width = 306;
},
{
layerId = "F93FC949-FDE5-438A-B007-EFA0C245CD82";
shapes = (
{
closed = 1;
nodes = (
(166,674,l),
(166,588,l),
(78,588,l),
(78,674,l)
);
},
{
closed = 1;
nodes = (
(163,499,l),
(163,0,l),
(83,0,l),
(83,499,l)
);
}
);
width = 244;
},
{
layerId = "D7C75E23-0F42-43B3-B077-EDD5C5AF94E1";
shapes = (
{
closed = 1;
nodes = (
(150,657,l),
(150,589,l),
(82,589,l),
(82,657,l)
);
},
{
closed = 1;
nodes = (
(146,499,l),
(146,0,l),
(87,0,l),
(87,499,l)
);
}
);
width = 232;
}
);
unicode = 105;
},
{
glyphname = dotlessi;
layers = (
{
layerId = "668C2366-11AD-425E-A5E0-D912FEE9BD2F";
shapes = (
{
closed = 1;
nodes = (
(242,499,l),
(244,0,l),
(60,0,l),
(60,499,l)
);
}
);
width = 304;
},
{
layerId = "F93FC949-FDE5-438A-B007-EFA0C245CD82";
shapes = (
{
closed = 1;
nodes = (
(159,499,l),
(158,0,l),
(78,0,l),
(78,499,l)
);
}
);
width = 237;
},
{
layerId = "D7C75E23-0F42-43B3-B077-EDD5C5AF94E1";
shapes = (
{
closed = 1;
nodes = (
(142,499,l),
(141,0,l),
(82,0,l),
(82,499,l)
);
}
);
width = 224;
}
);
unicode = 305;
},
{
glyphname = j;
layers = (
{
layerId = "2C489AF4-CB50-400B-84D0-36176F61FB51";
name = "#instance";
shapes = (
{
closed = 1;
nodes = (
(180,655,l),
(180,587,l),
(112,587,l),
(112,655,l)
);
},
{
closed = 1;
nodes = (
(94,-123,o),
(116,-83,o),
(116,-18,cs),
(116,498,l),
(176,498,l),
(176,343,o),
(175,190,o),
(175,35,cs),
(175,-95,o),
(154,-180,o),
(60,-180,cs),
(42,-180,o),
(21,-176,o),
(-2,-168,c),
(18,-115,l),
(30,-120,o),
(43,-123,o),
(55,-123,c),
(43,-123,o),
(49,-123,o),
(55,-123,cs)
);
}
);
width = 262;
},
{
layerId = "668C2366-11AD-425E-A5E0-D912FEE9BD2F";
shapes = (
{
closed = 1;
nodes = (
(260,767,l),
(260,594,l),
(74,594,l),
(74,767,l)
);
},
{
closed = 1;
nodes = (
(75,36,o),
(75,64,o),
(75,92,cs),
(75,509,l),
(257,509,l),
(258,340,o),
(259,170,o),
(260,1,c),
(260,-117,o),
(184,-193,o),
(63,-193,cs),
(34,-193,o),
(4,-188,o),
(-28,-179,c),
(3,-30,l),
(13,-33,o),
(23,-35,o),
(32,-35,cs),
(57,-35,o),
(75,-23,o),
(75,8,cs)
);
}
);
width = 320;
},
{
layerId = "F93FC949-FDE5-438A-B007-EFA0C245CD82";
shapes = (
{
closed = 1;
nodes = (
(193,674,l),
(193,588,l),
(106,588,l),
(106,674,l)
);
},
{
closed = 1;
nodes = (
(91,-97,o),
(109,-59,o),
(109,0,cs),
(109,500,l),
(190,500,l),
(190,343,o),
(189,187,o),
(189,29,cs),
(189,-99,o),
(159,-182,o),
(61,-182,cs),
(41,-182,o),
(18,-178,o),
(-6,-170,c),
(16,-101,l),
(27,-106,o),
(40,-108,o),
(51,-108,c),
(45,-108,o),
(53,-106,o),
(58,-101,c)
);
}
);
width = 272;
},
{
layerId = "D7C75E23-0F42-43B3-B077-EDD5C5AF94E1";
shapes = (
{
closed = 1;
nodes = (
(180,655,l),
(180,587,l),
(112,587,l),
(112,655,l)
);
},
{
closed = 1;
nodes = (
(94,-123,o),
(116,-83,o),
(116,-18,cs),
(116,498,l),
(176,498,l),
(176,343,o),
(175,190,o),
(175,35,cs),
(175,-95,o),
(154,-180,o),
(60,-180,cs),
(42,-180,o),
(21,-176,o),
(-2,-168,c),
(18,-115,l),
(30,-120,o),
(43,-123,o),
(55,-123,c),
(43,-123,o),
(49,-123,o),
(55,-123,cs)
);
}
);
width = 262;
}
);
unicode = 106;
},
{
glyphname = k;
layers = (
{
layerId = "2C489AF4-CB50-400B-84D0-36176F61FB51";
name = "#instance";
shapes = (
{
closed = 1;
nodes = (
(142,225,l),
(142,0,l),
(82,0,l),
(82,688,l),
(141,688,l),
(141,283,l),
(364,498,l),
(451,498,l),
(197,255,l),
(468,0,l),
(387,0,l)
);
}
);
width = 498;
},
{
layerId = "668C2366-11AD-425E-A5E0-D912FEE9BD2F";
shapes = (
{
closed = 1;
nodes = (
(242,217,l),
(241,0,l),
(60,0,l),
(60,700,l),
(244,700,l),
(242,318,l),
(354,509,l),
(585,509,l),
(405,284,l),
(597,0,l),
(368,0,l)
);
}
);
width = 621;
},
{
layerId = "F93FC949-FDE5-438A-B007-EFA0C245CD82";
shapes = (
{
closed = 1;
nodes = (
(159,224,l),
(159,0,l),
(78,0,l),
(78,690,l),
(158,690,l),
(158,289,l),
(362,500,l),
(473,500,l),
(232,260,l),
(490,0,l),
(384,0,l)
);
}
);
width = 519;
},
{
layerId = "D7C75E23-0F42-43B3-B077-EDD5C5AF94E1";
shapes = (
{
closed = 1;
nodes = (
(142,225,l),
(142,0,l),
(82,0,l),
(82,688,l),
(141,688,l),
(141,283,l),
(364,498,l),
(451,498,l),
(197,255,l),
(468,0,l),
(387,0,l)
);
}
);
width = 498;
}
);
unicode = 107;
},
{
glyphname = l;
layers = (
{
layerId = "2C489AF4-CB50-400B-84D0-36176F61FB51";
name = "#instance";
shapes = (
{
closed = 1;
nodes = (
(82,688,l),
(142,688,l),
(142,0,l),
(82,0,l)
);
}
);
width = 224;
},
{
layerId = "668C2366-11AD-425E-A5E0-D912FEE9BD2F";
shapes = (
{
closed = 1;
nodes = (
(60,700,l),
(241,700,l),
(241,0,l),
(60,0,l)
);
}
);
width = 301;
},
{
layerId = "F93FC949-FDE5-438A-B007-EFA0C245CD82";
shapes = (
{
closed = 1;
nodes = (
(78,690,l),
(159,690,l),
(159,0,l),
(78,0,l)
);
}
);
width = 237;
},
{
layerId = "D7C75E23-0F42-43B3-B077-EDD5C5AF94E1";
shapes = (
{
closed = 1;
nodes = (
(82,688,l),
(142,688,l),
(142,0,l),
(82,0,l)
);
}
);
width = 224;
}
);
unicode = 108;
},
{
glyphname = m;
layers = (
{
layerId = "2C489AF4-CB50-400B-84D0-36176F61FB51";
name = "#instance";
shapes = (
{
closed = 1;
nodes = (
(808,0,l),
(728,0,l),
(728,324,ls),
(728,401,o),
(684,439,o),
(598,439,cs),
(556,439,o),
(517,427,o),
(482,406,c),
(490,385,o),
(494,358,o),
(494,327,c),
(494,0,l),
(414,0,l),
(414,324,ls),
(414,401,o),
(370,439,o),
(284,439,cs),
(242,439,o),
(188,426,o),
(159,410,c),
(159,0,l),
(78,0,l),
(78,457,l),
(142,491,o),
(215,509,o),
(295,509,cs),
(360,509,o),
(409,496,o),
(441,469,c),
(491,495,o),
(548,509,o),
(609,509,cs),
(747,509,o),
(808,450,o),
(808,327,cs)
);
}
);
width = 887;
},
{
layerId = "668C2366-11AD-425E-A5E0-D912FEE9BD2F";
shapes = (
{
closed = 1;
nodes = (
(870,0,l),
(688,0,l),
(688,304,ls),
(688,353,o),
(661,377,o),
(606,377,cs),
(585,377,o),
(569,373,o),
(559,365,c),
(558,359,o),
(557,353,o),
(556,347,c),
(556,0,l),
(374,0,l),
(374,304,ls),
(374,353,o),
(347,377,o),
(292,377,cs),
(268,377,o),
(249,367,o),
(242,363,c),
(242,0,l),
(60,0,l),
(60,466,l),
(104,489,o),
(261,525,o),
(344,525,cs),
(413,525,o),
(463,514,o),
(494,491,c),
(547,512,o),
(609,525,o),
(658,525,cs),
(805,525,o),
(870,477,o),
(870,347,c)
);
}
);
width = 930;
},
{
layerId = "F93FC949-FDE5-438A-B007-EFA0C245CD82";
shapes = (
{
closed = 1;
nodes = (
(808,0,l),
(728,0,l),
(728,324,ls),
(728,401,o),
(684,439,o),
(598,439,cs),
(556,439,o),
(517,427,o),
(482,406,c),
(490,385,o),
(494,358,o),
(494,327,cs),
(494,0,l),
(414,0,l),
(414,324,ls),
(414,401,o),
(370,439,o),
(284,439,cs),
(242,439,o),
(188,426,o),
(159,410,c),
(159,0,l),
(78,0,l),
(78,457,l),
(142,491,o),
(215,509,o),
(295,509,cs),
(360,509,o),
(409,496,o),
(441,469,c),
(491,495,o),
(548,509,o),
(609,509,cs),
(747,509,o),
(808,450,o),
(808,327,cs)
);
}
);
width = 887;
},
{
layerId = "D7C75E23-0F42-43B3-B077-EDD5C5AF94E1";
shapes = (
{
closed = 1;
nodes = (
(795,0,l),
(736,0,l),
(736,328,ls),
(736,410,o),
(689,451,o),
(596,451,cs),
(550,451,o),
(507,438,o),
(466,414,c),
(476,390,o),
(481,359,o),
(481,323,cs),
(481,0,l),
(422,0,l),
(422,328,ls),
(422,410,o),
(375,451,o),
(282,451,cs),
(237,451,o),
(176,438,o),
(142,419,c),
(142,0,l),
(82,0,l),
(82,455,l),
(149,491,o),
(206,506,o),
(285,506,cs),
(349,506,o),
(398,492,o),
(430,464,c),
(480,492,o),
(536,506,o),
(599,506,cs),
(735,506,o),
(795,445,o),
(795,323,c)
);
}
);
width = 878;
}
);
leftKerningGroup = _m;
unicode = 109;
},
{
glyphname = n;
layers = (
{
layerId = "2C489AF4-CB50-400B-84D0-36176F61FB51";
name = "#instance";
shapes = (
{
closed = 1;
nodes = (
(422,506,o),
(480,444,o),
(480,323,cs),
(480,0,l),
(421,0,l),
(421,328,ls),
(421,410,o),
(373,451,o),
(279,451,cs),
(238,451,o),
(192,438,o),
(142,414,c),
(142,0,l),
(82,0,l),
(82,451,l),
(146,487,o),
(217,506,o),
(290,506,cs)
);
}
);
width = 562;
},
{
layerId = "668C2366-11AD-425E-A5E0-D912FEE9BD2F";
shapes = (
{
closed = 1;
nodes = (
(490,525,o),
(566,478,o),
(566,347,cs),
(566,0,l),
(384,0,l),
(384,298,ls),
(384,346,o),
(357,371,o),
(316,371,cs),
(298,371,o),
(250,361,o),
(242,356,c),
(242,0,l),
(60,0,l),
(60,481,l),
(111,502,o),
(218,525,o),
(301,525,cs)
);
}
);
width = 626;
},
{
layerId = "F93FC949-FDE5-438A-B007-EFA0C245CD82";
shapes = (
{
closed = 1;
nodes = (
(433,509,o),
(494,450,o),
(494,327,cs),
(494,0,l),
(415,0,l),
(415,323,ls),
(415,399,o),
(370,438,o),
(285,438,cs),
(248,438,o),
(202,425,o),
(159,404,c),
(159,0,l),
(78,0,l),
(78,456,l),
(140,490,o),
(217,509,o),
(292,509,cs)
);
}
);
width = 573;
},
{
layerId = "D7C75E23-0F42-43B3-B077-EDD5C5AF94E1";
shapes = (
{
closed = 1;
nodes = (
(422,506,o),
(480,444,o),
(480,323,cs),
(480,0,l),
(421,0,l),
(421,328,ls),
(421,410,o),
(373,451,o),
(279,451,cs),
(238,451,o),
(192,438,o),
(142,414,c),
(142,0,l),
(82,0,l),
(82,451,l),
(146,487,o),
(217,506,o),
(290,506,cs)
);
}
);
width = 562;
}
);
leftKerningGroup = _m;
unicode = 110;
},
{
glyphname = o;
layers = (
{
layerId = "668C2366-11AD-425E-A5E0-D912FEE9BD2F";
shapes = (
{
closed = 1;
nodes = (
(31,446,o),
(111,530,o),
(299,530,cs),
(483,530,o),
(570,446,o),
(570,258,cs),
(570,78,o),
(476,-15,o),
(298,-15,cs),
(122,-15,o),
(31,73,o),
(31,258,cs)
);
},
{
closed = 1;
nodes = (
(389,353,o),
(364,389,o),
(298,389,cs),
(232,389,o),
(210,354,o),
(210,258,cs),
(210,169,o),
(236,127,o),
(298,127,cs),
(358,127,o),
(389,174,o),
(389,258,cs)
);
}
);
width = 599;
},
{
layerId = "F93FC949-FDE5-438A-B007-EFA0C245CD82";
shapes = (
{
closed = 1;
nodes = (
(54,420,o),
(133,510,o),
(284,510,cs),
(441,510,o),
(518,414,o),
(518,249,cs),
(518,81,o),
(433,-15,o),
(286,-15,cs),
(131,-15,o),
(54,77,o),
(54,249,cs)
);
},
{
closed = 1;
nodes = (
(438,373,o),
(392,438,o),
(285,438,cs),
(181,438,o),
(133,375,o),
(133,249,cs),
(133,120,o),
(182,56,o),
(285,56,cs),
(386,56,o),
(438,121,o),
(438,249,cs)
);
}
);
width = 572;
},
{
layerId = "D7C75E23-0F42-43B3-B077-EDD5C5AF94E1";
shapes = (
{
closed = 1;
nodes = (
(58,415,o),
(137,506,o),
(281,506,cs),
(432,506,o),
(508,407,o),
(508,247,cs),
(508,82,o),
(424,-15,o),
(284,-15,cs),
(133,-15,o),
(58,78,o),
(58,247,cs)
);
},
{
closed = 1;
nodes = (
(448,377,o),
(398,448,o),
(282,448,cs),
(171,448,o),
(117,379,o),
(117,247,cs),
(117,110,o),
(171,42,o),
(282,42,cs),
(392,42,o),
(448,110,o),
(448,247,cs)
);
}
);
width = 566;
}
);
leftKerningGroup = _c;
rightKerningGroup = _b;
unicode = 111;
},
{
glyphname = oslash;
layers = (
{
layerId = "668C2366-11AD-425E-A5E0-D912FEE9BD2F";
shapes = (
{
closed = 1;
nodes = (
(570,80,o),
(477,-15,o),
(298,-15,cs),
(259,-15,o),
(226,-11,o),
(197,-3,c),
(149,-85,l),
(74,-43,l),
(119,34,l),
(60,79,o),
(31,154,o),
(31,258,cs),
(31,447,o),
(112,530,o),
(299,530,cs),
(335,530,o),
(369,526,o),
(400,519,c),
(453,610,l),
(528,568,l),
(479,484,l),
(540,441,o),
(570,367,o),
(570,258,cs)
);
},
{
closed = 1;
nodes = (
(323,387,l),
(314,388,o),
(305,389,o),
(298,389,cs),
(239,389,o),
(214,361,o),
(211,286,c),
(211,277,o),
(210,268,o),
(210,258,cs),
(210,238,o),
(211,218,o),
(215,200,c)
);
},
{
closed = 1;
nodes = (
(389,280,o),
(387,300,o),
(384,319,c),
(274,130,l),
(281,128,o),
(289,127,o),
(298,127,cs),
(357,127,o),
(389,174,o),
(389,258,cs)
);
}
);
width = 599;
},
{
layerId = "F93FC949-FDE5-438A-B007-EFA0C245CD82";
shapes = (
{
closed = 1;
nodes = (
(518,82,o),
(433,-15,o),
(286,-15,cs),
(247,-15,o),
(213,-9,o),
(185,3,c),
(137,-78,l),
(78,-44,l),
(126,38,l),
(78,83,o),
(54,153,o),
(54,249,cs),
(54,420,o),
(133,510,o),
(284,510,cs),
(323,510,o),
(357,504,o),
(388,492,c),
(438,578,l),
(497,544,l),
(446,456,l),
(494,412,o),
(518,343,o),
(518,249,cs)
);
},
{
closed = 1;
nodes = (
(351,427,l),
(332,434,o),
(310,438,o),
(285,438,cs),
(182,438,o),
(133,376,o),
(133,254,cs),
(133,233,o),
(134,215,o),
(137,197,cs),
(142,162,o),
(152,134,o),
(168,112,c)
);
},
{
closed = 1;
nodes = (
(438,308,o),
(427,353,o),
(405,384,c),
(222,68,l),
(239,60,o),
(260,56,o),
(285,56,cs),
(386,56,o),
(438,121,o),
(438,249,cs)
);
}
);
width = 572;
},
{
layerId = "D7C75E23-0F42-43B3-B077-EDD5C5AF94E1";
shapes = (
{
closed = 1;
nodes = (
(508,82,o),
(424,-15,o),
(284,-15,cs),
(244,-15,o),
(210,-8,o),
(182,4,c),
(135,-77,l),
(79,-44,l),
(127,39,l),
(81,84,o),
(58,153,o),
(58,247,cs),
(58,415,o),
(137,506,o),
(281,506,cs),
(320,506,o),
(355,499,o),
(385,486,c),
(435,572,l),
(491,539,l),
(439,450,l),
(485,406,o),
(508,338,o),
(508,247,cs)
);
},
{
closed = 1;
nodes = (
(356,435,l),
(336,443,o),
(311,448,o),
(282,448,cs),
(171,448,o),
(117,379,o),
(117,247,cs),
(117,224,o),
(119,204,o),
(122,185,cs),
(128,147,o),
(140,117,o),
(159,94,c)
);
},
{
closed = 1;
nodes = (
(448,313,o),
(435,363,o),
(409,397,c),
(211,55,l),
(230,46,o),
(254,42,o),
(282,42,cs),
(392,42,o),
(448,110,o),
(448,247,cs)
);
}
);
width = 566;
}
);
unicode = 248;
},
{
glyphname = oe;
layers = (
{
layerId = "668C2366-11AD-425E-A5E0-D912FEE9BD2F";
shapes = (
{
closed = 1;
nodes = (
(575,205,l),
(574,195,o),
(576,186,o),
(578,178,c),
(589,143,o),
(618,125,o),
(660,125,cs),
(708,125,o),
(760,136,o),
(820,159,c),
(869,30,l),
(806,3,o),
(729,-15,o),
(660,-15,cs),
(592,-15,o),
(530,3,o),
(483,38,c),
(439,3,o),
(375,-15,o),
(298,-15,cs),
(118,-15,o),
(31,77,o),
(31,258,cs),
(31,449,o),
(113,530,o),
(299,530,cs),
(380,530,o),
(442,513,o),
(486,480,c),
(534,515,o),
(588,530,o),
(655,530,cs),
(818,530,o),
(898,424,o),
(896,205,c)
);
},
{
closed = 1;
nodes = (
(388,244,l),
(388,254,o),
(387,266,o),
(389,272,c),
(389,272,o),
(389,272,o),
(389,272,c),
(386,358,o),
(358,389,o),
(298,389,cs),
(231,389,o),
(210,356,o),
(210,258,cs),
(210,167,o),
(236,127,o),
(298,127,cs),
(351,127,o),
(383,164,o),
(388,235,c)
);
},
{
closed = 1;
nodes = (
(716,293,l),
(718,364,o),
(692,395,o),
(646,395,cs),
(604,395,o),
(568,355,o),
(572,293,c)
);
}
);
width = 926;
},
{
layerId = "F93FC949-FDE5-438A-B007-EFA0C245CD82";
shapes = (
{
closed = 1;
nodes = (
(519,235,l),
(519,226,o),
(519,218,o),
(519,209,c),
(527,112,o),
(579,58,o),
(663,58,cs),
(713,58,o),
(773,74,o),
(829,103,c),
(856,34,l),
(789,1,o),
(722,-15,o),
(663,-15,cs),
(579,-15,o),
(515,19,o),
(477,86,c),
(439,19,o),
(373,-15,o),
(286,-15,cs),
(131,-15,o),
(54,78,o),
(54,249,cs),
(54,421,o),
(133,510,o),
(284,510,cs),
(374,510,o),
(439,478,o),
(477,414,c),
(512,476,o),
(575,510,o),
(659,510,cs),
(809,510,o),
(881,405,o),
(879,235,c)
);
},
{
closed = 1;
nodes = (
(437,222,l),
(436,230,o),
(436,249,o),
(437,269,c),
(437,273,o),
(437,276,o),
(437,279,c),
(430,386,o),
(381,438,o),
(285,438,cs),
(181,438,o),
(133,375,o),
(133,249,cs),
(133,120,o),
(182,56,o),
(285,56,cs),
(379,56,o),
(430,111,o),
(437,220,c)
);
},
{
closed = 1;
nodes = (
(795,301,l),
(789,394,o),
(744,439,o),
(659,439,cs),
(571,439,o),
(530,400,o),
(520,301,c)
);
}
);
width = 932;
},
{
layerId = "D7C75E23-0F42-43B3-B077-EDD5C5AF94E1";
shapes = (
{
closed = 1;
nodes = (
(508,241,l),
(508,232,o),
(507,224,o),
(507,215,c),
(515,106,o),
(571,45,o),
(663,45,cs),
(714,45,o),
(776,61,o),
(831,92,c),
(853,35,l),
(785,1,o),
(721,-15,o),
(663,-15,cs),
(576,-15,o),
(512,22,o),
(476,96,c),
(439,22,o),
(372,-15,o),
(284,-15,cs),
(133,-15,o),
(58,78,o),
(58,247,cs),
(58,415,o),
(137,506,o),
(281,506,cs),
(373,506,o),
(438,471,o),
(475,401,c),
(508,468,o),
(572,506,o),
(660,506,cs),
(807,506,o),
(877,401,o),
(875,241,c)
);
},
{
closed = 1;
nodes = (
(446,225,o),
(446,245,o),
(446,268,cs),
(446,273,o),
(446,277,o),
(447,280,c),
(439,391,o),
(386,448,o),
(282,448,cs),
(171,448,o),
(117,379,o),
(117,247,cs),
(117,110,o),
(171,42,o),
(282,42,cs),
(384,42,o),
(439,100,o),
(447,217,c)
);
},
{
closed = 1;
nodes = (
(811,302,l),
(803,400,o),
(754,448,o),
(661,448,cs),
(564,448,o),
(522,409,o),
(510,302,c)
);
}
);
width = 933;
}
);
leftKerningGroup = _c;
unicode = 339;
},
{
glyphname = p;
layers = (
{
layerId = "668C2366-11AD-425E-A5E0-D912FEE9BD2F";
shapes = (
{
closed = 1;
nodes = (
(584,94,o),
(498,-15,o),
(366,-15,cs),
(317,-15,o),
(277,-8,o),
(238,8,c),
(238,-165,l),
(60,-165,l),
(60,473,l),
(145,509,o),
(223,530,o),
(318,530,c),
(497,530,o),
(584,450,o),
(584,253,cs)
);
},
{
closed = 1;
nodes = (
(404,336,o),
(379,373,o),
(310,373,cs),
(276,373,o),
(258,372,o),
(238,364,c),
(238,143,l),
(253,133,o),
(275,128,o),
(303,128,cs),
(375,128,o),
(404,157,o),
(404,260,cs)
);
}
);
width = 615;
},
{
layerId = "F93FC949-FDE5-438A-B007-EFA0C245CD82";
shapes = (
{
closed = 1;
nodes = (
(519,82,o),
(431,-14,o),
(283,-14,cs),
(247,-14,o),
(195,-2,o),
(158,15,c),
(158,-213,l),
(78,-213,l),
(78,466,l),
(135,489,o),
(210,508,o),
(285,510,c),
(428,510,o),
(519,420,o),
(519,238,cs)
);
},
{
closed = 1;
nodes = (
(436,366,o),
(393,437,o),
(283,437,cs),
(228,437,o),
(198,431,o),
(158,414,c),
(158,91,l),
(196,68,o),
(237,57,o),
(278,57,cs),
(378,57,o),
(436,125,o),
(436,238,cs)
);
}
);
width = 573;
},
{
layerId = "D7C75E23-0F42-43B3-B077-EDD5C5AF94E1";
shapes = (
{
closed = 1;
nodes = (
(506,80,o),
(418,-14,o),
(266,-14,cs),
(233,-14,o),
(179,-1,o),
(142,16,c),
(142,-223,l),
(82,-223,l),
(82,465,l),
(133,485,o),
(207,504,o),
(278,506,c),
(414,506,o),
(506,414,o),
(506,235,cs)
);
},
{
closed = 1;
nodes = (
(442,372,o),
(396,450,o),
(278,450,cs),
(218,450,o),
(186,443,o),
(142,424,c),
(142,81,l),
(185,55,o),
(229,43,o),
(273,43,cs),
(378,43,o),
(442,118,o),
(442,234,cs)
);
}
);
width = 564;
}
);
rightKerningGroup = _b;
unicode = 112;
},
{
glyphname = thorn;
layers = (
{
layerId = "668C2366-11AD-425E-A5E0-D912FEE9BD2F";
shapes = (
{
closed = 1;
nodes = (
(576,100,o),
(505,-25,o),
(358,-25,cs),
(341,-25,o),
(325,-24,o),
(311,-22,cs),
(284,-18,o),
(260,-11,o),
(241,-1,c),
(241,-179,l),
(60,-179,l),
(60,700,l),
(241,700,l),
(241,506,l),
(263,507,o),
(292,505,o),
(319,505,cs),
(493,505,o),
(576,417,o),
(576,233,cs)
);
},
{
closed = 1;
nodes = (
(396,319,o),
(372,355,o),
(311,355,cs),
(272,355,o),
(248,351,o),
(241,342,c),
(241,133,l),
(257,123,o),
(278,118,o),
(305,118,cs),
(369,118,o),
(396,150,o),
(396,240,cs)
);
}
);
width = 606;
},
{
layerId = "F93FC949-FDE5-438A-B007-EFA0C245CD82";
shapes = (
{
closed = 1;
nodes = (
(519,105,o),
(456,10,o),
(341,-9,cs),
(319,-13,o),
(298,-15,o),
(274,-15,c),
(245,-14,o),
(195,-2,o),
(159,14,c),
(159,-199,l),
(78,-199,l),
(78,690,l),
(159,690,l),
(159,481,l),
(197,499,o),
(240,508,o),
(285,508,cs),
(426,508,o),
(519,417,o),
(519,237,cs)
);
},
{
closed = 1;
nodes = (
(435,365,o),
(392,436,o),
(284,436,cs),
(239,436,o),
(197,421,o),
(159,392,c),
(159,91,l),
(197,67,o),
(237,56,o),
(278,56,cs),
(377,56,o),
(435,123,o),
(435,238,cs)
);
}
);
width = 572;
},
{
layerId = "D7C75E23-0F42-43B3-B077-EDD5C5AF94E1";
shapes = (
{
closed = 1;
nodes = (
(507,106,o),
(446,17,o),
(337,-6,cs),
(315,-11,o),
(292,-13,o),
(267,-13,cs),
(237,-13,o),
(182,0,o),
(142,17,c),
(142,-203,l),
(82,-203,l),
(82,688,l),
(142,688,l),
(142,476,l),
(184,497,o),
(230,508,o),
(278,508,cs),
(413,508,o),
(507,417,o),
(507,238,cs)
);
},
{
closed = 1;
nodes = (
(443,374,o),
(396,452,o),
(278,452,cs),
(232,452,o),
(187,435,o),
(142,402,c),
(142,82,l),
(185,56,o),
(229,44,o),
(273,44,cs),
(379,44,o),
(443,117,o),
(443,237,cs)
);
}
);
width = 565;
}
);
rightKerningGroup = _b;
unicode = 254;
},
{
glyphname = q;
layers = (
{
layerId = "668C2366-11AD-425E-A5E0-D912FEE9BD2F";
shapes = (
{
closed = 1;
nodes = (
(555,-185,l),
(377,-185,l),
(377,15,l),
(348,-7,o),
(311,-15,o),
(259,-15,cs),
(108,-15,o),
(31,78,o),
(31,246,c),
(30,439,o),
(122,525,o),
(309,525,cs),
(406,525,o),
(453,514,o),
(555,486,c)
);
},
{
closed = 1;
nodes = (
(339,128,o),
(361,133,o),
(377,143,c),
(377,365,l),
(350,374,o),
(320,372,o),
(308,372,cs),
(244,372,o),
(210,330,o),
(210,259,cs),
(210,169,o),
(249,128,o),
(312,128,cs)
);
}
);
width = 615;
},
{
layerId = "F93FC949-FDE5-438A-B007-EFA0C245CD82";
shapes = (
{
closed = 1;
nodes = (
(493,-215,l),
(415,-215,l),
(415,15,l),
(375,-3,o),
(324,-14,o),
(291,-14,cs),
(138,-14,o),
(54,79,o),
(54,238,c),
(53,420,o),
(138,509,o),
(306,509,cs),
(379,509,o),
(426,498,o),
(493,470,c)
);
},
{
closed = 1;
nodes = (
(336,57,o),
(375,68,o),
(415,91,c),
(415,421,l),
(377,432,o),
(338,437,o),
(302,437,cs),
(178,437,o),
(137,367,o),
(137,239,cs),
(137,125,o),
(192,57,o),
(295,57,cs)
);
}
);
width = 573;
},
{
layerId = "D7C75E23-0F42-43B3-B077-EDD5C5AF94E1";
shapes = (
{
closed = 1;
nodes = (
(481,-221,l),
(422,-221,l),
(422,15,l),
(380,-2,o),
(327,-14,o),
(297,-14,cs),
(144,-14,o),
(58,79,o),
(58,236,cs),
(58,416,o),
(141,506,o),
(305,506,cs),
(374,506,o),
(420,495,o),
(481,467,c)
);
},
{
closed = 1;
nodes = (
(335,43,o),
(378,55,o),
(422,81,c),
(422,432,l),
(382,444,o),
(341,450,o),
(301,450,cs),
(165,450,o),
(122,374,o),
(122,235,cs),
(122,116,o),
(180,43,o),
(291,43,cs)
);
}
);
width = 564;
}
);
leftKerningGroup = _c;
unicode = 113;
},
{
glyphname = r;
layers = (
{
layerId = "2C489AF4-CB50-400B-84D0-36176F61FB51";
name = "#instance";
shapes = (
{
closed = 1;
nodes = (
(277,500,o),
(313,493,o),
(343,480,c),
(323,427,l),
(301,437,o),
(272,443,o),
(238,443,cs),
(196,443,o),
(164,436,o),
(142,424,c),
(142,0,l),
(82,0,l),
(82,461,l),
(123,487,o),
(174,500,o),
(234,500,cs)
);
}
);
width = 369;
},
{
layerId = "668C2366-11AD-425E-A5E0-D912FEE9BD2F";
shapes = (
{
closed = 1;
nodes = (
(342,521,o),
(388,515,o),
(431,502,c),
(390,343,l),
(357,350,o),
(327,354,o),
(300,354,cs),
(285,354,o),
(266,353,o),
(242,350,c),
(242,0,l),
(60,0,l),
(60,469,l),
(123,501,o),
(208,521,o),
(293,521,cs)
);
}
);
width = 450;
},
{
layerId = "F93FC949-FDE5-438A-B007-EFA0C245CD82";
shapes = (
{
closed = 1;
nodes = (
(288,504,o),
(326,497,o),
(358,484,c),
(334,413,l),
(310,423,o),
(281,428,o),
(248,428,cs),
(211,428,o),
(181,422,o),
(159,412,c),
(159,0,l),
(78,0,l),
(78,462,l),
(123,489,o),
(180,504,o),
(244,504,cs)
);
}
);
width = 383;
},
{
layerId = "D7C75E23-0F42-43B3-B077-EDD5C5AF94E1";
shapes = (
{
closed = 1;
nodes = (
(277,500,o),
(313,493,o),
(343,480,c),
(323,427,l),
(301,437,o),
(272,443,o),
(238,443,cs),
(196,443,o),
(164,436,o),
(142,424,c),
(142,0,l),
(82,0,l),
(82,461,l),
(123,487,o),
(174,500,o),
(234,500,cs)
);
}
);
width = 369;
}
);
rightKerningGroup = _f;
unicode = 114;
},
{
glyphname = s;
layers = (
{
layerId = "668C2366-11AD-425E-A5E0-D912FEE9BD2F";
shapes = (
{
closed = 1;
nodes = (
(468,34,o),
(361,-15,o),
(216,-15,cs),
(155,-15,o),
(84,2,o),
(31,27,c),
(72,153,l),
(121,131,o),
(169,119,o),
(216,119,cs),
(252,119,o),
(269,126,o),
(269,149,cs),
(269,168,o),
(252,175,o),
(223,183,c),
(197,188,ls),
(115,204,o),
(46,250,o),
(46,344,cs),
(46,459,o),
(137,519,o),
(271,519,cs),
(332,519,o),
(402,502,o),
(457,478,c),
(415,350,l),
(381,366,o),
(345,377,o),
(308,383,cs),
(296,385,o),
(283,386,o),
(271,386,cs),
(256,386,o),
(245,380,o),
(239,370,cs),
(236,365,o),
(235,359,o),
(235,352,cs),
(235,324,o),
(254,318,o),
(304,309,c),
(386,294,o),
(468,249,o),
(468,153,cs)
);
}
);
width = 493;
},
{
layerId = "F93FC949-FDE5-438A-B007-EFA0C245CD82";
shapes = (
{
closed = 1;
nodes = (
(406,43,o),
(326,-15,o),
(216,-15,cs),
(164,-15,o),
(104,1,o),
(41,34,c),
(72,100,l),
(116,74,o),
(172,57,o),
(216,57,cs),
(279,57,o),
(325,85,o),
(325,132,cs),
(325,176,o),
(302,194,o),
(230,216,cs),
(193,227,ls),
(109,251,o),
(56,283,o),
(56,364,cs),
(56,454,o),
(133,509,o),
(234,509,cs),
(284,509,o),
(344,492,o),
(409,461,c),
(378,396,l),
(335,418,o),
(281,435,o),
(240,436,cs),
(212,436,o),
(187,430,o),
(169,419,cs),
(149,408,o),
(138,392,o),
(137,372,c),
(137,355,o),
(141,342,o),
(150,332,cs),
(168,309,o),
(190,301,o),
(251,287,c),
(342,257,o),
(406,229,o),
(406,140,cs)
);
}
);
width = 459;
},
{
layerId = "D7C75E23-0F42-43B3-B077-EDD5C5AF94E1";
shapes = (
{
closed = 1;
nodes = (
(393,45,o),
(319,-15,o),
(216,-15,cs),
(166,-15,o),
(108,1,o),
(43,35,c),
(72,89,l),
(115,63,o),
(173,45,o),
(216,45,cs),
(284,45,o),
(336,77,o),
(336,129,cs),
(336,178,o),
(312,198,o),
(231,223,cs),
(192,235,ls),
(108,260,o),
(58,289,o),
(58,368,cs),
(58,453,o),
(132,507,o),
(226,507,cs),
(274,507,o),
(332,490,o),
(399,457,c),
(370,405,l),
(326,428,o),
(268,446,o),
(226,446,cs),
(195,446,o),
(168,439,o),
(148,426,cs),
(127,412,o),
(117,394,o),
(117,372,cs),
(117,353,o),
(122,339,o),
(133,328,cs),
(154,306,o),
(177,298,o),
(240,283,c),
(333,250,o),
(393,225,o),
(393,137,cs)
);
}
);
width = 452;
}
);
unicode = 115;
},
{
glyphname = germandbls;
layers = (
{
layerId = "668C2366-11AD-425E-A5E0-D912FEE9BD2F";
shapes = (
{
closed = 1;
nodes = (
(634,87,o),
(537,-1,o),
(386,-1,cs),
(352,-1,o),
(319,3,o),
(287,10,c),
(310,170,l),
(326,166,o),
(340,164,o),
(352,164,cs),
(406,164,o),
(434,197,o),
(434,235,cs),
(434,276,o),
(407,308,o),
(348,308,cs),
(337,308,o),
(322,306,o),
(304,303,c),
(280,441,l),
(337,454,o),
(368,482,o),
(368,528,cs),
(368,571,o),
(344,591,o),
(306,591,cs),
(272,591,o),
(244,566,o),
(244,533,cs),
(243,355,o),
(243,178,o),
(242,0,c),
(60,0,l),
(63,533,ls),
(63,660,o),
(173,734,o),
(306,734,cs),
(435,734,o),
(542,666,o),
(542,539,cs),
(542,487,o),
(512,439,o),
(477,427,c),
(539,418,o),
(634,347,o),
(634,235,cs)
);
}
);
width = 641;
},
{
layerId = "F93FC949-FDE5-438A-B007-EFA0C245CD82";
shapes = (
{
closed = 1;
nodes = (
(548,83,o),
(467,-1,o),
(326,-1,cs),
(293,-1,o),
(261,2,o),
(229,10,c),
(243,82,l),
(267,75,o),
(291,72,o),
(314,72,cs),
(408,72,o),
(464,128,o),
(464,222,cs),
(464,299,o),
(410,343,o),
(323,343,cs),
(301,343,o),
(277,340,o),
(251,335,c),
(238,407,l),
(322,427,o),
(376,471,o),
(376,535,cs),
(376,585,o),
(329,625,o),
(274,625,cs),
(210,625,o),
(158,585,o),
(158,517,cs),
(158,345,o),
(159,172,o),
(159,0,c),
(78,0,l),
(79,517,ls),
(79,625,o),
(163,693,o),
(274,693,cs),
(380,693,o),
(456,625,o),
(456,536,cs),
(456,478,o),
(420,433,o),
(381,409,c),
(449,400,o),
(548,350,o),
(548,222,cs)
);
}
);
width = 600;
},
{
layerId = "D7C75E23-0F42-43B3-B077-EDD5C5AF94E1";
shapes = (
{
closed = 1;
nodes = (
(531,82,o),
(453,-1,o),
(314,-1,cs),
(281,-1,o),
(249,2,o),
(217,10,c),
(229,64,l),
(255,57,o),
(281,54,o),
(306,54,cs),
(408,54,o),
(470,114,o),
(470,219,cs),
(470,304,o),
(410,350,o),
(318,350,cs),
(294,350,o),
(268,347,o),
(240,341,c),
(229,400,l),
(319,421,o),
(378,469,o),
(378,536,cs),
(378,588,o),
(326,632,o),
(268,632,cs),
(197,632,o),
(141,589,o),
(141,514,cs),
(141,343,o),
(142,171,o),
(142,0,c),
(82,0,l),
(82,514,ls),
(82,618,o),
(161,685,o),
(268,685,cs),
(369,685,o),
(439,617,o),
(439,535,cs),
(439,476,o),
(401,432,o),
(362,405,c),
(431,396,o),
(531,350,o),
(531,219,cs)
);
}
);
width = 592;
}
);
unicode = 223;
},
{
glyphname = t;
layers = (
{
layerId = "2C489AF4-CB50-400B-84D0-36176F61FB51";
name = "#instance";
shapes = (
{
closed = 1;
nodes = (
(114,440,l),
(25,440,l),
(25,498,l),
(114,498,l),
(114,639,l),
(172,639,l),
(172,498,l),
(304,498,l),
(304,440,l),
(172,440,l),
(172,141,ls),
(172,81,o),
(191,54,o),
(236,54,cs),
(261,54,o),
(284,57,o),
(305,65,c),
(318,8,l),
(294,1,ls),
(280,-3,o),
(261,-5,o),
(237,-5,cs),
(172,-5,o),
(114,34,o),
(114,117,cs)
);
}
);
width = 355;
},
{
layerId = "668C2366-11AD-425E-A5E0-D912FEE9BD2F";
shapes = (
{
closed = 1;
nodes = (
(93,374,l),
(25,374,l),
(25,509,l),
(93,509,l),
(93,647,l),
(286,647,l),
(286,509,l),
(389,509,l),
(389,374,l),
(286,374,l),
(286,173,ls),
(286,149,o),
(300,135,o),
(324,135,cs),
(343,135,o),
(363,141,o),
(382,153,c),
(433,27,l),
(399,11,l),
(349,-10,o),
(322,-17,o),
(286,-17,cs),
(190,-17,o),
(93,36,o),
(93,155,c)
);
}
);
width = 435;
},
{
layerId = "F93FC949-FDE5-438A-B007-EFA0C245CD82";
shapes = (
{
closed = 1;
nodes = (
(111,429,l),
(25,429,l),
(25,500,l),
(111,500,l),
(111,640,l),
(191,640,l),
(191,500,l),
(318,500,l),
(318,429,l),
(191,429,l),
(191,146,ls),
(191,92,o),
(209,68,o),
(251,68,cs),
(275,68,o),
(297,71,o),
(318,80,c),
(337,11,l),
(312,3,l),
(292,-4,o),
(271,-7,o),
(245,-7,cs),
(175,-7,o),
(111,34,o),
(111,123,cs)
);
}
);
width = 368;
},
{
layerId = "D7C75E23-0F42-43B3-B077-EDD5C5AF94E1";
shapes = (
{
closed = 1;
nodes = (
(114,440,l),
(25,440,l),
(25,498,l),
(114,498,l),
(114,639,l),
(172,639,l),
(172,498,l),
(304,498,l),
(304,440,l),
(172,440,l),
(172,141,ls),
(172,81,o),
(191,54,o),
(236,54,cs),
(261,54,o),
(284,57,o),
(305,65,c),
(318,8,l),
(294,1,ls),
(280,-3,o),
(261,-5,o),
(237,-5,cs),
(172,-5,o),
(114,34,o),
(114,117,c)
);
}
);
width = 355;
}
);
unicode = 116;
},
{
glyphname = u;
layers = (
{
layerId = "2C489AF4-CB50-400B-84D0-36176F61FB51";
name = "#instance";
shapes = (
{
closed = 1;
nodes = (
(82,498,l),
(142,498,l),
(142,198,ls),
(142,89,o),
(184,42,o),
(286,42,cs),
(382,42,o),
(431,85,o),
(431,198,cs),
(431,498,l),
(492,498,l),
(492,181,ls),
(492,56,o),
(416,-15,o),
(287,-15,cs),
(156,-15,o),
(82,56,o),
(82,181,cs)
);
}
);
width = 574;
},
{
layerId = "668C2366-11AD-425E-A5E0-D912FEE9BD2F";
shapes = (
{
closed = 1;
nodes = (
(60,509,l),
(242,509,l),
(242,251,ls),
(242,188,o),
(238,135,o),
(312,135,cs),
(380,135,o),
(382,174,o),
(382,251,cs),
(382,509,l),
(551,509,l),
(551,197,ls),
(551,54,o),
(466,-15,o),
(311,-15,cs),
(154,-15,o),
(60,54,o),
(60,197,c)
);
}
);
width = 611;
},
{
layerId = "F93FC949-FDE5-438A-B007-EFA0C245CD82";
shapes = (
{
closed = 1;
nodes = (
(78,500,l),
(159,500,l),
(159,207,ls),
(159,106,o),
(193,58,o),
(290,58,cs),
(382,58,o),
(423,100,o),
(423,207,cs),
(423,500,l),
(502,500,l),
(502,184,ls),
(502,56,o),
(424,-15,o),
(291,-15,cs),
(156,-15,o),
(78,56,o),
(78,184,cs)
);
}
);
width = 580;
},
{
layerId = "D7C75E23-0F42-43B3-B077-EDD5C5AF94E1";
shapes = (
{
closed = 1;
nodes = (
(82,498,l),
(142,498,l),
(142,198,ls),
(142,89,o),
(184,42,o),
(286,42,cs),
(382,42,o),
(431,85,o),
(431,198,cs),
(431,498,l),
(492,498,l),
(492,181,ls),
(492,56,o),
(416,-15,o),
(287,-15,cs),
(156,-15,o),
(82,56,o),
(82,181,c)
);
}
);
width = 574;
}
);
leftKerningGroup = _u;
unicode = 117;
},
{
glyphname = v;
layers = (
{
layerId = "668C2366-11AD-425E-A5E0-D912FEE9BD2F";
shapes = (
{
closed = 1;
nodes = (
(414,0,l),
(232,0,l),
(21,509,l),
(219,509,l),
(335,201,l),
(432,509,l),
(624,509,l)
);
}
);
width = 645;
},
{
layerId = "F93FC949-FDE5-438A-B007-EFA0C245CD82";
shapes = (
{
closed = 1;
nodes = (
(326,0,l),
(245,0,l),
(34,500,l),
(117,500,l),
(289,88,l),
(455,500,l),
(537,500,l)
);
}
);
width = 572;
},
{
layerId = "D7C75E23-0F42-43B3-B077-EDD5C5AF94E1";
shapes = (
{
closed = 1;
nodes = (
(308,0,l),
(248,0,l),
(37,498,l),
(96,498,l),
(280,65,l),
(459,498,l),
(520,498,l)
);
}
);
width = 557;
}
);
leftKerningGroup = _v;
unicode = 118;
},
{
glyphname = w;
layers = (
{
layerId = "668C2366-11AD-425E-A5E0-D912FEE9BD2F";
shapes = (
{
closed = 1;
nodes = (
(651,0,l),
(489,0,l),
(419,228,l),
(353,0,l),
(191,0,l),
(21,509,l),
(218,509,l),
(289,228,l),
(356,509,l),
(484,509,l),
(554,217,l),
(626,509,l),
(820,509,l)
);
}
);
width = 840;
},
{
layerId = "F93FC949-FDE5-438A-B007-EFA0C245CD82";
shapes = (
{
closed = 1;
nodes = (
(599,0,l),
(520,0,l),
(397,401,l),
(280,0,l),
(200,0,l),
(34,500,l),
(118,500,l),
(243,92,l),
(362,500,l),
(435,500,l),
(557,90,l),
(684,500,l),
(765,500,l)
);
}
);
width = 799;
},
{
layerId = "D7C75E23-0F42-43B3-B077-EDD5C5AF94E1";
shapes = (
{
closed = 1;
nodes = (
(589,0,l),
(526,0,l),
(393,436,l),
(265,0,l),
(202,0,l),
(37,498,l),
(98,498,l),
(234,65,l),
(363,498,l),
(425,498,l),
(557,65,l),
(696,498,l),
(754,498,l)
);
}
);
width = 791;
}
);
leftKerningGroup = _w;
rightKerningGroup = _w;
unicode = 119;
},
{
glyphname = x;
layers = (
{
layerId = "668C2366-11AD-425E-A5E0-D912FEE9BD2F";
shapes = (
{
closed = 1;
nodes = (
(192,261,l),
(20,509,l),
(233,509,l),
(327,375,l),
(415,509,l),
(605,509,l),
(422,241,l),
(593,0,l),
(381,0,l),
(289,131,l),
(205,0,l),
(15,0,l)
);
}
);
width = 621;
},
{
layerId = "F93FC949-FDE5-438A-B007-EFA0C245CD82";
shapes = (
{
closed = 1;
nodes = (
(219,252,l),
(38,500,l),
(138,500,l),
(274,315,l),
(413,500,l),
(503,500,l),
(320,251,l),
(504,0,l),
(404,0,l),
(265,191,l),
(123,0,l),
(33,0,l)
);
}
);
width = 539;
},
{
layerId = "D7C75E23-0F42-43B3-B077-EDD5C5AF94E1";
shapes = (
{
closed = 1;
nodes = (
(224,250,l),
(42,498,l),
(119,498,l),
(263,303,l),
(412,498,l),
(482,498,l),
(299,253,l),
(486,0,l),
(408,0,l),
(260,203,l),
(106,0,l),
(37,0,l)
);
}
);
width = 522;
}
);
unicode = 120;
},
{
glyphname = y;
layers = (
{
layerId = "668C2366-11AD-425E-A5E0-D912FEE9BD2F";
shapes = (
{
closed = 1;
nodes = (
(161,-190,o),
(126,-185,o),
(86,-175,c),
(119,-22,l),
(135,-26,o),
(149,-28,o),
(162,-28,cs),
(194,-28,o),
(217,-16,o),
(222,5,c),
(21,509,l),
(230,509,l),
(315,210,l),
(399,509,l),
(597,509,l),
(407,10,ls),
(353,-134,o),
(289,-190,o),
(192,-190,cs)
);
}
);
width = 616;
},
{
layerId = "F93FC949-FDE5-438A-B007-EFA0C245CD82";
shapes = (
{
closed = 1;
nodes = (
(123,-191,o),
(105,-188,o),
(87,-183,c),
(103,-110,l),
(116,-114,o),
(127,-116,o),
(136,-116,cs),
(182,-116,o),
(209,-79,o),
(238,5,c),
(34,500,l),
(123,500,l),
(276,100,l),
(429,500,l),
(511,500,l),
(322,13,ls),
(269,-124,o),
(227,-191,o),
(140,-191,cs)
);
}
);
width = 545;
},
{
layerId = "D7C75E23-0F42-43B3-B077-EDD5C5AF94E1";
shapes = (
{
closed = 1;
nodes = (
(115,-191,o),
(101,-189,o),
(87,-185,c),
(100,-128,l),
(112,-131,o),
(122,-133,o),
(131,-133,cs),
(180,-133,o),
(207,-92,o),
(241,5,c),
(37,498,l),
(102,498,l),
(268,78,l),
(435,498,l),
(494,498,l),
(305,13,ls),
(252,-122,o),
(214,-191,o),
(130,-191,cs)
);
}
);
width = 531;
}
);
leftKerningGroup = _v;
rightKerningGroup = _y;
unicode = 121;
},
{
glyphname = z;
layers = (
{
layerId = "2C489AF4-CB50-400B-84D0-36176F61FB51";
name = "#instance";
shapes = (
{
closed = 1;
nodes = (
(112,55,l),
(404,55,l),
(404,0,l),
(45,0,l),
(45,56,l),
(330,444,l),
(52,444,l),
(52,498,l),
(404,498,l),
(404,444,l)
);
}
);
width = 449;
},
{
layerId = "668C2366-11AD-425E-A5E0-D912FEE9BD2F";
shapes = (
{
closed = 1;
nodes = (
(268,143,l),
(463,143,l),
(463,0,l),
(45,0,l),
(45,141,l),
(275,375,l),
(51,375,l),
(51,509,l),
(463,509,l),
(463,370,l)
);
}
);
width = 508;
},
{
layerId = "F93FC949-FDE5-438A-B007-EFA0C245CD82";
shapes = (
{
closed = 1;
nodes = (
(138,70,l),
(414,70,l),
(414,0,l),
(45,0,l),
(45,70,l),
(321,433,l),
(52,433,l),
(52,500,l),
(414,500,l),
(414,432,l)
);
}
);
width = 459;
},
{
layerId = "D7C75E23-0F42-43B3-B077-EDD5C5AF94E1";
shapes = (
{
closed = 1;
nodes = (
(112,55,l),
(404,55,l),
(404,0,l),
(45,0,l),
(45,56,l),
(330,444,l),
(52,444,l),
(52,498,l),
(404,498,l),
(404,444,l)
);
}
);
width = 449;
}
);
unicode = 122;
},
{
glyphname = i.ss01;
layers = (
{
layerId = "668C2366-11AD-425E-A5E0-D912FEE9BD2F";
shapes = (
{
closed = 1;
nodes = (
(49,730,o),
(99,777,o),
(154,777,cs),
(209,777,o),
(257,728,o),
(257,674,cs),
(257,618,o),
(210,570,o),
(154,570,cs),
(97,570,o),
(49,615,o),
(49,674,cs)
);
},
{
closed = 1;
nodes = (
(245,499,l),
(245,333,o),
(246,166,o),
(246,0,c),
(63,0,l),
(63,499,l)
);
}
);
width = 306;
},
{
layerId = "F93FC949-FDE5-438A-B007-EFA0C245CD82";
shapes = (
{
closed = 1;
nodes = (
(67,662,o),
(90,688,o),
(121,688,cs),
(149,688,o),
(175,662,o),
(175,634,cs),
(175,605,o),
(149,580,o),
(121,580,cs),
(90,580,o),
(67,605,o),
(67,634,cs)
);
},
{
closed = 1;
nodes = (
(163,499,l),
(163,333,o),
(163,166,o),
(163,0,c),
(83,0,l),
(83,499,l)
);
}
);
width = 244;
},
{
layerId = "D7C75E23-0F42-43B3-B077-EDD5C5AF94E1";
shapes = (
{
closed = 1;
nodes = (
(70,648,o),
(88,670,o),
(114,670,cs),
(137,670,o),
(158,649,o),
(158,626,cs),
(158,602,o),
(137,582,o),
(114,582,cs),
(89,582,o),
(70,603,o),
(70,626,cs)
);
},
{
closed = 1;
nodes = (
(146,499,l),
(146,333,o),
(146,166,o),
(146,0,c),
(87,0,l),
(87,499,l)
);
}
);
width = 232;
}
);
},
{
glyphname = j.ss01;
layers = (
{
layerId = "668C2366-11AD-425E-A5E0-D912FEE9BD2F";
shapes = (
{
closed = 1;
nodes = (
(63,730,o),
(113,777,o),
(168,777,cs),
(223,777,o),
(271,728,o),
(271,674,cs),
(271,618,o),
(224,570,o),
(168,570,cs),
(111,570,o),
(63,615,o),
(63,674,cs)
);
},
{
closed = 1;
nodes = (
(75,36,o),
(75,64,o),
(75,92,cs),
(75,509,l),
(257,509,l),
(258,340,o),
(259,170,o),
(260,1,c),
(260,-117,o),
(184,-193,o),
(63,-193,cs),
(34,-193,o),
(4,-188,o),
(-28,-179,c),
(3,-30,l),
(13,-33,o),
(23,-35,o),
(32,-35,cs),
(57,-35,o),
(75,-23,o),
(75,8,cs)
);
}
);
width = 320;
},
{
layerId = "F93FC949-FDE5-438A-B007-EFA0C245CD82";
shapes = (
{
closed = 1;
nodes = (
(96,662,o),
(120,688,o),
(151,688,cs),
(179,688,o),
(204,662,o),
(204,634,cs),
(204,605,o),
(179,580,o),
(151,580,cs),
(120,580,o),
(96,605,o),
(96,634,cs)
);
},
{
closed = 1;
nodes = (
(91,-97,o),
(109,-59,o),
(109,0,cs),
(109,500,l),
(190,500,l),
(190,343,o),
(189,187,o),
(189,29,cs),
(189,-99,o),
(159,-182,o),
(61,-182,cs),
(41,-182,o),
(18,-178,o),
(-6,-170,c),
(16,-101,l),
(27,-106,o),
(40,-108,o),
(51,-108,c),
(45,-108,o),
(53,-106,o),
(58,-101,c)
);
}
);
width = 272;
},
{
layerId = "D7C75E23-0F42-43B3-B077-EDD5C5AF94E1";
shapes = (
{
closed = 1;
nodes = (
(103,648,o),
(121,670,o),
(147,670,cs),
(170,670,o),
(191,649,o),
(191,626,cs),
(191,602,o),
(170,582,o),
(147,582,cs),
(122,582,o),
(103,603,o),
(103,626,cs)
);
},
{
closed = 1;
nodes = (
(94,-123,o),
(116,-83,o),
(116,-18,cs),
(116,498,l),
(176,498,l),
(176,343,o),
(175,190,o),
(175,35,cs),
(175,-95,o),
(154,-180,o),
(60,-180,cs),
(42,-180,o),
(21,-176,o),
(-2,-168,c),
(18,-115,l),
(30,-120,o),
(43,-123,o),
(55,-123,c),
(43,-123,o),
(49,-123,o),
(55,-123,cs)
);
}
);
width = 262;
}
);
},
{
glyphname = X_X_I_I_space_A_v_e_n;
layers = (
{
background = {
shapes = (
{
closed = 1;
nodes = (
(132,0,l),
(68,0,l),
(337,667,l),
(391,667,l),
(661,0,l),
(597,0,l),
(511,219,l),
(217,219,l)
);
},
{
closed = 1;
nodes = (
(-141,477,l),
(189,477,l),
(235,606,l),
(-141,606,l)
);
},
{
closed = 1;
nodes = (
(242,279,l),
(487,279,l),
(364,593,l)
);
},
{
closed = 1;
nodes = (
(-77,503,l),
(-86,503,l),
(-58,542,l),
(-85,580,l),
(-77,580,l),
(-54,548,l),
(-31,580,l),
(-23,580,l),
(-50,542,l),
(-22,503,l),
(-30,503,l),
(-54,536,l)
);
},
{
closed = 1;
nodes = (
(3,503,l),
(-6,503,l),
(22,542,l),
(-5,580,l),
(3,580,l),
(26,548,l),
(49,580,l),
(57,580,l),
(30,542,l),
(58,503,l),
(50,503,l),
(26,536,l)
);
},
{
closed = 1;
nodes = (
(92,503,l),
(85,503,l),
(85,580,l),
(92,580,l)
);
},
{
closed = 1;
nodes = (
(127,503,l),
(121,503,l),
(121,580,l),
(127,580,l)
);
},
{
closed = 1;
nodes = (
(1278,376,o),
(1389,506,o),
(1491,506,q),
(1601,506,o),
(1709,363,o),
(1706,241,q),
(1337,241,l),
(1338,146,o),
(1421,45,o),
(1495,45,q),
(1534,45,o),
(1623,69,o),
(1663,92,q),
(1685,35,l),
(1583,-15,o),
(1495,-15,q),
(1392,-15,o),
(1278,122,o),
(1278,251,q)
);
},
{
closed = 1;
nodes = (
(2183,506,o),
(2274,415,o),
(2274,323,q),
(2274,0,l),
(2215,0,l),
(2215,328,l),
(2215,451,o),
(2073,451,q),
(2012,451,o),
(1936,414,q),
(1936,0,l),
(1877,0,l),
(1877,451,l),
(1974,506,o),
(2084,506,q)
);
},
{
closed = 1;
nodes = (
(895,0,l),
(684,498,l),
(743,498,l),
(927,65,l),
(1106,498,l),
(1167,498,l),
(955,0,l)
);
},
{
closed = 1;
nodes = (
(1420,448,o),
(1350,383,o),
(1341,302,q),
(1642,302,l),
(1637,375,o),
(1564,448,o),
(1492,448,q)
);
}
);
};
layerId = "668C2366-11AD-425E-A5E0-D912FEE9BD2F";
shapes = (
{
closed = 1;
nodes = (
(289,667,l),
(540,667,l),
(749,0,l),
(553,0,l),
(518,116,l),
(286,116,l),
(252,0,l),
(57,0,l)
);
},
{
closed = 1;
nodes = (
(199,638,l),
(170,555,l),
(-40,555,l),
(-40,638,l)
);
},
{
closed = 1;
nodes = (
(75,572,l),
(94,572,l),
(77,596,l),
(93,621,l),
(76,621,l),
(68,608,l),
(60,621,l),
(25,621,l),
(17,608,l),
(9,621,l),
(-10,621,l),
(7,596,l),
(-8,572,l),
(8,572,l),
(16,584,l),
(24,572,l),
(42,572,l),
(26,596,l),
(42,621,l),
(59,596,l),
(43,572,l),
(60,572,l),
(67,584,l)
);
},
{
closed = 1;
nodes = (
(112,572,l),
(112,621,l),
(98,621,l),
(98,572,l)
);
},
{
closed = 1;
nodes = (
(135,572,l),
(135,621,l),
(120,621,l),
(120,572,l)
);
},
{
closed = 1;
nodes = (
(1469,205,l),
(1466,157,o),
(1501,125,o),
(1554,125,cs),
(1599,125,o),
(1653,136,o),
(1714,159,c),
(1763,30,l),
(1700,3,o),
(1622,-15,o),
(1554,-15,cs),
(1401,-15,o),
(1282,79,o),
(1282,244,cs),
(1282,424,o),
(1378,530,o),
(1549,530,cs),
(1710,530,o),
(1791,426,o),
(1790,205,c)
);
},
{
closed = 1;
nodes = (
(2378,0,l),
(2196,0,l),
(2196,298,ls),
(2196,346,o),
(2169,371,o),
(2128,371,cs),
(2117,371,o),
(2103,369,o),
(2086,365,cs),
(2069,362,o),
(2059,359,o),
(2054,356,c),
(2054,0,l),
(1872,0,l),
(1872,481,l),
(1899,492,o),
(1935,502,o),
(1981,511,cs),
(2028,520,o),
(2072,525,o),
(2113,525,cs),
(2302,525,o),
(2378,477,o),
(2378,347,c)
);
},
{
closed = 1;
nodes = (
(1090,509,l),
(1282,509,l),
(1072,0,l),
(890,0,l),
(679,509,l),
(877,509,l),
(993,201,l)
);
},
{
closed = 1;
nodes = (
(326,243,l),
(481,243,l),
(401,500,l)
);
},
{
closed = 1;
nodes = (
(1499,395,o),
(1461,356,o),
(1466,293,c),
(1610,293,l),
(1613,365,o),
(1585,395,o),
(1540,395,cs)
);
}
);
width = 2438;
},
{
layerId = "F93FC949-FDE5-438A-B007-EFA0C245CD82";
shapes = (
{
closed = 1;
nodes = (
(289,667,l),
(540,667,l),
(749,0,l),
(553,0,l),
(518,116,l),
(286,116,l),
(252,0,l),
(57,0,l)
);
},
{
closed = 1;
nodes = (
(199,638,l),
(170,555,l),
(-40,555,l),
(-40,638,l)
);
},
{
closed = 1;
nodes = (
(75,572,l),
(94,572,l),
(77,596,l),
(93,621,l),
(76,621,l),
(68,608,l),
(60,621,l),
(25,621,l),
(17,608,l),
(9,621,l),
(-10,621,l),
(7,596,l),
(-8,572,l),
(8,572,l),
(16,584,l),
(24,572,l),
(42,572,l),
(26,596,l),
(42,621,l),
(59,596,l),
(43,572,l),
(60,572,l),
(67,584,l)
);
},
{
closed = 1;
nodes = (
(112,572,l),
(112,621,l),
(98,621,l),
(98,572,l)
);
},
{
closed = 1;
nodes = (
(135,572,l),
(135,621,l),
(120,621,l),
(120,572,l)
);
},
{
closed = 1;
nodes = (
(1469,205,l),
(1466,157,o),
(1501,125,o),
(1554,125,cs),
(1599,125,o),
(1653,136,o),
(1714,159,c),
(1763,30,l),
(1700,3,o),
(1622,-15,o),
(1554,-15,cs),
(1401,-15,o),
(1282,79,o),
(1282,244,cs),
(1282,424,o),
(1378,530,o),
(1549,530,cs),
(1710,530,o),
(1791,426,o),
(1790,205,c)
);
},
{
closed = 1;
nodes = (
(2378,0,l),
(2196,0,l),
(2196,298,ls),
(2196,346,o),
(2169,371,o),
(2128,371,cs),
(2117,371,o),
(2103,369,o),
(2086,365,cs),
(2069,362,o),
(2059,359,o),
(2054,356,c),
(2054,0,l),
(1872,0,l),
(1872,481,l),
(1899,492,o),
(1935,502,o),
(1981,511,cs),
(2028,520,o),
(2072,525,o),
(2113,525,cs),
(2302,525,o),
(2378,477,o),
(2378,347,cs)
);
},
{
closed = 1;
nodes = (
(1090,509,l),
(1282,509,l),
(1072,0,l),
(890,0,l),
(679,509,l),
(877,509,l),
(993,201,l)
);
},
{
closed = 1;
nodes = (
(326,243,l),
(481,243,l),
(401,500,l)
);
},
{
closed = 1;
nodes = (
(1499,395,o),
(1461,356,o),
(1466,293,c),
(1610,293,l),
(1613,365,o),
(1585,395,o),
(1540,395,cs)
);
}
);
width = 2371;
},
{
layerId = "D7C75E23-0F42-43B3-B077-EDD5C5AF94E1";
shapes = (
{
closed = 1;
nodes = (
(289,667,l),
(540,667,l),
(749,0,l),
(553,0,l),
(518,116,l),
(286,116,l),
(252,0,l),
(57,0,l)
);
},
{
closed = 1;
nodes = (
(199,638,l),
(170,555,l),
(-40,555,l),
(-40,638,l)
);
},
{
closed = 1;
nodes = (
(75,572,l),
(94,572,l),
(77,596,l),
(93,621,l),
(76,621,l),
(68,608,l),
(60,621,l),
(25,621,l),
(17,608,l),
(9,621,l),
(-10,621,l),
(7,596,l),
(-8,572,l),
(8,572,l),
(16,584,l),
(24,572,l),
(42,572,l),
(26,596,l),
(42,621,l),
(59,596,l),
(43,572,l),
(60,572,l),
(67,584,l)
);
},
{
closed = 1;
nodes = (
(112,572,l),
(112,621,l),
(98,621,l),
(98,572,l)
);
},
{
closed = 1;
nodes = (
(135,572,l),
(135,621,l),
(120,621,l),
(120,572,l)
);
},
{
closed = 1;
nodes = (
(1469,205,l),
(1466,157,o),
(1501,125,o),
(1554,125,cs),
(1599,125,o),
(1653,136,o),
(1714,159,c),
(1763,30,l),
(1700,3,o),
(1622,-15,o),
(1554,-15,cs),
(1401,-15,o),
(1282,79,o),
(1282,244,cs),
(1282,424,o),
(1378,530,o),
(1549,530,cs),
(1710,530,o),
(1791,426,o),
(1790,205,c)
);
},
{
closed = 1;
nodes = (
(2378,0,l),
(2196,0,l),
(2196,298,ls),
(2196,346,o),
(2169,371,o),
(2128,371,cs),
(2117,371,o),
(2103,369,o),
(2086,365,cs),
(2069,362,o),
(2059,359,o),
(2054,356,c),
(2054,0,l),
(1872,0,l),
(1872,481,l),
(1899,492,o),
(1935,502,o),
(1981,511,cs),
(2028,520,o),
(2072,525,o),
(2113,525,cs),
(2302,525,o),
(2378,477,o),
(2378,347,c)
);
},
{
closed = 1;
nodes = (
(1090,509,l),
(1282,509,l),
(1072,0,l),
(890,0,l),
(679,509,l),
(877,509,l),
(993,201,l)
);
},
{
closed = 1;
nodes = (
(326,243,l),
(481,243,l),
(401,500,l)
);
},
{
closed = 1;
nodes = (
(1499,395,o),
(1461,356,o),
(1466,293,c),
(1610,293,l),
(1613,365,o),
(1585,395,o),
(1540,395,cs)
);
}
);
width = 2357;
}
);
},
{
glyphname = f_f_i;
layers = (
{
layerId = "668C2366-11AD-425E-A5E0-D912FEE9BD2F";
shapes = (
{
closed = 1;
nodes = (
(761,0,l),
(761,351,l),
(611,351,l),
(611,0,l),
(429,0,l),
(429,351,l),
(277,351,l),
(277,0,l),
(94,0,l),
(94,351,l),
(26,351,l),
(26,499,l),
(96,499,l),
(96,540,ls),
(96,659,o),
(167,724,o),
(277,738,cs),
(293,740,o),
(310,741,o),
(327,741,cs),
(357,741,o),
(394,732,o),
(440,714,c),
(395,583,l),
(371,592,o),
(358,596,o),
(334,596,cs),
(309,596,o),
(278,576,o),
(278,540,cs),
(278,499,l),
(430,499,l),
(430,526,ls),
(430,697,o),
(562,768,o),
(720,768,cs),
(815,768,o),
(902,747,o),
(948,724,c),
(899,569,l),
(855,588,o),
(769,609,o),
(720,609,cs),
(661,609,o),
(613,579,o),
(613,526,cs),
(613,499,l),
(943,499,l),
(943,333,o),
(944,166,o),
(944,0,c)
);
}
);
width = 1008;
},
{
layerId = "F93FC949-FDE5-438A-B007-EFA0C245CD82";
shapes = (
{
closed = 1;
nodes = (
(793,0,l),
(793,428,l),
(549,428,l),
(549,0,l),
(469,0,l),
(469,428,l),
(204,428,l),
(204,0,l),
(124,0,l),
(124,428,l),
(39,428,l),
(39,499,l),
(124,499,l),
(124,527,ls),
(124,643,o),
(169,708,o),
(291,711,cs),
(301,711,o),
(312,710,o),
(322,709,cs),
(350,707,o),
(380,700,o),
(401,690,c),
(380,623,l),
(364,630,o),
(321,640,o),
(301,640,cs),
(235,640,o),
(204,606,o),
(204,528,cs),
(204,499,l),
(469,499,l),
(469,526,ls),
(469,653,o),
(546,732,o),
(677,732,cs),
(762,732,o),
(840,709,o),
(877,692,c),
(857,624,l),
(829,636,o),
(743,659,o),
(678,659,cs),
(609,659,o),
(549,615,o),
(549,527,cs),
(549,499,l),
(872,499,l),
(872,333,o),
(872,166,o),
(872,0,c)
);
}
);
width = 956;
},
{
layerId = "D7C75E23-0F42-43B3-B077-EDD5C5AF94E1";
shapes = (
{
closed = 1;
nodes = (
(799,0,l),
(799,443,l),
(536,443,l),
(536,0,l),
(477,0,l),
(477,443,l),
(189,443,l),
(189,0,l),
(130,0,l),
(130,443,l),
(42,443,l),
(42,499,l),
(130,499,l),
(130,524,ls),
(130,640,o),
(169,705,o),
(294,705,cs),
(303,705,o),
(312,704,o),
(321,703,cs),
(349,700,o),
(377,694,o),
(393,685,c),
(377,631,l),
(362,638,o),
(314,649,o),
(294,649,cs),
(220,649,o),
(189,612,o),
(189,526,cs),
(189,499,l),
(477,499,l),
(477,526,ls),
(477,644,o),
(543,725,o),
(668,725,cs),
(751,725,o),
(828,701,o),
(863,686,c),
(848,635,l),
(824,646,o),
(738,669,o),
(669,669,cs),
(598,669,o),
(536,622,o),
(536,527,cs),
(536,499,l),
(858,499,l),
(858,333,o),
(858,166,o),
(858,0,c)
);
}
);
width = 946;
}
);
},
{
glyphname = fi;
layers = (
{
layerId = "668C2366-11AD-425E-A5E0-D912FEE9BD2F";
shapes = (
{
closed = 1;
nodes = (
(610,0,l),
(426,0,l),
(426,351,l),
(277,351,l),
(277,0,l),
(94,0,l),
(94,351,l),
(26,351,l),
(26,499,l),
(96,499,l),
(96,526,ls),
(96,696,o),
(225,768,o),
(386,768,cs),
(480,768,o),
(571,747,o),
(613,724,c),
(564,569,l),
(520,588,o),
(434,609,o),
(385,609,cs),
(328,609,o),
(278,580,o),
(278,526,cs),
(278,499,l),
(608,499,l)
);
}
);
width = 681;
},
{
layerId = "F93FC949-FDE5-438A-B007-EFA0C245CD82";
shapes = (
{
closed = 1;
nodes = (
(528,0,l),
(448,0,l),
(448,428,l),
(204,428,l),
(204,0,l),
(124,0,l),
(124,428,l),
(39,428,l),
(39,499,l),
(124,499,l),
(124,526,ls),
(124,653,o),
(201,732,o),
(331,732,cs),
(416,732,o),
(494,709,o),
(532,692,c),
(511,624,l),
(483,636,o),
(400,659,o),
(332,659,cs),
(260,659,o),
(204,611,o),
(204,527,cs),
(204,499,l),
(527,499,l)
);
}
);
width = 610;
},
{
layerId = "D7C75E23-0F42-43B3-B077-EDD5C5AF94E1";
shapes = (
{
closed = 1;
nodes = (
(511,0,l),
(452,0,l),
(452,443,l),
(189,443,l),
(189,0,l),
(130,0,l),
(130,443,l),
(42,443,l),
(42,499,l),
(130,499,l),
(130,526,ls),
(130,644,o),
(196,725,o),
(320,725,cs),
(403,725,o),
(479,701,o),
(516,686,c),
(500,635,l),
(476,646,o),
(393,669,o),
(321,669,cs),
(246,669,o),
(189,617,o),
(189,527,cs),
(189,499,l),
(511,499,l)
);
}
);
width = 596;
}
);
unicode = 64257;
},
{
glyphname = fl;
layers = (
{
layerId = "668C2366-11AD-425E-A5E0-D912FEE9BD2F";
shapes = (
{
closed = 1;
nodes = (
(643,0,l),
(462,0,l),
(462,594,l),
(427,602,o),
(396,606,o),
(370,606,cs),
(318,606,o),
(278,584,o),
(278,540,cs),
(278,499,l),
(377,499,l),
(377,364,l),
(277,364,l),
(277,0,l),
(94,0,l),
(94,364,l),
(26,364,l),
(26,499,l),
(96,499,l),
(96,540,ls),
(96,688,o),
(217,748,o),
(357,748,cs),
(449,748,o),
(533,718,o),
(643,700,c)
);
}
);
width = 703;
},
{
layerId = "F93FC949-FDE5-438A-B007-EFA0C245CD82";
shapes = (
{
closed = 1;
nodes = (
(536,0,l),
(455,0,l),
(455,639,l),
(407,650,o),
(365,655,o),
(330,655,cs),
(256,655,o),
(204,609,o),
(204,528,cs),
(204,499,l),
(338,499,l),
(338,428,l),
(204,428,l),
(204,0,l),
(124,0,l),
(124,428,l),
(39,428,l),
(39,499,l),
(124,499,l),
(124,527,ls),
(124,646,o),
(194,726,o),
(330,726,cs),
(406,726,o),
(484,710,o),
(536,690,c)
);
}
);
width = 614;
},
{
layerId = "D7C75E23-0F42-43B3-B077-EDD5C5AF94E1";
shapes = (
{
closed = 1;
nodes = (
(514,0,l),
(454,0,l),
(454,648,l),
(403,659,o),
(359,665,o),
(322,665,cs),
(244,665,o),
(189,614,o),
(189,526,cs),
(189,499,l),
(330,499,l),
(330,441,l),
(189,441,l),
(189,0,l),
(130,0,l),
(130,441,l),
(42,441,l),
(42,499,l),
(130,499,l),
(130,524,ls),
(130,637,o),
(189,722,o),
(324,722,cs),
(397,722,o),
(474,708,o),
(514,688,c)
);
}
);
width = 596;
}
);
unicode = 64258;
},
{
glyphname = ordfeminine;
layers = (
{
layerId = "668C2366-11AD-425E-A5E0-D912FEE9BD2F";
shapes = (
{
closed = 1;
nodes = (
(286,408,l),
(270,399,o),
(195,382,o),
(154,382,cs),
(60,382,o),
(16,412,o),
(16,479,cs),
(16,533,o),
(58,561,o),
(133,561,cs),
(149,561,o),
(167,558,o),
(187,553,c),
(187,580,ls),
(187,596,o),
(172,604,o),
(156,604,cs),
(127,604,o),
(96,596,o),
(69,585,c),
(43,657,l),
(81,673,o),
(117,681,o),
(152,681,cs),
(228,680,o),
(286,650,o),
(286,578,c)
);
},
{
closed = 1;
nodes = (
(131,510,o),
(116,502,o),
(116,481,cs),
(116,464,o),
(132,452,o),
(154,452,cs),
(173,452,o),
(184,458,o),
(187,458,c),
(187,504,l),
(174,507,o),
(164,510,o),
(150,510,cs)
);
}
);
width = 319;
},
{
layerId = "F93FC949-FDE5-438A-B007-EFA0C245CD82";
shapes = (
{
closed = 1;
nodes = (
(263,414,l),
(242,397,o),
(193,382,o),
(144,382,cs),
(73,382,o),
(32,412,o),
(32,472,cs),
(32,526,o),
(73,558,o),
(138,558,cs),
(170,558,o),
(196,552,o),
(218,543,c),
(218,573,ls),
(218,615,o),
(193,630,o),
(153,630,cs),
(122,630,o),
(93,621,o),
(65,605,c),
(51,644,l),
(89,661,o),
(122,670,o),
(152,670,cs),
(223,670,o),
(263,641,o),
(263,581,cs)
);
},
{
closed = 1;
nodes = (
(99,523,o),
(76,504,o),
(76,473,cs),
(76,435,o),
(101,420,o),
(144,420,cs),
(177,420,o),
(202,426,o),
(218,436,c),
(218,508,l),
(197,517,o),
(172,523,o),
(139,523,cs)
);
}
);
width = 306;
},
{
layerId = "D7C75E23-0F42-43B3-B077-EDD5C5AF94E1";
shapes = (
{
closed = 1;
nodes = (
(258,415,l),
(236,397,o),
(193,382,o),
(142,382,cs),
(75,382,o),
(35,412,o),
(35,471,cs),
(35,525,o),
(76,557,o),
(139,557,cs),
(174,557,o),
(202,551,o),
(224,541,c),
(224,571,ls),
(224,619,o),
(197,635,o),
(152,635,cs),
(121,635,o),
(92,626,o),
(64,609,c),
(53,641,l),
(90,659,o),
(123,668,o),
(152,668,cs),
(222,668,o),
(258,639,o),
(258,582,c)
);
},
{
closed = 1;
nodes = (
(92,525,o),
(68,504,o),
(68,471,cs),
(68,429,o),
(95,413,o),
(142,413,cs),
(178,413,o),
(205,419,o),
(224,432,c),
(224,509,l),
(202,519,o),
(173,525,o),
(137,525,c)
);
}
);
width = 303;
}
);
unicode = 170;
},
{
glyphname = ordmasculine;
layers = (
{
layerId = "668C2366-11AD-425E-A5E0-D912FEE9BD2F";
shapes = (
{
closed = 1;
nodes = (
(17,635,o),
(62,681,o),
(164,681,cs),
(265,681,o),
(313,636,o),
(313,532,cs),
(313,434,o),
(262,382,o),
(164,382,cs),
(68,382,o),
(17,430,o),
(17,532,cs)
);
},
{
closed = 1;
nodes = (
(214,584,o),
(199,604,o),
(164,604,cs),
(128,604,o),
(116,586,o),
(116,532,cs),
(116,480,o),
(131,460,o),
(164,460,cs),
(198,460,o),
(214,487,o),
(214,532,cs)
);
}
);
width = 330;
},
{
layerId = "F93FC949-FDE5-438A-B007-EFA0C245CD82";
shapes = (
{
closed = 1;
nodes = (
(30,622,o),
(72,670,o),
(157,670,cs),
(242,670,o),
(285,618,o),
(285,527,cs),
(285,434,o),
(236,382,o),
(157,382,cs),
(71,382,o),
(30,433,o),
(30,527,cs)
);
},
{
closed = 1;
nodes = (
(241,595,o),
(214,631,o),
(157,631,cs),
(101,631,o),
(74,597,o),
(74,527,cs),
(74,455,o),
(101,421,o),
(157,421,cs),
(212,421,o),
(241,456,o),
(241,527,cs)
);
}
);
width = 314;
},
{
layerId = "D7C75E23-0F42-43B3-B077-EDD5C5AF94E1";
shapes = (
{
closed = 1;
nodes = (
(32,619,o),
(74,668,o),
(155,668,cs),
(237,668,o),
(279,614,o),
(279,526,cs),
(279,434,o),
(231,382,o),
(156,382,cs),
(72,382,o),
(32,433,o),
(32,526,cs)
);
},
{
closed = 1;
nodes = (
(246,597,o),
(217,636,o),
(155,636,cs),
(95,636,o),
(65,599,o),
(65,526,cs),
(65,450,o),
(95,413,o),
(155,413,cs),
(215,413,o),
(246,450,o),
(246,526,cs)
);
}
);
width = 311;
}
);
unicode = 186;
},
{
glyphname = pi;
layers = (
{
layerId = "668C2366-11AD-425E-A5E0-D912FEE9BD2F";
shapes = (
{
closed = 1;
nodes = (
(34,374,l),
(34,499,l),
(598,499,l),
(598,374,l),
(499,374,l),
(499,0,l),
(374,0,l),
(374,374,l),
(258,374,l),
(258,0,l),
(131,0,l),
(131,374,l)
);
}
);
width = 633;
},
{
layerId = "F93FC949-FDE5-438A-B007-EFA0C245CD82";
shapes = (
{
closed = 1;
nodes = (
(33,429,l),
(33,499,l),
(590,499,l),
(590,429,l),
(482,429,l),
(482,0,l),
(412,0,l),
(412,429,l),
(211,429,l),
(211,0,l),
(141,0,l),
(141,429,l)
);
}
);
width = 623;
},
{
layerId = "D7C75E23-0F42-43B3-B077-EDD5C5AF94E1";
shapes = (
{
closed = 1;
nodes = (
(33,440,l),
(33,499,l),
(588,499,l),
(588,440,l),
(478,440,l),
(478,0,l),
(419,0,l),
(419,440,l),
(202,440,l),
(202,0,l),
(143,0,l),
(143,440,l)
);
}
);
width = 621;
}
);
unicode = 960;
},
{
glyphname = zero;
layers = (
{
layerId = "668C2366-11AD-425E-A5E0-D912FEE9BD2F";
shapes = (
{
closed = 1;
nodes = (
(36,569,o),
(127,682,o),
(337,682,cs),
(544,682,o),
(640,570,o),
(640,334,cs),
(640,99,o),
(546,-14,o),
(337,-14,cs),
(128,-14,o),
(36,99,o),
(36,334,cs)
);
},
{
closed = 1;
nodes = (
(435,482,o),
(396,522,o),
(337,522,cs),
(277,522,o),
(241,475,o),
(241,334,cs),
(241,214,o),
(263,145,o),
(337,145,cs),
(402,145,o),
(435,192,o),
(435,334,cs)
);
}
);
width = 675;
},
{
layerId = "F93FC949-FDE5-438A-B007-EFA0C245CD82";
shapes = (
{
closed = 1;
nodes = (
(59,555,o),
(144,674,o),
(324,674,cs),
(502,674,o),
(590,560,o),
(590,332,cs),
(590,102,o),
(500,-12,o),
(324,-12,cs),
(145,-12,o),
(59,106,o),
(59,332,cs)
);
},
{
closed = 1;
nodes = (
(508,505,o),
(460,601,o),
(324,601,cs),
(200,601,o),
(139,525,o),
(139,332,cs),
(139,158,o),
(184,62,o),
(324,62,cs),
(446,62,o),
(508,135,o),
(508,332,cs)
);
}
);
width = 648;
},
{
layerId = "D7C75E23-0F42-43B3-B077-EDD5C5AF94E1";
shapes = (
{
closed = 1;
nodes = (
(63,552,o),
(147,672,o),
(321,672,cs),
(493,672,o),
(580,558,o),
(580,331,cs),
(580,102,o),
(491,-11,o),
(321,-11,cs),
(148,-11,o),
(63,107,o),
(63,331,cs)
);
},
{
closed = 1;
nodes = (
(523,509,o),
(473,617,o),
(321,617,cs),
(185,617,o),
(119,535,o),
(119,331,cs),
(119,147,o),
(168,45,o),
(321,45,cs),
(455,45,o),
(523,123,o),
(523,331,cs)
);
}
);
width = 643;
}
);
unicode = 48;
},
{
glyphname = one;
layers = (
{
layerId = "2C489AF4-CB50-400B-84D0-36176F61FB51";
name = "#instance";
shapes = (
{
closed = 1;
nodes = (
(139,555,l),
(112,611,l),
(241,667,l),
(301,667,l),
(301,0,l),
(244,0,l),
(244,604,l)
);
}
);
width = 448;
},
{
layerId = "668C2366-11AD-425E-A5E0-D912FEE9BD2F";
shapes = (
{
closed = 1;
nodes = (
(76,448,l),
(27,590,l),
(194,667,l),
(368,667,l),
(368,0,l),
(167,0,l),
(167,486,l)
);
}
);
width = 478;
},
{
layerId = "F93FC949-FDE5-438A-B007-EFA0C245CD82";
shapes = (
{
closed = 1;
nodes = (
(129,537,l),
(98,608,l),
(233,667,l),
(312,667,l),
(312,0,l),
(231,0,l),
(231,584,l)
);
}
);
width = 453;
},
{
layerId = "D7C75E23-0F42-43B3-B077-EDD5C5AF94E1";
shapes = (
{
closed = 1;
nodes = (
(139,555,l),
(112,611,l),
(241,667,l),
(301,667,l),
(301,0,l),
(244,0,l),
(244,604,l)
);
}
);
width = 448;
}
);
unicode = 49;
},
{
glyphname = two;
layers = (
{
layerId = "668C2366-11AD-425E-A5E0-D912FEE9BD2F";
shapes = (
{
closed = 1;
nodes = (
(554,0,l),
(67,0,l),
(67,156,l),
(173,209,o),
(344,342,o),
(339,454,c),
(339,506,o),
(308,531,o),
(273,531,cs),
(229,531,o),
(174,515,o),
(114,489,c),
(63,633,l),
(132,666,o),
(202,682,o),
(273,682,cs),
(448,682,o),
(540,596,o),
(540,469,cs),
(540,357,o),
(474,258,o),
(352,169,c),
(554,169,l)
);
}
);
width = 620;
},
{
layerId = "F93FC949-FDE5-438A-B007-EFA0C245CD82";
shapes = (
{
closed = 1;
nodes = (
(502,0,l),
(76,0,l),
(76,69,l),
(231,187,o),
(412,355,o),
(411,486,cs),
(411,554,o),
(373,603,o),
(286,603,cs),
(234,603,o),
(172,586,o),
(120,557,c),
(93,627,l),
(161,659,o),
(226,676,o),
(286,676,cs),
(408,676,o),
(492,608,o),
(492,487,cs),
(492,370,o),
(372,218,o),
(205,79,c),
(502,79,l)
);
}
);
width = 584;
},
{
layerId = "D7C75E23-0F42-43B3-B077-EDD5C5AF94E1";
shapes = (
{
closed = 1;
nodes = (
(492,0,l),
(78,0,l),
(78,52,l),
(243,183,o),
(425,358,o),
(425,492,cs),
(425,563,o),
(386,617,o),
(289,617,cs),
(235,617,o),
(171,600,o),
(121,571,c),
(99,626,l),
(167,658,o),
(231,675,o),
(289,675,cs),
(400,675,o),
(482,610,o),
(482,490,cs),
(482,373,o),
(351,210,o),
(175,61,c),
(492,61,l)
);
}
);
width = 577;
}
);
unicode = 50;
},
{
glyphname = three;
layers = (
{
layerId = "2C489AF4-CB50-400B-84D0-36176F61FB51";
name = "#instance";
shapes = (
{
closed = 1;
nodes = (
(518,74,o),
(425,-8,o),
(256,-8,cs),
(191,-8,o),
(118,12,o),
(56,41,c),
(78,97,l),
(132,66,o),
(201,50,o),
(256,50,cs),
(381,50,o),
(460,102,o),
(460,190,cs),
(460,277,o),
(390,326,o),
(262,326,cs),
(194,326,l),
(194,386,l),
(265,386,ls),
(366,386,o),
(425,423,o),
(425,499,cs),
(425,558,o),
(385,602,o),
(306,614,cs),
(290,616,o),
(274,618,o),
(255,618,cs),
(199,618,o),
(131,600,o),
(77,571,c),
(56,627,l),
(118,654,o),
(191,676,o),
(255,676,cs),
(390,676,o),
(483,618,o),
(483,496,cs),
(483,434,o),
(428,374,o),
(398,361,c),
(453,339,o),
(518,296,o),
(518,189,cs)
);
}
);
width = 581;
},
{
layerId = "668C2366-11AD-425E-A5E0-D912FEE9BD2F";
shapes = (
{
closed = 1;
nodes = (
(555,63,o),
(418,-8,o),
(267,-8,cs),
(193,-8,o),
(113,13,o),
(45,41,c),
(99,182,l),
(159,156,o),
(216,143,o),
(267,143,cs),
(321,143,o),
(364,164,o),
(364,206,cs),
(364,250,o),
(331,268,o),
(270,268,cs),
(160,268,l),
(160,413,l),
(272,413,ls),
(312,413,o),
(336,437,o),
(336,472,cs),
(336,507,o),
(304,525,o),
(281,525,cs),
(275,525,o),
(269,524,o),
(262,524,c),
(216,520,o),
(167,510,o),
(113,486,c),
(59,627,l),
(126,657,o),
(210,676,o),
(281,676,cs),
(416,676,o),
(528,611,o),
(528,493,cs),
(528,434,o),
(477,376,o),
(435,362,c),
(513,336,o),
(555,280,o),
(555,201,cs)
);
}
);
width = 600;
},
{
layerId = "F93FC949-FDE5-438A-B007-EFA0C245CD82";
shapes = (
{
closed = 1;
nodes = (
(524,72,o),
(424,-8,o),
(258,-8,cs),
(191,-8,o),
(117,12,o),
(54,41,c),
(82,111,l),
(137,81,o),
(204,66,o),
(258,66,cs),
(371,66,o),
(444,112,o),
(444,193,cs),
(444,273,o),
(380,316,o),
(263,316,cs),
(188,316,l),
(188,391,l),
(266,391,ls),
(357,391,o),
(410,425,o),
(410,495,cs),
(410,550,o),
(372,589,o),
(302,599,cs),
(288,601,o),
(273,602,o),
(256,602,cs),
(202,602,o),
(137,585,o),
(83,557,c),
(57,627,l),
(119,655,o),
(194,676,o),
(259,676,cs),
(394,676,o),
(491,617,o),
(491,496,cs),
(491,434,o),
(436,374,o),
(404,361,c),
(463,339,o),
(524,293,o),
(524,191,cs)
);
}
);
width = 584;
},
{
layerId = "D7C75E23-0F42-43B3-B077-EDD5C5AF94E1";
shapes = (
{
closed = 1;
nodes = (
(518,74,o),
(425,-8,o),
(256,-8,cs),
(191,-8,o),
(118,12,o),
(56,41,c),
(78,97,l),
(132,66,o),
(201,50,o),
(256,50,cs),
(381,50,o),
(460,102,o),
(460,190,cs),
(460,277,o),
(390,326,o),
(262,326,cs),
(194,326,l),
(194,386,l),
(265,386,ls),
(366,386,o),
(425,423,o),
(425,499,cs),
(425,558,o),
(385,602,o),
(306,614,cs),
(290,616,o),
(274,618,o),
(255,618,cs),
(199,618,o),
(131,600,o),
(77,571,c),
(56,627,l),
(118,654,o),
(191,676,o),
(255,676,cs),
(390,676,o),
(483,618,o),
(483,496,cs),
(483,434,o),
(428,374,o),
(398,361,c),
(453,339,o),
(518,296,o),
(518,189,cs)
);
}
);
width = 581;
}
);
unicode = 51;
},
{
glyphname = four;
layers = (
{
layerId = "668C2366-11AD-425E-A5E0-D912FEE9BD2F";
shapes = (
{
closed = 1;
nodes = (
(32,127,l),
(32,260,l),
(267,667,l),
(534,667,l),
(534,258,l),
(614,258,l),
(614,127,l),
(534,127,l),
(534,0,l),
(335,0,l),
(335,127,l)
);
},
{
closed = 1;
nodes = (
(335,498,l),
(205,258,l),
(335,258,l)
);
}
);
width = 640;
},
{
layerId = "F93FC949-FDE5-438A-B007-EFA0C245CD82";
shapes = (
{
closed = 1;
nodes = (
(37,192,l),
(37,273,l),
(350,667,l),
(443,667,l),
(443,262,l),
(537,262,l),
(537,192,l),
(443,192,l),
(443,0,l),
(363,0,l),
(363,192,l)
);
},
{
closed = 1;
nodes = (
(363,570,l),
(114,262,l),
(363,262,l)
);
}
);
width = 597;
},
{
layerId = "D7C75E23-0F42-43B3-B077-EDD5C5AF94E1";
shapes = (
{
closed = 1;
nodes = (
(38,205,l),
(38,276,l),
(366,667,l),
(425,667,l),
(425,263,l),
(522,263,l),
(522,205,l),
(425,205,l),
(425,0,l),
(368,0,l),
(368,205,l)
);
},
{
closed = 1;
nodes = (
(368,584,l),
(96,263,l),
(368,263,l)
);
}
);
width = 588;
}
);
unicode = 52;
},
{
glyphname = five;
layers = (
{
layerId = "668C2366-11AD-425E-A5E0-D912FEE9BD2F";
shapes = (
{
closed = 1;
nodes = (
(578,64,o),
(467,-14,o),
(282,-14,cs),
(211,-14,o),
(130,6,o),
(65,35,c),
(117,176,l),
(177,149,o),
(232,137,o),
(282,137,cs),
(335,137,o),
(372,174,o),
(372,220,cs),
(372,246,o),
(349,268,o),
(315,277,cs),
(304,280,o),
(291,282,o),
(278,282,cs),
(230,282,o),
(182,267,o),
(162,251,c),
(78,346,l),
(124,668,l),
(518,668,l),
(518,497,l),
(259,497,l),
(251,406,l),
(281,418,o),
(315,422,o),
(349,422,cs),
(467,422,o),
(578,363,o),
(578,237,cs)
);
}
);
width = 612;
},
{
layerId = "F93FC949-FDE5-438A-B007-EFA0C245CD82";
shapes = (
{
closed = 1;
nodes = (
(511,56,o),
(406,-8,o),
(270,-8,cs),
(204,-8,o),
(131,9,o),
(57,41,c),
(85,111,l),
(144,81,o),
(213,65,o),
(270,65,cs),
(371,65,o),
(430,108,o),
(430,205,cs),
(430,305,o),
(382,342,o),
(294,344,cs),
(282,344,o),
(269,343,o),
(256,341,cs),
(212,336,o),
(160,320,o),
(135,309,c),
(86,359,l),
(122,667,l),
(468,667,l),
(468,590,l),
(188,590,l),
(164,391,l),
(204,402,o),
(268,416,o),
(300,416,cs),
(435,416,o),
(511,346,o),
(511,206,cs)
);
}
);
width = 570;
},
{
layerId = "D7C75E23-0F42-43B3-B077-EDD5C5AF94E1";
shapes = (
{
closed = 1;
nodes = (
(498,54,o),
(394,-7,o),
(268,-7,cs),
(202,-7,o),
(131,9,o),
(55,42,c),
(79,98,l),
(137,67,o),
(209,51,o),
(268,51,cs),
(378,51,o),
(442,95,o),
(442,202,cs),
(442,317,o),
(389,357,o),
(290,357,cs),
(278,357,o),
(265,355,o),
(251,353,cs),
(208,347,o),
(155,331,o),
(129,320,c),
(88,361,l),
(121,667,l),
(458,667,l),
(458,608,l),
(174,608,l),
(147,388,l),
(188,399,o),
(259,415,o),
(290,415,cs),
(428,415,o),
(498,343,o),
(498,200,cs)
);
}
);
width = 561;
}
);
unicode = 53;
},
{
glyphname = six;
layers = (
{
layerId = "668C2366-11AD-425E-A5E0-D912FEE9BD2F";
shapes = (
{
closed = 1;
nodes = (
(608,75,o),
(504,-14,o),
(312,-14,cs),
(126,-14,o),
(35,95,o),
(35,309,cs),
(35,616,o),
(188,682,o),
(359,682,cs),
(424,682,o),
(500,663,o),
(557,632,c),
(499,495,l),
(449,519,o),
(399,531,o),
(359,531,cs),
(286,531,o),
(231,472,o),
(236,381,c),
(265,416,o),
(330,441,o),
(372,441,cs),
(529,441,o),
(608,374,o),
(608,213,cs)
);
},
{
closed = 1;
nodes = (
(405,271,o),
(379,301,o),
(335,301,cs),
(290,301,o),
(259,275,o),
(243,232,c),
(257,157,o),
(283,145,o),
(325,145,cs),
(368,145,o),
(405,168,o),
(405,217,cs)
);
}
);
width = 643;
},
{
layerId = "F93FC949-FDE5-438A-B007-EFA0C245CD82";
shapes = (
{
closed = 1;
nodes = (
(526,97,o),
(448,-8,o),
(294,-8,cs),
(139,-8,o),
(63,97,o),
(63,306,cs),
(63,538,o),
(159,676,o),
(322,676,cs),
(377,676,o),
(439,660,o),
(504,630,c),
(479,559,l),
(427,587,o),
(368,603,o),
(322,603,cs),
(248,603,o),
(153,525,o),
(146,378,c),
(188,408,o),
(256,428,o),
(308,428,cs),
(437,428,o),
(526,347,o),
(526,217,cs)
);
},
{
closed = 1;
nodes = (
(444,306,o),
(390,356,o),
(295,356,cs),
(238,356,o),
(182,332,o),
(145,299,c),
(147,149,o),
(180,66,o),
(294,66,cs),
(402,66,o),
(444,134,o),
(444,218,cs)
);
}
);
width = 587;
},
{
layerId = "D7C75E23-0F42-43B3-B077-EDD5C5AF94E1";
shapes = (
{
closed = 1;
nodes = (
(509,101,o),
(437,-7,o),
(290,-7,cs),
(142,-7,o),
(69,97,o),
(69,305,cs),
(69,522,o),
(153,675,o),
(314,675,cs),
(367,675,o),
(427,659,o),
(493,629,c),
(475,572,l),
(422,600,o),
(362,617,o),
(314,617,cs),
(240,617,o),
(137,535,o),
(128,377,c),
(173,406,o),
(241,425,o),
(295,425,cs),
(418,425,o),
(509,342,o),
(509,218,cs)
);
},
{
closed = 1;
nodes = (
(452,313,o),
(392,367,o),
(287,367,cs),
(227,367,o),
(166,343,o),
(125,312,c),
(125,147,o),
(159,50,o),
(288,50,cs),
(409,50,o),
(452,127,o),
(452,218,cs)
);
}
);
width = 576;
}
);
unicode = 54;
},
{
glyphname = seven;
layers = (
{
layerId = "668C2366-11AD-425E-A5E0-D912FEE9BD2F";
shapes = (
{
closed = 1;
nodes = (
(557,561,l),
(342,0,l),
(123,0,l),
(332,486,l),
(66,486,l),
(66,667,l),
(557,667,l)
);
}
);
width = 600;
},
{
layerId = "F93FC949-FDE5-438A-B007-EFA0C245CD82";
shapes = (
{
closed = 1;
nodes = (
(527,598,l),
(244,0,l),
(154,0,l),
(436,588,l),
(70,588,l),
(70,667,l),
(527,667,l)
);
}
);
width = 576;
},
{
layerId = "D7C75E23-0F42-43B3-B077-EDD5C5AF94E1";
shapes = (
{
closed = 1;
nodes = (
(521,605,l),
(224,0,l),
(160,0,l),
(457,608,l),
(71,608,l),
(71,667,l),
(521,667,l)
);
}
);
width = 571;
}
);
unicode = 55;
},
{
glyphname = eight;
layers = (
{
layerId = "668C2366-11AD-425E-A5E0-D912FEE9BD2F";
shapes = (
{
closed = 1;
nodes = (
(32,253,o),
(71,305,o),
(147,339,c),
(90,371,o),
(52,412,o),
(52,482,cs),
(52,608,o),
(146,682,o),
(326,682,cs),
(509,682,o),
(601,603,o),
(601,482,cs),
(601,417,o),
(568,374,o),
(504,340,c),
(568,310,o),
(620,261,o),
(620,184,cs),
(620,51,o),
(509,-14,o),
(326,-14,cs),
(135,-14,o),
(32,59,o),
(32,184,cs)
);
},
{
closed = 1;
nodes = (
(394,497,o),
(367,536,o),
(326,536,cs),
(286,536,o),
(258,497,o),
(258,459,cs),
(258,420,o),
(294,388,o),
(326,388,cs),
(360,388,o),
(394,420,o),
(394,459,cs)
);
},
{
closed = 1;
nodes = (
(404,251,o),
(368,298,o),
(326,298,cs),
(283,298,o),
(249,249,o),
(249,215,cs),
(249,166,o),
(273,132,o),
(326,132,cs),
(376,132,o),
(404,165,o),
(404,215,cs)
);
}
);
width = 652;
},
{
layerId = "F93FC949-FDE5-438A-B007-EFA0C245CD82";
shapes = (
{
closed = 1;
nodes = (
(59,269,o),
(106,332,o),
(174,359,c),
(124,378,o),
(84,438,o),
(84,502,cs),
(84,603,o),
(157,676,o),
(294,676,cs),
(417,676,o),
(505,614,o),
(505,502,cs),
(505,437,o),
(462,371,o),
(417,360,c),
(487,328,o),
(530,273,o),
(530,197,cs),
(530,80,o),
(448,-8,o),
(294,-8,cs),
(162,-8,o),
(59,62,o),
(59,197,cs)
);
},
{
closed = 1;
nodes = (
(424,571,o),
(372,600,o),
(294,600,cs),
(214,600,o),
(165,570,o),
(165,500,cs),
(165,429,o),
(215,388,o),
(294,388,cs),
(374,388,o),
(424,428,o),
(424,500,cs)
);
},
{
closed = 1;
nodes = (
(448,275,o),
(391,321,o),
(294,321,cs),
(195,321,o),
(142,274,o),
(142,199,cs),
(142,128,o),
(181,65,o),
(294,65,cs),
(405,65,o),
(448,126,o),
(448,199,cs)
);
}
);
width = 587;
},
{
layerId = "D7C75E23-0F42-43B3-B077-EDD5C5AF94E1";
shapes = (
{
closed = 1;
nodes = (
(64,272,o),
(113,337,o),
(179,363,c),
(131,379,o),
(90,443,o),
(90,506,cs),
(90,602,o),
(159,675,o),
(288,675,cs),
(399,675,o),
(486,616,o),
(486,506,cs),
(486,441,o),
(441,370,o),
(400,364,c),
(471,332,o),
(512,275,o),
(512,200,cs),
(512,86,o),
(436,-7,o),
(288,-7,cs),
(167,-7,o),
(64,62,o),
(64,200,cs)
);
},
{
closed = 1;
nodes = (
(430,586,o),
(373,613,o),
(288,613,cs),
(200,613,o),
(146,584,o),
(146,508,cs),
(146,431,o),
(199,388,o),
(288,388,cs),
(377,388,o),
(430,430,o),
(430,508,cs)
);
},
{
closed = 1;
nodes = (
(457,280,o),
(395,325,o),
(288,325,cs),
(177,325,o),
(120,279,o),
(120,196,cs),
(120,120,o),
(162,52,o),
(288,52,cs),
(411,52,o),
(457,118,o),
(457,196,cs)
);
}
);
width = 574;
}
);
unicode = 56;
},
{
glyphname = nine;
layers = (
{
layerId = "668C2366-11AD-425E-A5E0-D912FEE9BD2F";
shapes = (
{
closed = 1;
nodes = (
(608,76,o),
(459,-14,o),
(281,-14,cs),
(207,-14,o),
(118,7,o),
(53,35,c),
(106,180,l),
(171,151,o),
(232,137,o),
(281,137,cs),
(359,137,o),
(409,190,o),
(409,267,cs),
(409,272,o),
(408,279,o),
(407,290,c),
(386,265,o),
(358,249,o),
(324,239,cs),
(301,232,o),
(277,227,o),
(251,227,cs),
(101,227,o),
(35,299,o),
(35,457,cs),
(35,593,o),
(141,682,o),
(311,682,cs),
(513,682,o),
(608,578,o),
(608,359,cs)
);
},
{
closed = 1;
nodes = (
(380,520,o),
(363,522,o),
(311,522,cs),
(268,522,o),
(239,496,o),
(239,451,cs),
(239,401,o),
(265,367,o),
(309,367,cs),
(362,367,o),
(390,389,o),
(400,444,c)
);
}
);
width = 646;
},
{
layerId = "F93FC949-FDE5-438A-B007-EFA0C245CD82";
shapes = (
{
closed = 1;
nodes = (
(526,133,o),
(437,-8,o),
(273,-8,cs),
(202,-8,o),
(152,7,o),
(84,41,c),
(113,113,l),
(175,79,o),
(213,65,o),
(273,65,cs),
(343,65,o),
(404,117,o),
(429,221,cs),
(434,240,o),
(438,262,o),
(441,287,c),
(392,258,o),
(348,244,o),
(292,242,cs),
(270,241,o),
(250,242,o),
(229,245,cs),
(126,262,o),
(63,337,o),
(63,451,cs),
(63,569,o),
(136,676,o),
(294,676,cs),
(447,676,o),
(526,571,o),
(526,363,cs)
);
},
{
closed = 1;
nodes = (
(438,512,o),
(413,602,o),
(294,602,cs),
(182,602,o),
(144,531,o),
(144,450,cs),
(144,361,o),
(196,312,o),
(293,312,cs),
(346,312,o),
(396,331,o),
(444,370,c)
);
}
);
width = 591;
},
{
layerId = "D7C75E23-0F42-43B3-B077-EDD5C5AF94E1";
shapes = (
{
closed = 1;
nodes = (
(509,144,o),
(433,-7,o),
(271,-7,cs),
(201,-7,o),
(159,7,o),
(90,42,c),
(114,100,l),
(176,64,o),
(209,51,o),
(271,51,cs),
(340,51,o),
(403,102,o),
(433,212,cs),
(439,234,o),
(444,259,o),
(448,286,c),
(393,256,o),
(346,243,o),
(285,243,cs),
(264,243,o),
(244,245,o),
(225,249,cs),
(131,269,o),
(69,345,o),
(69,450,cs),
(69,564,o),
(135,675,o),
(290,675,cs),
(434,675,o),
(509,569,o),
(509,364,cs)
);
},
{
closed = 1;
nodes = (
(450,510,o),
(423,618,o),
(290,618,cs),
(165,618,o),
(125,538,o),
(125,450,cs),
(125,353,o),
(182,301,o),
(290,301,cs),
(343,301,o),
(397,319,o),
(453,355,c)
);
}
);
width = 580;
}
);
unicode = 57;
},
{
glyphname = zero.zero;
layers = (
{
layerId = "668C2366-11AD-425E-A5E0-D912FEE9BD2F";
shapes = (
{
closed = 1;
nodes = (
(640,99,o),
(546,-14,o),
(337,-14,cs),
(128,-14,o),
(36,99,o),
(36,334,cs),
(36,569,o),
(127,682,o),
(337,682,cs),
(546,682,o),
(640,571,o),
(640,334,cs)
);
},
{
closed = 1;
nodes = (
(241,290,o),
(244,254,o),
(251,227,c),
(382,511,l),
(370,518,o),
(355,522,o),
(337,522,cs),
(275,522,o),
(241,472,o),
(241,334,cs)
);
},
{
closed = 1;
nodes = (
(435,371,o),
(432,402,o),
(427,429,c),
(301,152,l),
(312,147,o),
(324,145,o),
(337,145,cs),
(403,145,o),
(435,196,o),
(435,334,cs)
);
}
);
width = 675;
},
{
layerId = "F93FC949-FDE5-438A-B007-EFA0C245CD82";
shapes = (
{
closed = 1;
nodes = (
(590,102,o),
(500,-12,o),
(324,-12,cs),
(145,-12,o),
(59,106,o),
(59,332,cs),
(59,555,o),
(144,674,o),
(324,674,cs),
(502,674,o),
(590,560,o),
(590,332,cs)
);
},
{
closed = 1;
nodes = (
(139,240,o),
(153,173,o),
(183,130,c),
(421,578,l),
(395,593,o),
(363,601,o),
(324,601,cs),
(200,601,o),
(139,525,o),
(139,332,cs)
);
},
{
closed = 1;
nodes = (
(508,421,o),
(495,486,o),
(467,528,c),
(230,83,l),
(255,69,o),
(287,62,o),
(324,62,cs),
(446,62,o),
(508,135,o),
(508,332,cs)
);
}
);
width = 648;
},
{
layerId = "D7C75E23-0F42-43B3-B077-EDD5C5AF94E1";
shapes = (
{
closed = 1;
nodes = (
(580,102,o),
(491,-11,o),
(321,-11,cs),
(148,-11,o),
(63,107,o),
(63,331,cs),
(63,552,o),
(147,672,o),
(321,672,cs),
(493,672,o),
(580,558,o),
(580,331,cs)
);
},
{
closed = 1;
nodes = (
(119,230,o),
(135,157,o),
(169,111,c),
(429,591,l),
(400,608,o),
(364,617,o),
(321,617,cs),
(185,617,o),
(119,535,o),
(119,331,cs)
);
},
{
closed = 1;
nodes = (
(523,431,o),
(507,503,o),
(475,548,c),
(216,69,l),
(244,53,o),
(279,45,o),
(321,45,cs),
(455,45,o),
(523,123,o),
(523,331,cs)
);
}
);
width = 643;
}
);
},
{
glyphname = one.tf;
layers = (
{
layerId = "668C2366-11AD-425E-A5E0-D912FEE9BD2F";
shapes = (
{
closed = 1;
nodes = (
(447,169,l),
(577,169,l),
(577,0,l),
(92,0,l),
(92,169,l),
(246,169,l),
(246,486,l),
(115,431,l),
(66,573,l),
(273,667,l),
(447,667,l)
);
}
);
width = 650;
},
{
layerId = "F93FC949-FDE5-438A-B007-EFA0C245CD82";
shapes = (
{
closed = 1;
nodes = (
(380,79,l),
(563,79,l),
(563,0,l),
(109,0,l),
(109,79,l),
(299,79,l),
(299,584,l),
(139,512,l),
(109,582,l),
(301,667,l),
(380,667,l)
);
}
);
width = 650;
},
{
layerId = "D7C75E23-0F42-43B3-B077-EDD5C5AF94E1";
shapes = (
{
closed = 1;
nodes = (
(367,61,l),
(560,61,l),
(560,0,l),
(112,0,l),
(112,61,l),
(310,61,l),
(310,604,l),
(144,528,l),
(118,584,l),
(307,667,l),
(367,667,l)
);
}
);
width = 650;
}
);
},
{
glyphname = zero.dnom;
layers = (
{
layerId = "668C2366-11AD-425E-A5E0-D912FEE9BD2F";
shapes = (
{
closed = 1;
nodes = (
(15,294,o),
(70,354,o),
(190,354,cs),
(313,354,o),
(365,298,o),
(365,170,cs),
(365,45,o),
(316,-14,o),
(190,-14,cs),
(67,-14,o),
(15,46,o),
(15,170,cs)
);
},
{
closed = 1;
nodes = (
(238,170,ls),
(238,224,o),
(225,254,o),
(190,254,cs),
(160,254,o),
(141,236,o),
(141,170,cs),
(141,107,o),
(160,87,o),
(190,87,cs),
(219,87,o),
(235,106,o),
(238,153,c)
);
}
);
width = 380;
},
{
layerId = "F93FC949-FDE5-438A-B007-EFA0C245CD82";
shapes = (
{
closed = 1;
nodes = (
(46,301,o),
(93,362,o),
(190,362,cs),
(286,362,o),
(333,299,o),
(333,178,cs),
(333,57,o),
(286,-6,o),
(190,-6,cs),
(92,-6,o),
(46,57,o),
(46,178,cs)
);
},
{
closed = 1;
nodes = (
(268,178,ls),
(268,259,o),
(239,309,o),
(190,309,cs),
(138,309,o),
(111,258,o),
(111,178,cs),
(111,97,o),
(138,48,o),
(190,48,cs),
(241,48,o),
(268,99,o),
(268,176,cs)
);
}
);
width = 379;
},
{
layerId = "D7C75E23-0F42-43B3-B077-EDD5C5AF94E1";
shapes = (
{
closed = 1;
nodes = (
(52,302,o),
(98,364,o),
(190,364,cs),
(280,364,o),
(327,299,o),
(327,180,cs),
(327,59,o),
(280,-4,o),
(190,-4,cs),
(97,-4,o),
(52,59,o),
(52,180,cs)
);
},
{
closed = 1;
nodes = (
(274,266,o),
(242,320,o),
(190,320,cs),
(133,320,o),
(105,262,o),
(105,180,cs),
(105,95,o),
(134,40,o),
(190,40,cs),
(245,40,o),
(274,98,o),
(274,180,c)
);
}
);
width = 379;
}
);
},
{
glyphname = one.dnom;
layers = (
{
layerId = "668C2366-11AD-425E-A5E0-D912FEE9BD2F";
shapes = (
{
closed = 1;
nodes = (
(199,0,l),
(75,0,l),
(75,229,l),
(30,202,l),
(-19,288,l),
(92,359,l),
(199,359,l)
);
}
);
width = 254;
},
{
layerId = "F93FC949-FDE5-438A-B007-EFA0C245CD82";
shapes = (
{
closed = 1;
nodes = (
(156,1,l),
(93,1,l),
(93,276,l),
(48,249,l),
(19,296,l),
(117,360,l),
(156,360,l)
);
}
);
width = 227;
},
{
layerId = "D7C75E23-0F42-43B3-B077-EDD5C5AF94E1";
shapes = (
{
closed = 1;
nodes = (
(147,1,l),
(97,1,l),
(97,285,l),
(51,258,l),
(26,298,l),
(122,360,l),
(147,360,l)
);
}
);
width = 221;
}
);
},
{
glyphname = two.dnom;
layers = (
{
layerId = "668C2366-11AD-425E-A5E0-D912FEE9BD2F";
shapes = (
{
closed = 1;
nodes = (
(43,0,l),
(43,84,l),
(111,135,o),
(180,172,o),
(180,223,cs),
(180,249,o),
(161,266,o),
(139,266,cs),
(118,266,o),
(85,255,o),
(67,244,c),
(30,327,l),
(79,354,o),
(115,364,o),
(172,364,cs),
(258,364,o),
(308,319,o),
(308,254,cs),
(308,203,o),
(267,148,o),
(225,114,c),
(309,114,l),
(309,0,l)
);
}
);
width = 339;
},
{
layerId = "F93FC949-FDE5-438A-B007-EFA0C245CD82";
shapes = (
{
closed = 1;
nodes = (
(52,1,l),
(52,45,l),
(132,98,o),
(208,184,o),
(208,250,cs),
(208,282,o),
(184,304,o),
(148,304,cs),
(110,304,o),
(78,275,o),
(77,276,c),
(50,328,l),
(75,347,o),
(113,364,o),
(155,364,cs),
(226,364,o),
(274,320,o),
(274,254,cs),
(274,191,o),
(228,122,o),
(158,61,c),
(282,61,l),
(282,1,l)
);
}
);
width = 329;
},
{
layerId = "D7C75E23-0F42-43B3-B077-EDD5C5AF94E1";
shapes = (
{
closed = 1;
nodes = (
(54,1,l),
(54,37,l),
(136,90,o),
(214,186,o),
(214,255,cs),
(214,288,o),
(188,311,o),
(150,311,cs),
(108,311,o),
(76,279,o),
(79,282,c),
(54,328,l),
(74,345,o),
(112,364,o),
(151,364,cs),
(220,364,o),
(267,320,o),
(267,254,cs),
(267,188,o),
(220,117,o),
(145,50,c),
(276,50,l),
(276,1,l)
);
}
);
width = 327;
}
);
},
{
glyphname = three.dnom;
layers = (
{
layerId = "668C2366-11AD-425E-A5E0-D912FEE9BD2F";
shapes = (
{
closed = 1;
nodes = (
(66,103,l),
(87,89,o),
(107,82,o),
(125,82,cs),
(155,82,o),
(175,94,o),
(175,116,cs),
(175,141,o),
(157,154,o),
(123,154,cs),
(84,154,l),
(84,223,l),
(125,223,ls),
(146,223,o),
(159,230,o),
(159,251,cs),
(159,265,o),
(146,273,o),
(130,275,cs),
(125,276,o),
(120,276,o),
(115,276,cs),
(100,276,o),
(70,270,o),
(66,264,c),
(41,342,l),
(70,355,o),
(113,363,o),
(144,363,cs),
(218,363,o),
(289,327,o),
(289,264,cs),
(289,229,o),
(258,197,o),
(233,194,c),
(276,180,o),
(304,142,o),
(304,100,cs),
(304,24,o),
(229,-4,o),
(149,-4,cs),
(113,-4,o),
(67,5,o),
(34,25,c)
);
}
);
width = 334;
},
{
layerId = "F93FC949-FDE5-438A-B007-EFA0C245CD82";
shapes = (
{
closed = 1;
nodes = (
(63,71,l),
(93,58,o),
(120,52,o),
(143,52,cs),
(182,52,o),
(218,70,o),
(218,109,cs),
(218,153,o),
(174,164,o),
(124,164,cs),
(102,164,l),
(102,217,l),
(143,217,ls),
(172,217,o),
(198,233,o),
(198,267,cs),
(198,287,o),
(174,306,o),
(143,306,cs),
(136,306,o),
(130,306,o),
(124,305,cs),
(107,303,o),
(92,298,o),
(73,292,c),
(51,343,l),
(75,355,o),
(115,364,o),
(144,364,cs),
(221,364,o),
(265,323,o),
(265,268,cs),
(265,232,o),
(241,206,o),
(218,195,c),
(250,184,o),
(282,159,o),
(282,103,cs),
(282,37,o),
(232,-3,o),
(149,-3,cs),
(118,-3,o),
(81,4,o),
(42,19,c)
);
}
);
width = 324;
},
{
layerId = "D7C75E23-0F42-43B3-B077-EDD5C5AF94E1";
shapes = (
{
closed = 1;
nodes = (
(62,65,l),
(94,52,o),
(122,46,o),
(146,46,cs),
(187,46,o),
(226,65,o),
(226,108,cs),
(226,155,o),
(177,166,o),
(124,166,cs),
(105,166,l),
(105,216,l),
(146,216,ls),
(177,216,o),
(206,233,o),
(206,270,cs),
(206,291,o),
(180,312,o),
(145,312,cs),
(138,312,o),
(132,312,o),
(126,311,cs),
(108,308,o),
(96,304,o),
(74,298,c),
(53,343,l),
(76,355,o),
(115,364,o),
(144,364,cs),
(222,364,o),
(260,322,o),
(260,269,cs),
(260,233,o),
(238,208,o),
(215,195,c),
(245,185,o),
(277,162,o),
(277,103,cs),
(277,40,o),
(232,-3,o),
(149,-3,cs),
(119,-3,o),
(84,4,o),
(44,18,c)
);
}
);
width = 322;
}
);
},
{
glyphname = four.dnom;
layers = (
{
layerId = "668C2366-11AD-425E-A5E0-D912FEE9BD2F";
shapes = (
{
closed = 1;
nodes = (
(344,79,l),
(301,79,l),
(301,0,l),
(186,0,l),
(186,79,l),
(16,79,l),
(16,161,l),
(157,359,l),
(301,359,l),
(301,171,l),
(344,171,l)
);
},
{
closed = 1;
nodes = (
(186,243,l),
(131,171,l),
(186,171,l)
);
}
);
width = 354;
},
{
layerId = "F93FC949-FDE5-438A-B007-EFA0C245CD82";
shapes = (
{
closed = 1;
nodes = (
(287,92,l),
(236,92,l),
(236,1,l),
(174,1,l),
(174,92,l),
(29,92,l),
(29,151,l),
(196,360,l),
(236,360,l),
(236,147,l),
(287,147,l)
);
},
{
closed = 1;
nodes = (
(174,249,l),
(88,147,l),
(174,147,l)
);
}
);
width = 321;
},
{
layerId = "D7C75E23-0F42-43B3-B077-EDD5C5AF94E1";
shapes = (
{
closed = 1;
nodes = (
(275,95,l),
(223,95,l),
(223,1,l),
(172,1,l),
(172,95,l),
(31,95,l),
(31,149,l),
(204,360,l),
(223,360,l),
(223,142,l),
(275,142,l)
);
},
{
closed = 1;
nodes = (
(172,250,l),
(79,142,l),
(172,142,l)
);
}
);
width = 314;
}
);
},
{
glyphname = five.dnom;
layers = (
{
layerId = "668C2366-11AD-425E-A5E0-D912FEE9BD2F";
shapes = (
{
closed = 1;
nodes = (
(32,17,l),
(65,106,l),
(86,89,o),
(111,80,o),
(133,80,cs),
(166,80,o),
(184,90,o),
(184,116,cs),
(184,138,o),
(160,152,o),
(138,152,cs),
(127,152,o),
(114,147,o),
(98,137,c),
(46,175,l),
(66,350,l),
(289,350,l),
(289,254,l),
(148,254,l),
(146,226,l),
(151,227,o),
(165,227,o),
(190,227,cs),
(259,227,o),
(312,187,o),
(312,114,cs),
(312,34,o),
(252,-14,o),
(167,-14,cs),
(123,-14,o),
(84,-6,o),
(49,9,c)
);
}
);
width = 326;
},
{
layerId = "F93FC949-FDE5-438A-B007-EFA0C245CD82";
shapes = (
{
closed = 1;
nodes = (
(50,23,l),
(73,75,l),
(92,63,o),
(132,53,o),
(158,53,cs),
(194,53,o),
(222,74,o),
(222,110,cs),
(222,150,o),
(193,172,o),
(151,172,cs),
(129,172,o),
(106,166,o),
(81,155,c),
(54,193,l),
(73,359,l),
(259,359,l),
(259,302,l),
(124,302,l),
(114,216,l),
(136,221,o),
(158,225,o),
(181,225,cs),
(234,225,o),
(285,183,o),
(285,112,cs),
(285,32,o),
(235,-4,o),
(166,-4,cs),
(125,-4,o),
(87,4,o),
(52,22,cs)
);
}
);
width = 319;
},
{
layerId = "D7C75E23-0F42-43B3-B077-EDD5C5AF94E1";
shapes = (
{
closed = 1;
nodes = (
(75,69,l),
(93,58,o),
(136,47,o),
(163,47,cs),
(200,47,o),
(229,71,o),
(229,109,cs),
(229,152,o),
(199,176,o),
(153,176,cs),
(129,176,o),
(104,170,o),
(77,158,c),
(56,196,l),
(74,361,l),
(253,361,l),
(253,312,l),
(119,312,l),
(108,214,l),
(133,220,o),
(157,224,o),
(179,224,cs),
(229,224,o),
(279,182,o),
(279,111,cs),
(279,32,o),
(231,-2,o),
(166,-2,cs),
(125,-2,o),
(87,6,o),
(53,24,c)
);
}
);
width = 318;
}
);
},
{
glyphname = six.dnom;
layers = (
{
layerId = "668C2366-11AD-425E-A5E0-D912FEE9BD2F";
shapes = (
{
closed = 1;
nodes = (
(12,299,o),
(89,363,o),
(199,363,cs),
(239,363,o),
(277,355,o),
(309,340,c),
(281,262,l),
(260,275,o),
(236,282,o),
(207,282,cs),
(177,282,o),
(146,245,o),
(142,207,c),
(148,215,o),
(156,220,o),
(166,225,cs),
(181,232,o),
(202,236,o),
(227,236,cs),
(285,236,o),
(326,194,o),
(326,127,cs),
(326,41,o),
(274,-4,o),
(179,-4,cs),
(63,-4,o),
(12,43,o),
(12,165,cs)
);
},
{
closed = 1;
nodes = (
(196,149,o),
(187,165,o),
(174,165,cs),
(161,165,o),
(146,146,o),
(143,132,c),
(143,99,o),
(151,67,o),
(169,67,cs),
(184,67,o),
(196,91,o),
(196,117,cs)
);
}
);
width = 347;
},
{
layerId = "F93FC949-FDE5-438A-B007-EFA0C245CD82";
shapes = (
{
closed = 1;
nodes = (
(25,309,o),
(96,364,o),
(191,364,cs),
(224,364,o),
(247,354,o),
(279,341,c),
(259,292,l),
(237,304,o),
(215,310,o),
(194,310,cs),
(144,310,o),
(94,273,o),
(92,198,c),
(116,218,o),
(142,228,o),
(171,228,c),
(184,230,o),
(197,229,o),
(210,227,cs),
(268,216,o),
(302,175,o),
(302,119,cs),
(302,49,o),
(258,-3,o),
(178,-3,cs),
(71,-3,o),
(25,52,o),
(25,165,cs)
);
},
{
closed = 1;
nodes = (
(237,151,o),
(205,181,o),
(166,181,cs),
(127,181,o),
(99,156,o),
(90,147,c),
(90,76,o),
(126,50,o),
(168,50,cs),
(213,50,o),
(237,74,o),
(237,118,cs)
);
}
);
width = 339;
},
{
layerId = "D7C75E23-0F42-43B3-B077-EDD5C5AF94E1";
shapes = (
{
closed = 1;
nodes = (
(28,311,o),
(97,364,o),
(189,364,cs),
(221,364,o),
(241,354,o),
(273,341,c),
(254,298,l),
(232,310,o),
(211,316,o),
(191,316,cs),
(137,316,o),
(84,278,o),
(82,196,c),
(109,218,o),
(139,229,o),
(172,229,cs),
(185,229,o),
(196,227,o),
(207,225,cs),
(264,212,o),
(297,171,o),
(297,117,cs),
(297,50,o),
(255,-3,o),
(178,-3,cs),
(73,-3,o),
(28,54,o),
(28,165,cs)
);
},
{
closed = 1;
nodes = (
(245,151,o),
(208,184,o),
(164,184,cs),
(120,184,o),
(90,158,o),
(79,150,c),
(79,71,o),
(121,46,o),
(168,46,cs),
(219,46,o),
(245,70,o),
(245,118,cs)
);
}
);
width = 337;
}
);
},
{
glyphname = seven.dnom;
layers = (
{
layerId = "668C2366-11AD-425E-A5E0-D912FEE9BD2F";
shapes = (
{
closed = 1;
nodes = (
(307,302,l),
(188,0,l),
(52,0,l),
(161,247,l),
(36,247,l),
(36,359,l),
(307,359,l)
);
}
);
width = 322;
},
{
layerId = "F93FC949-FDE5-438A-B007-EFA0C245CD82";
shapes = (
{
closed = 1;
nodes = (
(285,322,l),
(142,1,l),
(75,1,l),
(207,297,l),
(40,297,l),
(40,360,l),
(285,360,l)
);
}
);
width = 315;
},
{
layerId = "D7C75E23-0F42-43B3-B077-EDD5C5AF94E1";
shapes = (
{
closed = 1;
nodes = (
(281,326,l),
(133,1,l),
(79,1,l),
(216,307,l),
(41,307,l),
(41,360,l),
(281,360,l)
);
}
);
width = 314;
}
);
},
{
glyphname = eight.dnom;
layers = (
{
layerId = "668C2366-11AD-425E-A5E0-D912FEE9BD2F";
shapes = (
{
closed = 1;
nodes = (
(6,150,o),
(38,184,o),
(78,192,c),
(47,204,o),
(20,226,o),
(20,263,cs),
(20,326,o),
(88,363,o),
(171,363,cs),
(256,363,o),
(321,328,o),
(321,263,cs),
(321,229,o),
(294,203,o),
(264,192,c),
(303,184,o),
(337,147,o),
(337,104,cs),
(337,40,o),
(267,-4,o),
(171,-4,cs),
(73,-4,o),
(6,38,o),
(6,104,cs)
);
},
{
closed = 1;
nodes = (
(205,271,o),
(190,284,o),
(171,284,cs),
(151,284,o),
(139,272,o),
(139,252,cs),
(139,230,o),
(152,217,o),
(171,217,cs),
(192,217,o),
(205,226,o),
(205,251,cs)
);
},
{
closed = 1;
nodes = (
(209,134,o),
(195,150,o),
(171,150,cs),
(148,150,o),
(132,137,o),
(132,115,cs),
(132,93,o),
(146,74,o),
(171,74,cs),
(194,74,o),
(209,87,o),
(209,115,cs)
);
}
);
width = 343;
},
{
layerId = "F93FC949-FDE5-438A-B007-EFA0C245CD82";
shapes = (
{
closed = 1;
nodes = (
(40,146,o),
(75,185,o),
(102,195,c),
(77,202,o),
(53,234,o),
(53,271,cs),
(53,315,o),
(91,364,o),
(168,364,cs),
(238,364,o),
(280,317,o),
(280,271,cs),
(280,232,o),
(261,200,o),
(233,195,c),
(263,185,o),
(295,146,o),
(295,108,cs),
(295,44,o),
(247,-3,o),
(168,-3,cs),
(86,-3,o),
(40,45,o),
(40,108,cs)
);
},
{
closed = 1;
nodes = (
(215,293,o),
(198,311,o),
(168,311,cs),
(139,311,o),
(121,291,o),
(121,262,cs),
(121,238,o),
(140,220,o),
(168,220,cs),
(192,220,o),
(215,239,o),
(215,264,cs)
);
},
{
closed = 1;
nodes = (
(229,145,o),
(199,168,o),
(168,168,cs),
(134,168,o),
(107,145,o),
(107,108,cs),
(107,75,o),
(133,49,o),
(168,49,cs),
(205,49,o),
(229,72,o),
(229,108,cs)
);
}
);
width = 333;
},
{
layerId = "D7C75E23-0F42-43B3-B077-EDD5C5AF94E1";
shapes = (
{
closed = 1;
nodes = (
(47,145,o),
(82,185,o),
(107,195,c),
(83,201,o),
(60,236,o),
(60,273,cs),
(60,313,o),
(92,364,o),
(167,364,cs),
(234,364,o),
(272,315,o),
(272,273,cs),
(272,233,o),
(254,199,o),
(227,195,c),
(255,185,o),
(286,146,o),
(286,109,cs),
(286,45,o),
(243,-3,o),
(167,-3,cs),
(88,-3,o),
(47,46,o),
(47,109,cs)
);
},
{
closed = 1;
nodes = (
(217,297,o),
(200,316,o),
(167,316,cs),
(136,316,o),
(117,295,o),
(117,264,cs),
(117,239,o),
(137,220,o),
(167,220,cs),
(192,220,o),
(217,241,o),
(217,266,cs)
);
},
{
closed = 1;
nodes = (
(233,147,o),
(200,171,o),
(167,171,cs),
(131,171,o),
(102,146,o),
(102,107,cs),
(102,71,o),
(130,44,o),
(167,44,cs),
(207,44,o),
(233,69,o),
(233,107,cs)
);
}
);
width = 331;
}
);
},
{
glyphname = nine.dnom;
layers = (
{
layerId = "668C2366-11AD-425E-A5E0-D912FEE9BD2F";
shapes = (
{
closed = 1;
nodes = (
(58,86,l),
(81,74,o),
(105,69,o),
(132,69,cs),
(167,69,o),
(196,97,o),
(197,145,c),
(187,133,o),
(174,121,o),
(157,117,cs),
(145,114,o),
(131,112,o),
(111,112,cs),
(53,112,o),
(12,156,o),
(12,223,cs),
(12,307,o),
(64,354,o),
(158,354,cs),
(277,354,o),
(327,304,o),
(327,185,cs),
(327,52,o),
(272,1,o),
(174,-11,cs),
(161,-13,o),
(146,-14,o),
(131,-14,cs),
(96,-14,o),
(77,-11,o),
(37,4,c)
);
},
{
closed = 1;
nodes = (
(197,216,l),
(197,249,o),
(188,281,o),
(166,281,cs),
(154,281,o),
(144,257,o),
(144,233,cs),
(144,209,o),
(149,196,o),
(162,190,cs),
(165,189,o),
(169,188,o),
(173,188,cs),
(178,188,o),
(190,198,o),
(194,208,c)
);
}
);
width = 349;
},
{
layerId = "F93FC949-FDE5-438A-B007-EFA0C245CD82";
shapes = (
{
closed = 1;
nodes = (
(71,71,l),
(88,61,o),
(120,52,o),
(147,52,cs),
(200,52,o),
(230,85,o),
(236,153,c),
(216,138,o),
(183,131,o),
(156,130,c),
(143,130,o),
(131,130,o),
(119,132,cs),
(63,140,o),
(28,182,o),
(28,241,cs),
(28,311,o),
(71,363,o),
(151,363,cs),
(259,363,o),
(303,304,o),
(303,195,cs),
(303,62,o),
(254,-2,o),
(156,-4,cs),
(146,-4,o),
(136,-3,o),
(126,-2,cs),
(95,0,o),
(70,8,o),
(52,17,c)
);
},
{
closed = 1;
nodes = (
(238,217,l),
(236,282,o),
(208,312,o),
(158,312,cs),
(112,312,o),
(92,280,o),
(92,242,cs),
(92,207,o),
(117,181,o),
(151,180,c),
(160,180,o),
(169,181,o),
(177,182,cs),
(198,186,o),
(222,201,o),
(237,216,cs)
);
}
);
width = 339;
},
{
layerId = "D7C75E23-0F42-43B3-B077-EDD5C5AF94E1";
shapes = (
{
closed = 1;
nodes = (
(73,68,l),
(89,58,o),
(123,48,o),
(150,48,cs),
(206,48,o),
(237,83,o),
(244,155,c),
(222,139,o),
(185,133,o),
(156,133,cs),
(143,133,o),
(131,134,o),
(120,136,cs),
(65,146,o),
(31,187,o),
(31,245,cs),
(31,312,o),
(72,365,o),
(150,365,cs),
(255,365,o),
(298,304,o),
(298,197,cs),
(298,64,o),
(250,-2,o),
(152,-2,cs),
(143,-2,o),
(134,-1,o),
(125,0,cs),
(95,3,o),
(68,12,o),
(55,20,c)
);
},
{
closed = 1;
nodes = (
(244,289,o),
(212,318,o),
(156,318,cs),
(103,318,o),
(82,284,o),
(82,244,cs),
(82,207,o),
(111,178,o),
(149,178,cs),
(159,178,o),
(169,179,o),
(178,181,cs),
(202,186,o),
(228,202,o),
(246,217,c)
);
}
);
width = 337;
}
);
},
{
glyphname = fraction;
layers = (
{
layerId = "668C2366-11AD-425E-A5E0-D912FEE9BD2F";
shapes = (
{
closed = 1;
nodes = (
(338,685,l),
(-69,-22,l),
(-193,-22,l),
(214,685,l)
);
}
);
width = 151;
},
{
layerId = "F93FC949-FDE5-438A-B007-EFA0C245CD82";
shapes = (
{
closed = 1;
nodes = (
(313,685,l),
(-94,-22,l),
(-166,-22,l),
(241,685,l)
);
}
);
width = 148;
},
{
layerId = "D7C75E23-0F42-43B3-B077-EDD5C5AF94E1";
shapes = (
{
closed = 1;
nodes = (
(308,685,l),
(-99,-22,l),
(-161,-22,l),
(246,685,l)
);
}
);
width = 147;
}
);
unicode = 8260;
},
{
glyphname = period;
layers = (
{
layerId = "668C2366-11AD-425E-A5E0-D912FEE9BD2F";
shapes = (
{
closed = 1;
nodes = (
(214,159,l),
(214,0,l),
(50,0,l),
(50,159,l)
);
}
);
width = 264;
},
{
layerId = "F93FC949-FDE5-438A-B007-EFA0C245CD82";
shapes = (
{
closed = 1;
nodes = (
(182,104,l),
(182,0,l),
(78,0,l),
(78,104,l)
);
}
);
width = 261;
},
{
layerId = "D7C75E23-0F42-43B3-B077-EDD5C5AF94E1";
shapes = (
{
closed = 1;
nodes = (
(176,93,l),
(176,0,l),
(84,0,l),
(84,93,l)
);
}
);
width = 260;
}
);
leftKerningGroup = _period;
rightKerningGroup = _period;
unicode = 46;
},
{
glyphname = comma;
layers = (
{
layerId = "2C489AF4-CB50-400B-84D0-36176F61FB51";
name = "#instance";
shapes = (
{
closed = 1;
nodes = (
(93,-65,l),
(133,-17,o),
(154,31,o),
(154,82,c),
(223,82,l),
(223,5,o),
(186,-52,o),
(139,-111,c)
);
}
);
width = 307;
},
{
layerId = "668C2366-11AD-425E-A5E0-D912FEE9BD2F";
shapes = (
{
closed = 1;
nodes = (
(46,-95,l),
(107,-36,o),
(132,27,o),
(132,98,c),
(287,98,l),
(287,-15,o),
(246,-107,o),
(157,-181,c)
);
}
);
width = 367;
},
{
layerId = "F93FC949-FDE5-438A-B007-EFA0C245CD82";
shapes = (
{
closed = 1;
nodes = (
(85,-70,l),
(129,-20,o),
(150,30,o),
(150,85,c),
(234,85,l),
(234,2,o),
(196,-61,o),
(142,-123,c)
);
}
);
width = 317;
},
{
layerId = "D7C75E23-0F42-43B3-B077-EDD5C5AF94E1";
shapes = (
{
closed = 1;
nodes = (
(93,-65,l),
(133,-17,o),
(154,31,o),
(154,82,c),
(223,82,l),
(223,5,o),
(186,-52,o),
(139,-111,c)
);
}
);
width = 307;
}
);
leftKerningGroup = _period;
rightKerningGroup = _period;
unicode = 44;
},
{
glyphname = colon;
layers = (
{
layerId = "668C2366-11AD-425E-A5E0-D912FEE9BD2F";
shapes = (
{
closed = 1;
nodes = (
(245,444,l),
(245,296,l),
(91,296,l),
(91,444,l)
);
},
{
closed = 1;
nodes = (
(245,179,l),
(245,31,l),
(91,31,l),
(91,179,l)
);
}
);
width = 336;
},
{
layerId = "F93FC949-FDE5-438A-B007-EFA0C245CD82";
shapes = (
{
closed = 1;
nodes = (
(196,443,l),
(196,354,l),
(107,354,l),
(107,443,l)
);
},
{
closed = 1;
nodes = (
(196,133,l),
(196,44,l),
(107,44,l),
(107,133,l)
);
}
);
width = 303;
},
{
layerId = "D7C75E23-0F42-43B3-B077-EDD5C5AF94E1";
shapes = (
{
closed = 1;
nodes = (
(186,443,l),
(186,365,l),
(110,365,l),
(110,443,l)
);
},
{
closed = 1;
nodes = (
(186,124,l),
(186,47,l),
(110,47,l),
(110,124,l)
);
}
);
width = 296;
}
);
unicode = 58;
},
{
glyphname = semicolon;
layers = (
{
layerId = "668C2366-11AD-425E-A5E0-D912FEE9BD2F";
shapes = (
{
closed = 1;
nodes = (
(270,425,l),
(270,266,l),
(105,266,l),
(105,425,l)
);
},
{
closed = 1;
nodes = (
(28,-95,l),
(85,-40,o),
(114,25,o),
(114,98,c),
(269,98,l),
(269,-16,o),
(230,-107,o),
(139,-181,c)
);
}
);
width = 319;
},
{
layerId = "F93FC949-FDE5-438A-B007-EFA0C245CD82";
shapes = (
{
closed = 1;
nodes = (
(210,440,l),
(210,336,l),
(105,336,l),
(105,440,l)
);
},
{
closed = 1;
nodes = (
(46,-70,l),
(89,-22,o),
(112,29,o),
(112,85,c),
(195,85,l),
(195,3,o),
(159,-62,o),
(102,-123,c)
);
}
);
width = 287;
},
{
layerId = "D7C75E23-0F42-43B3-B077-EDD5C5AF94E1";
shapes = (
{
closed = 1;
nodes = (
(198,443,l),
(198,350,l),
(105,350,l),
(105,443,l)
);
},
{
closed = 1;
nodes = (
(49,-65,l),
(90,-18,o),
(111,30,o),
(111,82,c),
(180,82,l),
(180,7,o),
(145,-53,o),
(95,-111,c)
);
}
);
width = 281;
}
);
unicode = 59;
},
{
glyphname = ellipsis;
layers = (
{
layerId = "668C2366-11AD-425E-A5E0-D912FEE9BD2F";
shapes = (
{
closed = 1;
nodes = (
(252,139,l),
(252,0,l),
(107,0,l),
(107,139,l)
);
},
{
closed = 1;
nodes = (
(514,139,l),
(514,0,l),
(370,0,l),
(370,139,l)
);
},
{
closed = 1;
nodes = (
(764,139,l),
(764,0,l),
(619,0,l),
(619,139,l)
);
}
);
width = 876;
},
{
layerId = "F93FC949-FDE5-438A-B007-EFA0C245CD82";
shapes = (
{
closed = 1;
nodes = (
(192,84,l),
(192,0,l),
(107,0,l),
(107,84,l)
);
},
{
closed = 1;
nodes = (
(395,84,l),
(395,0,l),
(312,0,l),
(312,84,l)
);
},
{
closed = 1;
nodes = (
(597,84,l),
(597,0,l),
(514,0,l),
(514,84,l)
);
}
);
width = 713;
},
{
layerId = "D7C75E23-0F42-43B3-B077-EDD5C5AF94E1";
shapes = (
{
closed = 1;
nodes = (
(180,73,l),
(180,0,l),
(107,0,l),
(107,73,l)
);
},
{
closed = 1;
nodes = (
(371,73,l),
(371,0,l),
(300,0,l),
(300,73,l)
);
},
{
closed = 1;
nodes = (
(564,73,l),
(564,0,l),
(493,0,l),
(493,73,l)
);
}
);
width = 680;
}
);
leftKerningGroup = _period;
rightKerningGroup = _period;
unicode = 8230;
},
{
glyphname = exclam;
layers = (
{
layerId = "668C2366-11AD-425E-A5E0-D912FEE9BD2F";
shapes = (
{
closed = 1;
nodes = (
(316,667,l),
(292,220,l),
(153,220,l),
(130,667,l)
);
},
{
closed = 1;
nodes = (
(307,141,l),
(307,0,l),
(144,0,l),
(144,141,l)
);
}
);
width = 431;
},
{
layerId = "F93FC949-FDE5-438A-B007-EFA0C245CD82";
shapes = (
{
closed = 1;
nodes = (
(235,667,l),
(225,181,l),
(156,181,l),
(146,667,l)
);
},
{
closed = 1;
nodes = (
(240,100,l),
(240,0,l),
(141,0,l),
(141,100,l)
);
}
);
width = 376;
},
{
layerId = "D7C75E23-0F42-43B3-B077-EDD5C5AF94E1";
shapes = (
{
closed = 1;
nodes = (
(219,667,l),
(212,173,l),
(156,173,l),
(149,667,l)
);
},
{
closed = 1;
nodes = (
(226,92,l),
(226,0,l),
(140,0,l),
(140,92,l)
);
}
);
width = 365;
}
);
unicode = 33;
},
{
glyphname = exclamdown;
layers = (
{
layerId = "668C2366-11AD-425E-A5E0-D912FEE9BD2F";
shapes = (
{
closed = 1;
nodes = (
(134,499,l),
(297,499,l),
(297,358,l),
(134,358,l)
);
},
{
closed = 1;
nodes = (
(149,279,l),
(288,279,l),
(311,-168,l),
(125,-168,l)
);
}
);
width = 435;
},
{
layerId = "F93FC949-FDE5-438A-B007-EFA0C245CD82";
shapes = (
{
closed = 1;
nodes = (
(134,499,l),
(233,499,l),
(233,399,l),
(134,399,l)
);
},
{
closed = 1;
nodes = (
(148,318,l),
(217,318,l),
(228,-168,l),
(138,-168,l)
);
}
);
width = 368;
},
{
layerId = "D7C75E23-0F42-43B3-B077-EDD5C5AF94E1";
shapes = (
{
closed = 1;
nodes = (
(134,499,l),
(220,499,l),
(220,407,l),
(134,407,l)
);
},
{
closed = 1;
nodes = (
(148,326,l),
(203,326,l),
(211,-168,l),
(141,-168,l)
);
}
);
width = 354;
}
);
unicode = 161;
},
{
glyphname = question;
layers = (
{
layerId = "668C2366-11AD-425E-A5E0-D912FEE9BD2F";
shapes = (
{
closed = 1;
nodes = (
(497,378,o),
(445,371,o),
(358,284,c),
(339,267,o),
(330,252,o),
(330,232,cs),
(330,205,l),
(179,205,l),
(179,230,l),
(182,319,o),
(206,352,o),
(257,403,cs),
(289,435,o),
(306,456,o),
(306,489,cs),
(306,532,o),
(277,545,o),
(244,545,cs),
(197,545,o),
(138,525,o),
(105,505,c),
(48,648,l),
(107,677,o),
(181,697,o),
(244,697,cs),
(398,697,o),
(502,610,o),
(502,489,c)
);
},
{
closed = 1;
nodes = (
(177,141,l),
(340,141,l),
(340,0,l),
(177,0,l)
);
}
);
width = 525;
},
{
layerId = "F93FC949-FDE5-438A-B007-EFA0C245CD82";
shapes = (
{
closed = 1;
nodes = (
(422,394,o),
(330,349,o),
(282,285,cs),
(269,267,o),
(263,247,o),
(263,223,cs),
(263,178,l),
(185,178,l),
(185,228,ls),
(185,288,o),
(211,321,o),
(269,380,cs),
(317,429,o),
(343,458,o),
(343,504,cs),
(343,563,o),
(297,603,o),
(217,603,cs),
(169,603,o),
(110,584,o),
(59,558,c),
(28,626,l),
(91,660,o),
(156,677,o),
(217,677,cs),
(327,677,o),
(423,619,o),
(423,504,c)
);
},
{
closed = 1;
nodes = (
(175,100,l),
(273,100,l),
(273,0,l),
(175,0,l)
);
}
);
width = 488;
},
{
layerId = "D7C75E23-0F42-43B3-B077-EDD5C5AF94E1";
shapes = (
{
closed = 1;
nodes = (
(407,397,o),
(307,345,o),
(267,285,cs),
(255,267,o),
(249,246,o),
(249,221,cs),
(249,173,l),
(186,173,l),
(186,227,ls),
(186,282,o),
(212,315,o),
(271,375,cs),
(323,428,o),
(350,458,o),
(350,507,cs),
(350,569,o),
(301,614,o),
(211,614,cs),
(163,614,o),
(104,596,o),
(50,568,c),
(24,622,l),
(88,656,o),
(151,673,o),
(211,673,cs),
(313,673,o),
(407,621,o),
(407,507,cs)
);
},
{
closed = 1;
nodes = (
(174,92,l),
(260,92,l),
(260,0,l),
(174,0,l)
);
}
);
width = 480;
}
);
unicode = 63;
},
{
glyphname = questiondown;
layers = (
{
layerId = "668C2366-11AD-425E-A5E0-D912FEE9BD2F";
shapes = (
{
closed = 1;
nodes = (
(211,358,l),
(211,499,l),
(374,499,l),
(374,358,l)
);
},
{
closed = 1;
nodes = (
(55,100,o),
(95,138,o),
(158,186,cs),
(198,216,o),
(221,235,o),
(221,267,cs),
(221,294,l),
(372,294,l),
(372,269,l),
(368,164,o),
(335,149,o),
(276,78,c),
(257,55,o),
(245,37,o),
(245,10,cs),
(245,-32,o),
(273,-46,o),
(307,-46,cs),
(354,-46,o),
(413,-26,o),
(446,-6,c),
(504,-149,l),
(444,-178,o),
(370,-198,o),
(307,-198,cs),
(152,-198,o),
(50,-110,o),
(50,10,c)
);
}
);
width = 524;
},
{
layerId = "F93FC949-FDE5-438A-B007-EFA0C245CD82";
shapes = (
{
closed = 1;
nodes = (
(210,399,l),
(210,499,l),
(309,499,l),
(309,399,l)
);
},
{
closed = 1;
nodes = (
(61,68,o),
(91,101,o),
(150,157,cs),
(196,202,o),
(221,226,o),
(221,276,cs),
(221,321,l),
(299,321,l),
(299,272,l),
(298,205,o),
(271,182,o),
(212,116,c),
(163,67,o),
(141,39,o),
(141,-5,cs),
(141,-64,o),
(185,-104,o),
(267,-104,cs),
(315,-104,o),
(374,-84,o),
(424,-58,c),
(456,-127,l),
(392,-160,o),
(328,-177,o),
(267,-177,cs),
(151,-177,o),
(60,-119,o),
(60,-5,cs)
);
}
);
width = 488;
},
{
layerId = "D7C75E23-0F42-43B3-B077-EDD5C5AF94E1";
shapes = (
{
closed = 1;
nodes = (
(210,407,l),
(210,499,l),
(296,499,l),
(296,407,l)
);
},
{
closed = 1;
nodes = (
(62,61,o),
(90,94,o),
(148,151,cs),
(196,199,o),
(221,224,o),
(221,278,cs),
(221,326,l),
(284,326,l),
(284,272,ls),
(284,213,o),
(258,189,o),
(199,124,c),
(144,69,o),
(120,39,o),
(120,-8,cs),
(120,-70,o),
(167,-115,o),
(259,-115,cs),
(307,-115,o),
(366,-96,o),
(419,-68,c),
(446,-123,l),
(381,-156,o),
(319,-173,o),
(259,-173,cs),
(151,-173,o),
(62,-121,o),
(62,-8,cs)
);
}
);
width = 481;
}
);
unicode = 191;
},
{
glyphname = middot;
layers = (
{
layerId = "668C2366-11AD-425E-A5E0-D912FEE9BD2F";
shapes = (
{
closed = 1;
nodes = (
(249,344,l),
(249,205,l),
(105,205,l),
(105,344,l)
);
}
);
width = 363;
},
{
layerId = "F93FC949-FDE5-438A-B007-EFA0C245CD82";
shapes = (
{
closed = 1;
nodes = (
(199,314,l),
(199,230,l),
(115,230,l),
(115,314,l)
);
}
);
width = 315;
},
{
layerId = "D7C75E23-0F42-43B3-B077-EDD5C5AF94E1";
shapes = (
{
closed = 1;
nodes = (
(189,308,l),
(189,235,l),
(117,235,l),
(117,308,l)
);
}
);
width = 305;
}
);
unicode = 183;
},
{
glyphname = bullet;
layers = (
{
layerId = "668C2366-11AD-425E-A5E0-D912FEE9BD2F";
shapes = (
{
closed = 1;
nodes = (
(323,561,l),
(523,324,l),
(323,85,l),
(78,85,l),
(78,561,l)
);
}
);
width = 531;
},
{
layerId = "F93FC949-FDE5-438A-B007-EFA0C245CD82";
shapes = (
{
closed = 1;
nodes = (
(246,465,l),
(363,325,l),
(246,183,l),
(105,183,l),
(105,465,l)
);
}
);
width = 424;
},
{
layerId = "D7C75E23-0F42-43B3-B077-EDD5C5AF94E1";
shapes = (
{
closed = 1;
nodes = (
(230,446,l),
(331,325,l),
(230,203,l),
(110,203,l),
(110,446,l)
);
}
);
width = 402;
}
);
unicode = 8226;
},
{
glyphname = asterisk;
layers = (
{
layerId = "668C2366-11AD-425E-A5E0-D912FEE9BD2F";
shapes = (
{
closed = 1;
nodes = (
(366,584,l),
(262,565,l),
(337,487,l),
(257,430,l),
(202,531,l),
(147,429,l),
(68,488,l),
(144,568,l),
(44,586,l),
(75,679,l),
(168,635,l),
(155,738,l),
(253,737,l),
(239,631,l),
(337,678,l)
);
}
);
width = 412;
},
{
layerId = "F93FC949-FDE5-438A-B007-EFA0C245CD82";
shapes = (
{
closed = 1;
nodes = (
(354,586,l),
(254,558,l),
(319,478,l),
(265,437,l),
(207,526,l),
(149,437,l),
(93,475,l),
(158,556,l),
(61,583,l),
(78,647,l),
(176,611,l),
(171,713,l),
(238,715,l),
(233,613,l),
(330,649,l)
);
}
);
width = 411;
},
{
layerId = "D7C75E23-0F42-43B3-B077-EDD5C5AF94E1";
shapes = (
{
closed = 1;
nodes = (
(351,586,l),
(252,557,l),
(315,476,l),
(267,438,l),
(208,525,l),
(149,438,l),
(98,472,l),
(161,554,l),
(64,582,l),
(79,641,l),
(177,606,l),
(174,708,l),
(235,711,l),
(232,609,l),
(329,643,l)
);
}
);
width = 411;
}
);
unicode = 42;
},
{
glyphname = numbersign;
layers = (
{
layerId = "668C2366-11AD-425E-A5E0-D912FEE9BD2F";
shapes = (
{
closed = 1;
nodes = (
(80,123,l),
(80,232,l),
(184,232,l),
(210,375,l),
(113,375,l),
(113,484,l),
(228,484,l),
(250,607,l),
(367,607,l),
(344,484,l),
(472,484,l),
(495,607,l),
(610,607,l),
(588,484,l),
(661,484,l),
(661,375,l),
(570,375,l),
(545,232,l),
(630,232,l),
(630,123,l),
(526,123,l),
(505,-1,l),
(390,-1,l),
(412,123,l),
(280,123,l),
(262,-1,l),
(145,-1,l),
(168,123,l)
);
},
{
closed = 1;
nodes = (
(453,375,l),
(325,375,l),
(299,232,l),
(432,232,l)
);
}
);
width = 741;
},
{
layerId = "F93FC949-FDE5-438A-B007-EFA0C245CD82";
shapes = (
{
closed = 1;
nodes = (
(80,129,l),
(80,205,l),
(191,205,l),
(223,393,l),
(114,393,l),
(114,468,l),
(236,468,l),
(260,610,l),
(337,610,l),
(313,468,l),
(471,468,l),
(496,610,l),
(573,610,l),
(548,468,l),
(634,468,l),
(634,393,l),
(536,393,l),
(503,205,l),
(599,205,l),
(599,129,l),
(490,129,l),
(468,0,l),
(391,0,l),
(413,129,l),
(255,129,l),
(232,0,l),
(155,0,l),
(178,129,l)
);
},
{
closed = 1;
nodes = (
(459,393,l),
(300,393,l),
(267,205,l),
(425,205,l)
);
}
);
width = 714;
},
{
layerId = "D7C75E23-0F42-43B3-B077-EDD5C5AF94E1";
shapes = (
{
closed = 1;
nodes = (
(80,130,l),
(80,199,l),
(192,199,l),
(226,396,l),
(114,396,l),
(114,465,l),
(238,465,l),
(262,610,l),
(331,610,l),
(307,465,l),
(471,465,l),
(496,610,l),
(565,610,l),
(540,465,l),
(629,465,l),
(629,396,l),
(529,396,l),
(494,199,l),
(593,199,l),
(593,130,l),
(483,130,l),
(460,0,l),
(391,0,l),
(413,130,l),
(250,130,l),
(226,0,l),
(157,0,l),
(180,130,l)
);
},
{
closed = 1;
nodes = (
(460,396,l),
(295,396,l),
(261,199,l),
(424,199,l)
);
}
);
width = 709;
}
);
unicode = 35;
},
{
glyphname = slash;
layers = (
{
layerId = "668C2366-11AD-425E-A5E0-D912FEE9BD2F";
shapes = (
{
closed = 1;
nodes = (
(478,756,l),
(110,-98,l),
(-14,-98,l),
(353,756,l)
);
}
);
width = 463;
},
{
layerId = "F93FC949-FDE5-438A-B007-EFA0C245CD82";
shapes = (
{
closed = 1;
nodes = (
(423,756,l),
(55,-98,l),
(-14,-98,l),
(353,756,l)
);
}
);
width = 408;
},
{
layerId = "D7C75E23-0F42-43B3-B077-EDD5C5AF94E1";
shapes = (
{
closed = 1;
nodes = (
(412,756,l),
(44,-98,l),
(-14,-98,l),
(353,756,l)
);
}
);
width = 397;
}
);
unicode = 47;
},
{
glyphname = backslash;
layers = (
{
layerId = "668C2366-11AD-425E-A5E0-D912FEE9BD2F";
shapes = (
{
closed = 1;
nodes = (
(88,756,l),
(455,-98,l),
(331,-98,l),
(-37,756,l)
);
}
);
width = 430;
},
{
layerId = "F93FC949-FDE5-438A-B007-EFA0C245CD82";
shapes = (
{
closed = 1;
nodes = (
(33,756,l),
(400,-98,l),
(331,-98,l),
(-37,756,l)
);
}
);
width = 373;
},
{
layerId = "D7C75E23-0F42-43B3-B077-EDD5C5AF94E1";
shapes = (
{
closed = 1;
nodes = (
(22,756,l),
(389,-98,l),
(331,-98,l),
(-37,756,l)
);
}
);
width = 361;
}
);
unicode = 92;
},
{
glyphname = period.ss01;
layers = (
{
layerId = "668C2366-11AD-425E-A5E0-D912FEE9BD2F";
shapes = (
{
closed = 1;
nodes = (
(54,132,o),
(98,175,o),
(151,175,cs),
(203,175,o),
(248,132,o),
(248,79,cs),
(248,25,o),
(203,-19,o),
(151,-19,cs),
(98,-19,o),
(54,24,o),
(54,79,cs)
);
}
);
width = 301;
},
{
layerId = "F93FC949-FDE5-438A-B007-EFA0C245CD82";
shapes = (
{
closed = 1;
nodes = (
(74,84,o),
(101,110,o),
(133,110,cs),
(163,110,o),
(191,83,o),
(191,52,cs),
(191,18,o),
(163,-7,o),
(133,-7,cs),
(99,-7,o),
(74,18,o),
(74,52,cs)
);
}
);
width = 264;
},
{
layerId = "D7C75E23-0F42-43B3-B077-EDD5C5AF94E1";
shapes = (
{
closed = 1;
nodes = (
(78,74,o),
(102,97,o),
(129,97,cs),
(155,97,o),
(179,73,o),
(179,47,cs),
(179,17,o),
(155,-5,o),
(129,-5,cs),
(99,-5,o),
(78,17,o),
(78,47,cs)
);
}
);
width = 256;
}
);
leftKerningGroup = _period;
rightKerningGroup = _period;
},
{
glyphname = colon.ss01;
layers = (
{
layerId = "668C2366-11AD-425E-A5E0-D912FEE9BD2F";
shapes = (
{
closed = 1;
nodes = (
(91,403,o),
(129,442,o),
(178,442,cs),
(225,442,o),
(264,404,o),
(264,356,cs),
(264,309,o),
(226,269,o),
(178,269,cs),
(132,269,o),
(91,309,o),
(91,356,cs)
);
},
{
closed = 1;
nodes = (
(91,161,o),
(129,200,o),
(178,200,cs),
(225,200,o),
(264,162,o),
(264,114,cs),
(264,67,o),
(226,27,o),
(178,27,cs),
(132,27,o),
(91,67,o),
(91,114,cs)
);
}
);
width = 355;
},
{
layerId = "F93FC949-FDE5-438A-B007-EFA0C245CD82";
shapes = (
{
closed = 1;
nodes = (
(107,419,o),
(132,445,o),
(163,445,cs),
(192,445,o),
(218,418,o),
(218,389,cs),
(218,358,o),
(193,333,o),
(163,333,cs),
(131,333,o),
(107,357,o),
(107,389,cs)
);
},
{
closed = 1;
nodes = (
(107,119,o),
(132,144,o),
(163,144,cs),
(192,144,o),
(218,118,o),
(218,89,cs),
(218,58,o),
(193,33,o),
(163,33,cs),
(131,33,o),
(107,57,o),
(107,89,cs)
);
}
);
width = 325;
},
{
layerId = "D7C75E23-0F42-43B3-B077-EDD5C5AF94E1";
shapes = (
{
closed = 1;
nodes = (
(110,422,o),
(132,445,o),
(160,445,cs),
(185,445,o),
(209,421,o),
(209,396,cs),
(209,368,o),
(186,346,o),
(160,346,cs),
(131,346,o),
(110,367,o),
(110,396,cs)
);
},
{
closed = 1;
nodes = (
(110,110,o),
(132,133,o),
(160,133,cs),
(185,133,o),
(209,109,o),
(209,84,cs),
(209,56,o),
(186,34,o),
(160,34,cs),
(131,34,o),
(110,55,o),
(110,84,cs)
);
}
);
width = 319;
}
);
},
{
glyphname = semicolon.ss01;
layers = (
{
layerId = "668C2366-11AD-425E-A5E0-D912FEE9BD2F";
shapes = (
{
closed = 1;
nodes = (
(76,392,o),
(121,436,o),
(170,436,cs),
(219,436,o),
(263,392,o),
(263,343,cs),
(263,293,o),
(218,249,o),
(170,249,cs),
(119,249,o),
(76,292,o),
(76,343,cs)
);
},
{
closed = 1;
nodes = (
(5,-95,l),
(66,-36,o),
(91,27,o),
(91,98,c),
(246,98,l),
(246,-16,o),
(207,-107,o),
(116,-181,c)
);
}
);
width = 343;
},
{
layerId = "F93FC949-FDE5-438A-B007-EFA0C245CD82";
shapes = (
{
closed = 1;
nodes = (
(99,418,o),
(124,444,o),
(155,444,cs),
(185,444,o),
(211,418,o),
(211,389,cs),
(211,357,o),
(185,332,o),
(155,332,cs),
(123,332,o),
(99,357,o),
(99,389,cs)
);
},
{
closed = 1;
nodes = (
(44,-70,l),
(88,-20,o),
(109,30,o),
(109,85,c),
(193,85,l),
(193,2,o),
(155,-61,o),
(101,-123,c)
);
}
);
width = 294;
},
{
layerId = "D7C75E23-0F42-43B3-B077-EDD5C5AF94E1";
shapes = (
{
closed = 1;
nodes = (
(103,423,o),
(124,446,o),
(152,446,cs),
(178,446,o),
(201,423,o),
(201,398,cs),
(201,370,o),
(178,348,o),
(152,348,cs),
(124,348,o),
(103,370,o),
(103,398,cs)
);
},
{
closed = 1;
nodes = (
(52,-65,l),
(92,-17,o),
(113,31,o),
(113,82,c),
(182,82,l),
(182,5,o),
(145,-52,o),
(98,-111,c)
);
}
);
width = 284;
}
);
},
{
glyphname = exclam.ss01;
layers = (
{
layerId = "668C2366-11AD-425E-A5E0-D912FEE9BD2F";
shapes = (
{
closed = 1;
nodes = (
(325,667,l),
(301,220,l),
(162,220,l),
(139,667,l)
);
},
{
closed = 1;
nodes = (
(133,123,o),
(178,167,o),
(230,167,cs),
(283,167,o),
(327,122,o),
(327,70,cs),
(327,16,o),
(282,-28,o),
(230,-28,cs),
(177,-28,o),
(133,16,o),
(133,70,cs)
);
}
);
width = 443;
},
{
layerId = "F93FC949-FDE5-438A-B007-EFA0C245CD82";
shapes = (
{
closed = 1;
nodes = (
(244,667,l),
(234,181,l),
(165,181,l),
(155,667,l)
);
},
{
closed = 1;
nodes = (
(140,82,o),
(166,110,o),
(198,110,cs),
(229,110,o),
(256,82,o),
(256,52,cs),
(256,18,o),
(229,-8,o),
(198,-8,cs),
(166,-8,o),
(140,19,o),
(140,52,cs)
);
}
);
width = 393;
},
{
layerId = "D7C75E23-0F42-43B3-B077-EDD5C5AF94E1";
shapes = (
{
closed = 1;
nodes = (
(228,667,l),
(221,173,l),
(165,173,l),
(158,667,l)
);
},
{
closed = 1;
nodes = (
(141,74,o),
(164,98,o),
(192,98,cs),
(218,98,o),
(242,74,o),
(242,48,cs),
(242,18,o),
(218,-4,o),
(192,-4,cs),
(164,-4,o),
(141,19,o),
(141,48,cs)
);
}
);
width = 383;
}
);
},
{
glyphname = exclamdown.ss01;
layers = (
{
layerId = "668C2366-11AD-425E-A5E0-D912FEE9BD2F";
shapes = (
{
closed = 1;
nodes = (
(327,377,o),
(283,332,o),
(229,332,cs),
(176,332,o),
(133,377,o),
(133,429,cs),
(133,482,o),
(175,527,o),
(229,527,cs),
(282,527,o),
(327,485,o),
(327,429,cs)
);
},
{
closed = 1;
nodes = (
(159,279,l),
(298,279,l),
(321,-168,l),
(134,-168,l)
);
}
);
width = 443;
},
{
layerId = "F93FC949-FDE5-438A-B007-EFA0C245CD82";
shapes = (
{
closed = 1;
nodes = (
(256,416,o),
(229,390,o),
(197,390,cs),
(166,390,o),
(140,416,o),
(140,447,cs),
(140,480,o),
(165,507,o),
(197,507,cs),
(230,507,o),
(256,480,o),
(256,447,cs)
);
},
{
closed = 1;
nodes = (
(162,318,l),
(231,318,l),
(241,-168,l),
(152,-168,l)
);
}
);
width = 393;
},
{
layerId = "D7C75E23-0F42-43B3-B077-EDD5C5AF94E1";
shapes = (
{
closed = 1;
nodes = (
(242,424,o),
(218,401,o),
(191,401,cs),
(164,401,o),
(141,424,o),
(141,451,cs),
(141,479,o),
(163,503,o),
(191,503,cs),
(219,503,o),
(242,479,o),
(242,451,cs)
);
},
{
closed = 1;
nodes = (
(162,326,l),
(218,326,l),
(225,-168,l),
(155,-168,l)
);
}
);
width = 383;
}
);
},
{
glyphname = question.ss01;
layers = (
{
layerId = "668C2366-11AD-425E-A5E0-D912FEE9BD2F";
shapes = (
{
closed = 1;
nodes = (
(497,378,o),
(445,371,o),
(358,284,c),
(339,267,o),
(330,252,o),
(330,232,cs),
(330,205,l),
(179,205,l),
(179,230,l),
(182,319,o),
(206,352,o),
(257,403,cs),
(289,435,o),
(306,456,o),
(306,489,cs),
(306,532,o),
(277,545,o),
(244,545,cs),
(197,545,o),
(138,525,o),
(105,505,c),
(48,648,l),
(107,677,o),
(181,697,o),
(244,697,cs),
(398,697,o),
(502,610,o),
(502,489,c)
);
},
{
closed = 1;
nodes = (
(156,123,o),
(201,167,o),
(253,167,cs),
(306,167,o),
(350,122,o),
(350,70,cs),
(350,16,o),
(305,-28,o),
(253,-28,cs),
(200,-28,o),
(156,16,o),
(156,70,cs)
);
}
);
width = 525;
},
{
layerId = "F93FC949-FDE5-438A-B007-EFA0C245CD82";
shapes = (
{
closed = 1;
nodes = (
(422,394,o),
(330,349,o),
(282,285,cs),
(269,267,o),
(263,247,o),
(263,223,cs),
(263,178,l),
(185,178,l),
(185,228,ls),
(185,288,o),
(211,321,o),
(269,380,cs),
(317,429,o),
(343,458,o),
(343,504,cs),
(343,563,o),
(297,603,o),
(217,603,cs),
(169,603,o),
(110,584,o),
(59,558,c),
(28,626,l),
(91,660,o),
(156,677,o),
(217,677,cs),
(327,677,o),
(423,619,o),
(423,504,c)
);
},
{
closed = 1;
nodes = (
(166,82,o),
(192,110,o),
(226,110,cs),
(256,110,o),
(283,82,o),
(283,52,cs),
(283,18,o),
(256,-8,o),
(226,-8,cs),
(193,-8,o),
(166,19,o),
(166,52,cs)
);
}
);
width = 488;
},
{
layerId = "D7C75E23-0F42-43B3-B077-EDD5C5AF94E1";
shapes = (
{
closed = 1;
nodes = (
(407,397,o),
(307,345,o),
(267,285,cs),
(255,267,o),
(249,246,o),
(249,221,cs),
(249,173,l),
(186,173,l),
(186,227,ls),
(186,282,o),
(212,315,o),
(271,375,cs),
(323,428,o),
(350,458,o),
(350,507,cs),
(350,569,o),
(301,614,o),
(211,614,cs),
(163,614,o),
(104,596,o),
(50,568,c),
(24,622,l),
(88,656,o),
(151,673,o),
(211,673,cs),
(313,673,o),
(407,621,o),
(407,507,cs)
);
},
{
closed = 1;
nodes = (
(168,74,o),
(190,98,o),
(220,98,cs),
(246,98,o),
(270,74,o),
(270,48,cs),
(270,18,o),
(246,-4,o),
(220,-4,cs),
(191,-4,o),
(168,19,o),
(168,48,cs)
);
}
);
width = 480;
}
);
},
{
glyphname = questiondown.ss01;
layers = (
{
layerId = "668C2366-11AD-425E-A5E0-D912FEE9BD2F";
shapes = (
{
closed = 1;
nodes = (
(396,377,o),
(352,332,o),
(298,332,cs),
(245,332,o),
(201,377,o),
(201,429,cs),
(201,483,o),
(246,527,o),
(298,527,cs),
(351,527,o),
(396,485,o),
(396,429,cs)
);
},
{
closed = 1;
nodes = (
(55,100,o),
(95,138,o),
(158,186,cs),
(198,216,o),
(221,235,o),
(221,267,cs),
(221,294,l),
(372,294,l),
(372,269,l),
(368,164,o),
(335,149,o),
(276,78,c),
(257,55,o),
(245,37,o),
(245,10,cs),
(245,-32,o),
(273,-46,o),
(307,-46,cs),
(354,-46,o),
(413,-26,o),
(446,-6,c),
(504,-149,l),
(444,-178,o),
(370,-198,o),
(307,-198,cs),
(152,-198,o),
(50,-110,o),
(50,10,c)
);
}
);
width = 524;
},
{
layerId = "F93FC949-FDE5-438A-B007-EFA0C245CD82";
shapes = (
{
closed = 1;
nodes = (
(317,416,o),
(290,390,o),
(258,390,cs),
(227,390,o),
(200,416,o),
(200,447,cs),
(200,480,o),
(226,507,o),
(258,507,cs),
(290,507,o),
(317,480,o),
(317,447,cs)
);
},
{
closed = 1;
nodes = (
(61,68,o),
(91,101,o),
(150,157,cs),
(196,202,o),
(221,226,o),
(221,276,cs),
(221,321,l),
(299,321,l),
(299,272,l),
(298,205,o),
(271,182,o),
(212,116,c),
(163,67,o),
(141,39,o),
(141,-5,cs),
(141,-64,o),
(185,-104,o),
(267,-104,cs),
(315,-104,o),
(374,-84,o),
(424,-58,c),
(456,-127,l),
(392,-160,o),
(328,-177,o),
(267,-177,cs),
(151,-177,o),
(60,-119,o),
(60,-5,cs)
);
}
);
width = 488;
},
{
layerId = "D7C75E23-0F42-43B3-B077-EDD5C5AF94E1";
shapes = (
{
closed = 1;
nodes = (
(301,424,o),
(277,401,o),
(250,401,cs),
(223,401,o),
(200,424,o),
(200,451,cs),
(200,479,o),
(222,503,o),
(250,503,cs),
(278,503,o),
(301,479,o),
(301,451,cs)
);
},
{
closed = 1;
nodes = (
(62,61,o),
(90,94,o),
(148,151,cs),
(196,199,o),
(221,224,o),
(221,278,cs),
(221,326,l),
(284,326,l),
(284,272,ls),
(284,213,o),
(258,189,o),
(199,124,c),
(144,69,o),
(120,39,o),
(120,-8,cs),
(120,-70,o),
(167,-115,o),
(259,-115,cs),
(307,-115,o),
(366,-96,o),
(419,-68,c),
(446,-123,l),
(381,-156,o),
(319,-173,o),
(259,-173,cs),
(151,-173,o),
(62,-121,o),
(62,-8,cs)
);
}
);
width = 481;
}
);
},
{
glyphname = periodcentered.ss01;
layers = (
{
layerId = "668C2366-11AD-425E-A5E0-D912FEE9BD2F";
shapes = (
{
closed = 1;
nodes = (
(69,316,o),
(105,354,o),
(151,354,cs),
(195,354,o),
(233,315,o),
(233,272,cs),
(233,228,o),
(194,190,o),
(151,190,cs),
(106,190,o),
(69,228,o),
(69,272,cs)
);
}
);
width = 301;
},
{
layerId = "F93FC949-FDE5-438A-B007-EFA0C245CD82";
shapes = (
{
closed = 1;
nodes = (
(79,289,o),
(102,315,o),
(133,315,cs),
(160,315,o),
(185,290,o),
(185,263,cs),
(185,234,o),
(159,210,o),
(133,210,cs),
(103,210,o),
(79,234,o),
(79,263,cs)
);
}
);
width = 264;
},
{
layerId = "D7C75E23-0F42-43B3-B077-EDD5C5AF94E1";
shapes = (
{
closed = 1;
nodes = (
(81,284,o),
(101,307,o),
(129,307,cs),
(153,307,o),
(175,285,o),
(175,261,cs),
(175,235,o),
(152,214,o),
(129,214,cs),
(102,214,o),
(81,235,o),
(81,261,cs)
);
}
);
width = 256;
}
);
},
{
glyphname = bullet.ss01;
layers = (
{
layerId = "668C2366-11AD-425E-A5E0-D912FEE9BD2F";
shapes = (
{
closed = 1;
nodes = (
(84,422,o),
(162,506,o),
(266,506,cs),
(363,506,o),
(447,428,o),
(447,325,cs),
(447,228,o),
(369,143,o),
(266,143,cs),
(171,143,o),
(84,221,o),
(84,325,cs)
);
}
);
width = 531;
},
{
layerId = "F93FC949-FDE5-438A-B007-EFA0C245CD82";
shapes = (
{
closed = 1;
nodes = (
(90,399,o),
(143,453,o),
(210,453,cs),
(274,453,o),
(330,398,o),
(330,333,cs),
(330,266,o),
(273,213,o),
(210,213,cs),
(145,213,o),
(90,266,o),
(90,333,cs)
);
}
);
width = 424;
},
{
layerId = "D7C75E23-0F42-43B3-B077-EDD5C5AF94E1";
shapes = (
{
closed = 1;
nodes = (
(91,394,o),
(139,442,o),
(199,442,cs),
(256,442,o),
(306,392,o),
(306,335,cs),
(306,274,o),
(254,227,o),
(199,227,cs),
(140,227,o),
(91,275,o),
(91,335,cs)
);
}
);
width = 402;
}
);
},
{
glyphname = bullet.ss02;
layers = (
{
layerId = "668C2366-11AD-425E-A5E0-D912FEE9BD2F";
shapes = (
{
closed = 1;
nodes = (
(310,166,l),
(310,0,l),
(109,0,l),
(109,215,l),
(217,322,l),
(109,420,l),
(109,667,l),
(310,667,l),
(310,480,l),
(457,324,l)
);
}
);
width = 531;
},
{
layerId = "F93FC949-FDE5-438A-B007-EFA0C245CD82";
shapes = (
{
closed = 1;
nodes = (
(222,214,l),
(222,0,l),
(141,0,l),
(141,242,l),
(223,325,l),
(141,404,l),
(141,667,l),
(222,667,l),
(222,434,l),
(334,325,l)
);
}
);
width = 424;
},
{
layerId = "D7C75E23-0F42-43B3-B077-EDD5C5AF94E1";
shapes = (
{
closed = 1;
nodes = (
(204,224,l),
(204,0,l),
(147,0,l),
(147,247,l),
(224,325,l),
(147,401,l),
(147,667,l),
(204,667,l),
(204,425,l),
(309,325,l)
);
}
);
width = 402;
}
);
},
{
glyphname = bullet.ss03;
layers = (
{
layerId = "668C2366-11AD-425E-A5E0-D912FEE9BD2F";
shapes = (
{
closed = 1;
nodes = (
(67,514,l),
(238,635,l),
(473,336,l),
(238,34,l),
(68,151,l),
(225,336,l)
);
}
);
width = 531;
},
{
layerId = "F93FC949-FDE5-438A-B007-EFA0C245CD82";
shapes = (
{
closed = 1;
nodes = (
(80,536,l),
(158,589,l),
(351,330,l),
(158,68,l),
(81,119,l),
(241,330,l)
);
}
);
width = 424;
},
{
layerId = "D7C75E23-0F42-43B3-B077-EDD5C5AF94E1";
shapes = (
{
closed = 1;
nodes = (
(83,540,l),
(142,580,l),
(326,329,l),
(142,75,l),
(84,113,l),
(244,329,l)
);
}
);
width = 402;
}
);
},
{
glyphname = bullet.ss04;
layers = (
{
layerId = "668C2366-11AD-425E-A5E0-D912FEE9BD2F";
shapes = (
{
closed = 1;
nodes = (
(473,332,l),
(68,-13,l),
(68,675,l)
);
}
);
width = 531;
},
{
layerId = "F93FC949-FDE5-438A-B007-EFA0C245CD82";
shapes = (
{
closed = 1;
nodes = (
(350,325,l),
(108,122,l),
(108,528,l)
);
}
);
width = 424;
},
{
layerId = "D7C75E23-0F42-43B3-B077-EDD5C5AF94E1";
shapes = (
{
closed = 1;
nodes = (
(325,324,l),
(116,149,l),
(116,499,l)
);
}
);
width = 402;
}
);
},
{
glyphname = parenleft;
layers = (
{
layerId = "668C2366-11AD-425E-A5E0-D912FEE9BD2F";
shapes = (
{
closed = 1;
nodes = (
(47,477,o),
(91,645,o),
(178,806,c),
(349,733,l),
(277,601,o),
(241,459,o),
(241,306,cs),
(241,122,o),
(273,38,o),
(332,-90,c),
(168,-162,l),
(96,-33,o),
(47,102,o),
(47,306,cs)
);
}
);
width = 358;
},
{
layerId = "F93FC949-FDE5-438A-B007-EFA0C245CD82";
shapes = (
{
closed = 1;
nodes = (
(90,464,o),
(143,649,o),
(202,749,c),
(276,706,l),
(223,621,o),
(170,462,o),
(170,305,cs),
(170,132,o),
(230,-20,o),
(275,-93,c),
(201,-135,l),
(144,-40,o),
(90,141,o),
(90,305,cs)
);
}
);
width = 346;
},
{
layerId = "D7C75E23-0F42-43B3-B077-EDD5C5AF94E1";
shapes = (
{
closed = 1;
nodes = (
(98,461,o),
(153,650,o),
(207,737,c),
(261,701,l),
(212,625,o),
(156,462,o),
(156,305,cs),
(156,134,o),
(221,-32,o),
(263,-93,c),
(208,-130,l),
(154,-41,o),
(98,149,o),
(98,305,cs)
);
}
);
width = 344;
}
);
unicode = 40;
},
{
glyphname = parenright;
layers = (
{
layerId = "668C2366-11AD-425E-A5E0-D912FEE9BD2F";
shapes = (
{
closed = 1;
nodes = (
(26,-90,l),
(85,38,o),
(117,110,o),
(117,306,cs),
(117,456,o),
(82,601,o),
(9,733,c),
(180,806,l),
(267,646,o),
(311,476,o),
(311,306,cs),
(311,104,o),
(264,-35,o),
(190,-162,c)
);
}
);
width = 358;
},
{
layerId = "F93FC949-FDE5-438A-B007-EFA0C245CD82";
shapes = (
{
closed = 1;
nodes = (
(72,-93,l),
(114,-20,o),
(175,129,o),
(175,305,cs),
(175,462,o),
(121,619,o),
(71,706,c),
(143,749,l),
(203,651,o),
(256,463,o),
(256,305,cs),
(256,142,o),
(200,-40,o),
(144,-135,c)
);
}
);
width = 346;
},
{
layerId = "D7C75E23-0F42-43B3-B077-EDD5C5AF94E1";
shapes = (
{
closed = 1;
nodes = (
(81,-93,l),
(120,-32,o),
(187,133,o),
(187,305,cs),
(187,463,o),
(129,623,o),
(83,701,c),
(136,737,l),
(190,652,o),
(245,460,o),
(245,305,cs),
(245,149,o),
(187,-41,o),
(135,-130,c)
);
}
);
width = 344;
}
);
unicode = 41;
},
{
glyphname = braceleft;
layers = (
{
layerId = "668C2366-11AD-425E-A5E0-D912FEE9BD2F";
shapes = (
{
closed = 1;
nodes = (
(108,182,ls),
(108,225,o),
(68,233,o),
(58,237,c),
(58,354,l),
(82,358,o),
(108,376,o),
(108,409,cs),
(108,526,ls),
(108,645,o),
(180,698,o),
(348,698,c),
(348,539,l),
(302,537,o),
(295,515,o),
(295,472,cs),
(295,401,ls),
(295,345,o),
(256,307,o),
(200,294,c),
(256,285,o),
(295,249,o),
(295,187,cs),
(295,117,ls),
(295,74,o),
(303,52,o),
(348,52,c),
(348,-109,l),
(178,-109,o),
(108,-53,o),
(108,64,c)
);
}
);
width = 400;
},
{
layerId = "F93FC949-FDE5-438A-B007-EFA0C245CD82";
shapes = (
{
closed = 1;
nodes = (
(151,195,ls),
(151,233,o),
(126,256,o),
(89,267,c),
(89,321,l),
(128,331,o),
(151,354,o),
(151,392,cs),
(151,544,ls),
(151,644,o),
(206,697,o),
(316,697,c),
(316,623,l),
(253,623,o),
(231,602,o),
(231,545,cs),
(231,391,ls),
(231,351,o),
(209,318,o),
(170,293,c),
(209,268,o),
(231,236,o),
(231,195,cs),
(231,41,ls),
(231,-14,o),
(252,-36,o),
(316,-36,c),
(316,-110,l),
(206,-110,o),
(151,-58,o),
(151,42,cs)
);
}
);
width = 375;
},
{
layerId = "D7C75E23-0F42-43B3-B077-EDD5C5AF94E1";
shapes = (
{
closed = 1;
nodes = (
(159,198,ls),
(159,235,o),
(137,260,o),
(95,273,c),
(95,314,l),
(137,326,o),
(159,350,o),
(159,388,cs),
(159,548,ls),
(159,644,o),
(211,697,o),
(310,697,c),
(310,640,l),
(243,640,o),
(218,619,o),
(218,560,cs),
(218,389,ls),
(218,352,o),
(200,320,o),
(164,293,c),
(200,265,o),
(218,233,o),
(218,197,cs),
(218,26,ls),
(218,-32,o),
(242,-54,o),
(310,-54,c),
(310,-110,l),
(211,-110,o),
(159,-59,o),
(159,37,c)
);
}
);
width = 370;
}
);
unicode = 123;
},
{
glyphname = braceright;
layers = (
{
layerId = "668C2366-11AD-425E-A5E0-D912FEE9BD2F";
shapes = (
{
closed = 1;
nodes = (
(52,52,l),
(96,52,o),
(105,73,o),
(105,117,cs),
(105,187,ls),
(105,248,o),
(144,285,o),
(201,294,c),
(147,305,o),
(105,344,o),
(105,401,cs),
(105,472,ls),
(105,515,o),
(98,537,o),
(52,539,c),
(52,698,l),
(219,698,o),
(292,646,o),
(292,526,cs),
(292,409,ls),
(292,376,o),
(318,358,o),
(342,354,c),
(342,237,l),
(330,233,o),
(286,216,o),
(292,182,c),
(292,64,ls),
(292,-53,o),
(223,-109,o),
(52,-109,c)
);
}
);
width = 400;
},
{
layerId = "F93FC949-FDE5-438A-B007-EFA0C245CD82";
shapes = (
{
closed = 1;
nodes = (
(59,-36,l),
(121,-36,o),
(144,-15,o),
(144,41,cs),
(144,195,ls),
(144,236,o),
(166,268,o),
(205,293,c),
(166,317,o),
(144,350,o),
(144,391,cs),
(144,545,ls),
(144,603,o),
(121,623,o),
(59,623,c),
(59,697,l),
(167,697,o),
(225,644,o),
(225,544,cs),
(225,392,ls),
(225,354,o),
(246,331,o),
(286,321,c),
(286,267,l),
(248,256,o),
(224,232,o),
(225,195,c),
(225,42,ls),
(225,-58,o),
(167,-110,o),
(59,-110,c)
);
}
);
width = 375;
},
{
layerId = "D7C75E23-0F42-43B3-B077-EDD5C5AF94E1";
shapes = (
{
closed = 1;
nodes = (
(60,-54,l),
(126,-54,o),
(152,-33,o),
(152,26,cs),
(152,197,ls),
(152,233,o),
(170,265,o),
(206,293,c),
(170,319,o),
(152,351,o),
(152,389,cs),
(152,560,ls),
(152,620,o),
(126,640,o),
(60,640,c),
(60,697,l),
(157,697,o),
(211,643,o),
(211,548,cs),
(211,388,ls),
(211,350,o),
(232,325,o),
(275,314,c),
(275,273,l),
(232,260,o),
(211,235,o),
(211,198,cs),
(211,37,ls),
(211,-59,o),
(156,-110,o),
(60,-110,c)
);
}
);
width = 370;
}
);
unicode = 125;
},
{
glyphname = bracketleft;
layers = (
{
layerId = "668C2366-11AD-425E-A5E0-D912FEE9BD2F";
shapes = (
{
closed = 1;
nodes = (
(367,696,l),
(367,536,l),
(266,536,l),
(266,45,l),
(367,45,l),
(367,-116,l),
(78,-116,l),
(78,696,l)
);
}
);
width = 402;
},
{
layerId = "F93FC949-FDE5-438A-B007-EFA0C245CD82";
shapes = (
{
closed = 1;
nodes = (
(305,696,l),
(305,622,l),
(196,622,l),
(196,-42,l),
(305,-42,l),
(305,-116,l),
(118,-116,l),
(118,696,l)
);
}
);
width = 385;
},
{
layerId = "D7C75E23-0F42-43B3-B077-EDD5C5AF94E1";
shapes = (
{
closed = 1;
nodes = (
(292,696,l),
(292,639,l),
(182,639,l),
(182,-59,l),
(292,-59,l),
(292,-116,l),
(126,-116,l),
(126,696,l)
);
}
);
width = 381;
}
);
unicode = 91;
},
{
glyphname = bracketright;
layers = (
{
layerId = "668C2366-11AD-425E-A5E0-D912FEE9BD2F";
shapes = (
{
closed = 1;
nodes = (
(324,696,l),
(324,-116,l),
(34,-116,l),
(34,45,l),
(136,45,l),
(136,536,l),
(34,536,l),
(34,696,l)
);
}
);
width = 402;
},
{
layerId = "F93FC949-FDE5-438A-B007-EFA0C245CD82";
shapes = (
{
closed = 1;
nodes = (
(267,696,l),
(267,-116,l),
(80,-116,l),
(80,-42,l),
(189,-42,l),
(189,622,l),
(80,622,l),
(80,696,l)
);
}
);
width = 385;
},
{
layerId = "D7C75E23-0F42-43B3-B077-EDD5C5AF94E1";
shapes = (
{
closed = 1;
nodes = (
(255,696,l),
(255,-116,l),
(89,-116,l),
(89,-59,l),
(199,-59,l),
(199,639,l),
(89,639,l),
(89,696,l)
);
}
);
width = 381;
}
);
unicode = 93;
},
{
glyphname = hyphen;
layers = (
{
layerId = "668C2366-11AD-425E-A5E0-D912FEE9BD2F";
shapes = (
{
closed = 1;
nodes = (
(384,369,l),
(384,252,l),
(79,252,l),
(79,369,l)
);
}
);
width = 464;
},
{
layerId = "F93FC949-FDE5-438A-B007-EFA0C245CD82";
shapes = (
{
closed = 1;
nodes = (
(384,336,l),
(384,270,l),
(79,270,l),
(79,336,l)
);
}
);
width = 464;
},
{
layerId = "D7C75E23-0F42-43B3-B077-EDD5C5AF94E1";
shapes = (
{
closed = 1;
nodes = (
(384,329,l),
(384,274,l),
(79,274,l),
(79,329,l)
);
}
);
width = 464;
}
);
unicode = 45;
},
{
glyphname = endash;
layers = (
{
layerId = "668C2366-11AD-425E-A5E0-D912FEE9BD2F";
shapes = (
{
closed = 1;
nodes = (
(489,349,l),
(489,232,l),
(69,232,l),
(69,349,l)
);
}
);
width = 560;
},
{
layerId = "F93FC949-FDE5-438A-B007-EFA0C245CD82";
shapes = (
{
closed = 1;
nodes = (
(489,322,l),
(489,256,l),
(69,256,l),
(69,322,l)
);
}
);
width = 560;
},
{
layerId = "D7C75E23-0F42-43B3-B077-EDD5C5AF94E1";
shapes = (
{
closed = 1;
nodes = (
(489,317,l),
(489,261,l),
(69,261,l),
(69,317,l)
);
}
);
width = 560;
}
);
unicode = 8211;
},
{
glyphname = emdash;
layers = (
{
layerId = "668C2366-11AD-425E-A5E0-D912FEE9BD2F";
shapes = (
{
closed = 1;
nodes = (
(812,350,l),
(812,232,l),
(79,232,l),
(79,350,l)
);
}
);
width = 891;
},
{
layerId = "F93FC949-FDE5-438A-B007-EFA0C245CD82";
shapes = (
{
closed = 1;
nodes = (
(812,326,l),
(812,256,l),
(79,256,l),
(79,326,l)
);
}
);
width = 891;
},
{
layerId = "D7C75E23-0F42-43B3-B077-EDD5C5AF94E1";
shapes = (
{
closed = 1;
nodes = (
(812,321,l),
(812,261,l),
(79,261,l),
(79,321,l)
);
}
);
width = 891;
}
);
unicode = 8212;
},
{
glyphname = underscore;
layers = (
{
layerId = "668C2366-11AD-425E-A5E0-D912FEE9BD2F";
shapes = (
{
closed = 1;
nodes = (
(546,-24,l),
(546,-133,l),
(0,-133,l),
(0,-24,l)
);
}
);
width = 546;
},
{
layerId = "F93FC949-FDE5-438A-B007-EFA0C245CD82";
shapes = (
{
closed = 1;
nodes = (
(546,-24,l),
(546,-86,l),
(0,-86,l),
(0,-24,l)
);
}
);
width = 546;
},
{
layerId = "D7C75E23-0F42-43B3-B077-EDD5C5AF94E1";
shapes = (
{
closed = 1;
nodes = (
(546,-24,l),
(546,-77,l),
(0,-77,l),
(0,-24,l)
);
}
);
width = 546;
}
);
unicode = 95;
},
{
glyphname = quotesinglbase;
layers = (
{
layerId = "668C2366-11AD-425E-A5E0-D912FEE9BD2F";
shapes = (
{
closed = 1;
nodes = (
(47,-110,l),
(98,-54,o),
(124,11,o),
(124,84,c),
(264,84,l),
(264,-29,o),
(227,-119,o),
(147,-195,c)
);
}
);
width = 342;
},
{
layerId = "F93FC949-FDE5-438A-B007-EFA0C245CD82";
shapes = (
{
closed = 1;
nodes = (
(86,-71,l),
(125,-23,o),
(145,29,o),
(145,84,c),
(221,84,l),
(221,2,o),
(189,-60,o),
(138,-123,c)
);
}
);
width = 303;
},
{
layerId = "D7C75E23-0F42-43B3-B077-EDD5C5AF94E1";
shapes = (
{
closed = 1;
nodes = (
(94,-63,l),
(130,-17,o),
(149,32,o),
(149,84,c),
(212,84,l),
(212,8,o),
(181,-48,o),
(136,-109,c)
);
}
);
width = 295;
}
);
leftKerningGroup = _period;
rightKerningGroup = _period;
unicode = 8218;
},
{
glyphname = quotedblbase;
layers = (
{
layerId = "668C2366-11AD-425E-A5E0-D912FEE9BD2F";
shapes = (
{
closed = 1;
nodes = (
(47,-110,l),
(97,-55,o),
(124,10,o),
(124,84,c),
(264,84,l),
(264,-28,o),
(225,-123,o),
(146,-195,c)
);
},
{
closed = 1;
nodes = (
(241,-110,l),
(292,-54,o),
(317,11,o),
(317,84,c),
(457,84,l),
(457,-31,o),
(418,-122,o),
(340,-195,c)
);
}
);
width = 516;
},
{
layerId = "F93FC949-FDE5-438A-B007-EFA0C245CD82";
shapes = (
{
closed = 1;
nodes = (
(87,-71,l),
(126,-23,o),
(147,28,o),
(147,84,c),
(222,84,l),
(222,2,o),
(189,-61,o),
(139,-123,c)
);
},
{
closed = 1;
nodes = (
(230,-71,l),
(266,-23,o),
(289,22,o),
(289,84,c),
(364,84,l),
(364,1,o),
(331,-61,o),
(282,-123,c)
);
}
);
width = 442;
},
{
layerId = "D7C75E23-0F42-43B3-B077-EDD5C5AF94E1";
shapes = (
{
closed = 1;
nodes = (
(95,-63,l),
(132,-16,o),
(151,32,o),
(151,84,c),
(213,84,l),
(213,8,o),
(182,-48,o),
(137,-109,c)
);
},
{
closed = 1;
nodes = (
(228,-63,l),
(261,-17,o),
(283,24,o),
(283,84,c),
(345,84,l),
(345,7,o),
(314,-49,o),
(270,-109,c)
);
}
);
width = 427;
}
);
leftKerningGroup = _period;
rightKerningGroup = _period;
unicode = 8222;
},
{
glyphname = quotedblleft;
layers = (
{
layerId = "668C2366-11AD-425E-A5E0-D912FEE9BD2F";
shapes = (
{
closed = 1;
nodes = (
(272,740,l),
(217,680,o),
(195,617,o),
(195,546,c),
(55,546,l),
(55,659,o),
(93,751,o),
(173,826,c)
);
},
{
closed = 1;
nodes = (
(462,740,l),
(407,680,o),
(385,617,o),
(385,546,c),
(245,546,l),
(245,659,o),
(283,751,o),
(363,826,c)
);
}
);
width = 480;
},
{
layerId = "F93FC949-FDE5-438A-B007-EFA0C245CD82";
shapes = (
{
closed = 1;
nodes = (
(188,713,l),
(148,663,o),
(129,612,o),
(129,559,c),
(54,559,l),
(54,640,o),
(86,702,o),
(137,766,c)
);
},
{
closed = 1;
nodes = (
(329,713,l),
(289,663,o),
(270,612,o),
(270,559,c),
(195,559,l),
(195,641,o),
(226,701,o),
(277,766,c)
);
}
);
width = 398;
},
{
layerId = "D7C75E23-0F42-43B3-B077-EDD5C5AF94E1";
shapes = (
{
closed = 1;
nodes = (
(171,708,l),
(134,660,o),
(116,611,o),
(116,561,c),
(54,561,l),
(54,636,o),
(84,692,o),
(130,754,c)
);
},
{
closed = 1;
nodes = (
(302,708,l),
(265,660,o),
(247,611,o),
(247,561,c),
(185,561,l),
(185,637,o),
(214,691,o),
(260,754,c)
);
}
);
width = 381;
}
);
unicode = 8220;
},
{
glyphname = quotedblright;
layers = (
{
layerId = "668C2366-11AD-425E-A5E0-D912FEE9BD2F";
shapes = (
{
closed = 1;
nodes = (
(27,473,l),
(78,529,o),
(104,594,o),
(104,667,c),
(244,667,l),
(244,550,o),
(205,460,o),
(127,388,c)
);
},
{
closed = 1;
nodes = (
(216,473,l),
(266,528,o),
(293,593,o),
(293,667,c),
(433,667,l),
(433,554,o),
(397,462,o),
(316,388,c)
);
}
);
width = 479;
},
{
layerId = "F93FC949-FDE5-438A-B007-EFA0C245CD82";
shapes = (
{
closed = 1;
nodes = (
(60,512,l),
(100,560,o),
(120,612,o),
(120,667,c),
(195,667,l),
(195,583,o),
(162,522,o),
(112,460,c)
);
},
{
closed = 1;
nodes = (
(204,512,l),
(239,556,o),
(262,604,o),
(262,667,c),
(337,667,l),
(337,583,o),
(305,522,o),
(254,460,c)
);
}
);
width = 393;
},
{
layerId = "D7C75E23-0F42-43B3-B077-EDD5C5AF94E1";
shapes = (
{
closed = 1;
nodes = (
(67,520,l),
(104,566,o),
(123,615,o),
(123,667,c),
(185,667,l),
(185,589,o),
(153,534,o),
(109,474,c)
);
},
{
closed = 1;
nodes = (
(201,520,l),
(233,562,o),
(256,606,o),
(256,667,c),
(318,667,l),
(318,589,o),
(286,534,o),
(242,474,c)
);
}
);
width = 376;
}
);
unicode = 8221;
},
{
glyphname = quoteleft;
layers = (
{
layerId = "668C2366-11AD-425E-A5E0-D912FEE9BD2F";
shapes = (
{
closed = 1;
nodes = (
(271,738,l),
(220,683,o),
(194,619,o),
(194,545,c),
(54,545,l),
(54,648,o),
(89,751,o),
(172,824,c)
);
}
);
width = 301;
},
{
layerId = "F93FC949-FDE5-438A-B007-EFA0C245CD82";
shapes = (
{
closed = 1;
nodes = (
(191,713,l),
(151,665,o),
(132,613,o),
(132,558,c),
(57,558,l),
(57,638,o),
(87,702,o),
(140,766,c)
);
}
);
width = 259;
},
{
layerId = "D7C75E23-0F42-43B3-B077-EDD5C5AF94E1";
shapes = (
{
closed = 1;
nodes = (
(175,708,l),
(137,661,o),
(119,612,o),
(119,561,c),
(57,561,l),
(57,636,o),
(87,692,o),
(133,754,c)
);
}
);
width = 250;
}
);
unicode = 8216;
},
{
glyphname = quoteright;
layers = (
{
layerId = "668C2366-11AD-425E-A5E0-D912FEE9BD2F";
shapes = (
{
closed = 1;
nodes = (
(39,473,l),
(90,529,o),
(116,594,o),
(116,667,c),
(256,667,l),
(256,553,o),
(218,462,o),
(138,388,c)
);
}
);
width = 301;
},
{
layerId = "F93FC949-FDE5-438A-B007-EFA0C245CD82";
shapes = (
{
closed = 1;
nodes = (
(64,512,l),
(103,560,o),
(124,612,o),
(124,667,c),
(199,667,l),
(199,583,o),
(166,522,o),
(116,460,c)
);
}
);
width = 259;
},
{
layerId = "D7C75E23-0F42-43B3-B077-EDD5C5AF94E1";
shapes = (
{
closed = 1;
nodes = (
(69,520,l),
(106,566,o),
(125,615,o),
(125,667,c),
(187,667,l),
(187,589,o),
(155,534,o),
(111,474,c)
);
}
);
width = 250;
}
);
unicode = 8217;
},
{
glyphname = guillemotleft;
layers = (
{
layerId = "668C2366-11AD-425E-A5E0-D912FEE9BD2F";
shapes = (
{
closed = 1;
nodes = (
(203,445,l),
(369,445,l),
(196,255,l),
(369,64,l),
(203,64,l),
(44,255,l)
);
},
{
closed = 1;
nodes = (
(446,445,l),
(610,445,l),
(438,255,l),
(610,64,l),
(446,64,l),
(287,255,l)
);
}
);
width = 659;
},
{
layerId = "F93FC949-FDE5-438A-B007-EFA0C245CD82";
shapes = (
{
closed = 1;
nodes = (
(201,445,l),
(302,445,l),
(134,255,l),
(302,64,l),
(201,64,l),
(42,255,l)
);
},
{
closed = 1;
nodes = (
(394,445,l),
(496,445,l),
(327,255,l),
(496,64,l),
(394,64,l),
(235,255,l)
);
}
);
width = 561;
},
{
layerId = "D7C75E23-0F42-43B3-B077-EDD5C5AF94E1";
shapes = (
{
closed = 1;
nodes = (
(200,445,l),
(289,445,l),
(121,255,l),
(289,64,l),
(200,64,l),
(41,255,l)
);
},
{
closed = 1;
nodes = (
(384,445,l),
(473,445,l),
(305,255,l),
(473,64,l),
(384,64,l),
(225,255,l)
);
}
);
width = 541;
}
);
unicode = 171;
},
{
glyphname = guillemotright;
layers = (
{
layerId = "668C2366-11AD-425E-A5E0-D912FEE9BD2F";
shapes = (
{
closed = 1;
nodes = (
(53,445,l),
(217,445,l),
(376,255,l),
(217,64,l),
(53,64,l),
(224,255,l)
);
},
{
closed = 1;
nodes = (
(294,445,l),
(459,445,l),
(619,255,l),
(459,64,l),
(294,64,l),
(466,255,l)
);
}
);
width = 672;
},
{
layerId = "F93FC949-FDE5-438A-B007-EFA0C245CD82";
shapes = (
{
closed = 1;
nodes = (
(66,445,l),
(167,445,l),
(327,255,l),
(167,64,l),
(66,64,l),
(233,255,l)
);
},
{
closed = 1;
nodes = (
(260,445,l),
(361,445,l),
(521,255,l),
(361,64,l),
(260,64,l),
(427,255,l)
);
}
);
width = 561;
},
{
layerId = "D7C75E23-0F42-43B3-B077-EDD5C5AF94E1";
shapes = (
{
closed = 1;
nodes = (
(69,445,l),
(157,445,l),
(317,255,l),
(157,64,l),
(69,64,l),
(235,255,l)
);
},
{
closed = 1;
nodes = (
(253,445,l),
(341,445,l),
(501,255,l),
(341,64,l),
(253,64,l),
(419,255,l)
);
}
);
width = 539;
}
);
unicode = 187;
},
{
glyphname = guilsinglleft;
layers = (
{
layerId = "668C2366-11AD-425E-A5E0-D912FEE9BD2F";
shapes = (
{
closed = 1;
nodes = (
(200,445,l),
(366,445,l),
(194,255,l),
(366,64,l),
(200,64,l),
(41,255,l)
);
}
);
width = 400;
},
{
layerId = "F93FC949-FDE5-438A-B007-EFA0C245CD82";
shapes = (
{
closed = 1;
nodes = (
(200,445,l),
(302,445,l),
(134,255,l),
(302,64,l),
(200,64,l),
(41,255,l)
);
}
);
width = 351;
},
{
layerId = "D7C75E23-0F42-43B3-B077-EDD5C5AF94E1";
shapes = (
{
closed = 1;
nodes = (
(200,445,l),
(289,445,l),
(122,255,l),
(289,64,l),
(200,64,l),
(41,255,l)
);
}
);
width = 341;
}
);
unicode = 8249;
},
{
glyphname = guilsinglright;
layers = (
{
layerId = "668C2366-11AD-425E-A5E0-D912FEE9BD2F";
shapes = (
{
closed = 1;
nodes = (
(38,445,l),
(205,445,l),
(363,255,l),
(205,64,l),
(38,64,l),
(211,255,l)
);
}
);
width = 412;
},
{
layerId = "F93FC949-FDE5-438A-B007-EFA0C245CD82";
shapes = (
{
closed = 1;
nodes = (
(65,445,l),
(166,445,l),
(326,255,l),
(166,64,l),
(65,64,l),
(233,255,l)
);
}
);
width = 381;
},
{
layerId = "D7C75E23-0F42-43B3-B077-EDD5C5AF94E1";
shapes = (
{
closed = 1;
nodes = (
(70,445,l),
(158,445,l),
(318,255,l),
(158,64,l),
(70,64,l),
(237,255,l)
);
}
);
width = 375;
}
);
unicode = 8250;
},
{
glyphname = quotedbl;
layers = (
{
layerId = "668C2366-11AD-425E-A5E0-D912FEE9BD2F";
shapes = (
{
closed = 1;
nodes = (
(81,676,l),
(206,676,l),
(189,475,l),
(99,475,l)
);
},
{
closed = 1;
nodes = (
(357,676,l),
(340,475,l),
(251,475,l),
(234,676,l)
);
}
);
width = 440;
},
{
layerId = "F93FC949-FDE5-438A-B007-EFA0C245CD82";
shapes = (
{
closed = 1;
nodes = (
(81,676,l),
(167,676,l),
(150,475,l),
(99,475,l)
);
},
{
closed = 1;
nodes = (
(302,676,l),
(284,475,l),
(234,475,l),
(217,676,l)
);
}
);
width = 385;
},
{
layerId = "D7C75E23-0F42-43B3-B077-EDD5C5AF94E1";
shapes = (
{
closed = 1;
nodes = (
(81,676,l),
(159,676,l),
(142,475,l),
(99,475,l)
);
},
{
closed = 1;
nodes = (
(291,676,l),
(273,475,l),
(230,475,l),
(213,676,l)
);
}
);
width = 374;
}
);
unicode = 34;
},
{
glyphname = quotesingle;
layers = (
{
layerId = "668C2366-11AD-425E-A5E0-D912FEE9BD2F";
shapes = (
{
closed = 1;
nodes = (
(206,676,l),
(189,475,l),
(99,475,l),
(81,676,l)
);
}
);
width = 285;
},
{
layerId = "F93FC949-FDE5-438A-B007-EFA0C245CD82";
shapes = (
{
closed = 1;
nodes = (
(167,676,l),
(150,475,l),
(99,475,l),
(81,676,l)
);
}
);
width = 252;
},
{
layerId = "D7C75E23-0F42-43B3-B077-EDD5C5AF94E1";
shapes = (
{
closed = 1;
nodes = (
(159,676,l),
(142,475,l),
(99,475,l),
(81,676,l)
);
}
);
width = 245;
}
);
unicode = 39;
},
